<?xml version="1.0" encoding="UTF-8" standalone="no"?>
<!-- Created with Inkscape (http://www.inkscape.org/) -->

<svg
   width="32in"
   height="18in"
   viewBox="0 0 812.80001 457.20001"
   version="1.1"
   id="svg9785"
   inkscape:version="1.1 (c68e22c387, 2021-05-23)"
   sodipodi:docname="main_plate_2.svg"
   xmlns:inkscape="http://www.inkscape.org/namespaces/inkscape"
   xmlns:sodipodi="http://sodipodi.sourceforge.net/DTD/sodipodi-0.dtd"
   xmlns="http://www.w3.org/2000/svg"
   xmlns:svg="http://www.w3.org/2000/svg">
  <sodipodi:namedview
     id="namedview9787"
     pagecolor="#505050"
     bordercolor="#ffffff"
     borderopacity="1"
     inkscape:pageshadow="0"
     inkscape:pageopacity="0"
     inkscape:pagecheckerboard="1"
     inkscape:document-units="mm"
     showgrid="false"
     units="in"
     inkscape:zoom="0.7500982"
     inkscape:cx="263.29886"
     inkscape:cy="473.93794"
     inkscape:window-width="2560"
     inkscape:window-height="1027"
     inkscape:window-x="-8"
     inkscape:window-y="-8"
     inkscape:window-maximized="1"
     inkscape:current-layer="layer1" />
  <defs
     id="defs9782">
    <marker
       id="DistanceX"
       orient="auto"
       refX="0.0"
       refY="0.0"
       style="overflow:visible">
      <path
         d="M 3,-3 L -3,3 M 0,-5 L  0,5"
         style="stroke:#000000; stroke-width:0.5"
         id="path9791" />
    </marker>
    <pattern
       id="Hatch"
       patternUnits="userSpaceOnUse"
       width="8"
       height="8"
       x="0"
       y="0">
      <path
         d="M8 4 l-4,4"
         stroke="#000000"
         stroke-width="0.25"
         linecap="square"
         id="path9794" />
      <path
         d="M6 2 l-4,4"
         stroke="#000000"
         stroke-width="0.25"
         linecap="square"
         id="path9796" />
      <path
         d="M4 0 l-4,4"
         stroke="#000000"
         stroke-width="0.25"
         linecap="square"
         id="path9798" />
    </pattern>
    <symbol
       id="*Model_Space" />
    <symbol
       id="*Paper_Space" />
    <symbol
       id="*Paper_Space0" />
  </defs>
  <g
     inkscape:label="Layer 1"
     inkscape:groupmode="layer"
     id="layer1">
    <g
       id="g10091"
       transform="translate(-478.16251,-232.30988)">
      <path
         d="m 583.79647,319.92903 a 1.8000001,1.8000001 0 1 0 -3.6,0 1.8000001,1.8000001 0 1 0 3.6,0 z"
         style="fill:none;stroke:#ff0000;stroke-width:0.238125;stroke-linecap:round"
         id="path9806" />
      <path
         d="m 551.36647,319.92903 a 1.8000001,1.8000001 0 1 0 -3.6,0 1.8000001,1.8000001 0 1 0 3.6,0 z"
         style="fill:none;stroke:#ff0000;stroke-width:0.238125;stroke-linecap:round"
         id="path9808" />
      <path
         d="m 534.18147,285.92902 a 2.4,2.4 0 1 0 -4.8,0 2.4,2.4 0 1 0 4.8,0 z"
         style="fill:none;stroke:#ff0000;stroke-width:0.238125;stroke-linecap:round"
         id="path9810" />
      <path
         d="m 602.18147,285.92902 a 2.4,2.4 0 1 0 -4.8,0 2.4,2.4 0 1 0 4.8,0 z"
         style="fill:none;stroke:#ff0000;stroke-width:0.238125;stroke-linecap:round"
         id="path9812" />
      <path
         d="m 602.18147,353.92902 a 2.4,2.4 0 1 0 -4.8,0 2.4,2.4 0 1 0 4.8,0 z"
         style="fill:none;stroke:#ff0000;stroke-width:0.238125;stroke-linecap:round"
         id="path9814" />
      <path
         d="m 534.18147,353.92902 a 2.4,2.4 0 1 0 -4.8,0 2.4,2.4 0 1 0 4.8,0 z"
         style="fill:none;stroke:#ff0000;stroke-width:0.238125;stroke-linecap:round"
         id="path9816" />
      <path
         d="m 573.71897,319.92903 a 7.9375,7.9375 0 1 0 -15.875,0 7.9375,7.9375 0 1 0 15.875,0 z"
         style="fill:none;stroke:#ff0000;stroke-width:0.238125;stroke-linecap:round"
         id="path9818" />
      <path
         d="m 498.57317,249.27902 a 3.4417,3.4417 0 1 0 -6.8834,0 3.4417,3.4417 0 1 0 6.8834,0 z"
         style="fill:none;stroke:#ff0000;stroke-width:0.238125;stroke-linecap:round"
         id="path9820" />
      <path
         d="m 639.87317,390.57902 a 3.4417,3.4417 0 1 0 -6.8834,0 3.4417,3.4417 0 1 0 6.8834,0 z"
         style="fill:none;stroke:#ff0000;stroke-width:0.238125;stroke-linecap:round"
         id="path9822" />
      <path
         d="m 498.57317,390.57902 a 3.4417,3.4417 0 1 0 -6.8834,0 3.4417,3.4417 0 1 0 6.8834,0 z"
         style="fill:none;stroke:#ff0000;stroke-width:0.238125;stroke-linecap:round"
         id="path9824" />
      <path
         d="m 639.87317,249.27902 a 3.4417,3.4417 0 1 0 -6.8834,0 3.4417,3.4417 0 1 0 6.8834,0 z"
         style="fill:none;stroke:#ff0000;stroke-width:0.238125;stroke-linecap:round"
         id="path9826" />
      <path
         style="fill:none;stroke:#ff0000;stroke-width:0.238125;stroke-linecap:round"
         d="M 488.28157,242.42894 V 397.42821"
         id="path9828" />
      <path
         style="fill:none;stroke:#ff0000;stroke-width:0.238125;stroke-linecap:round"
         d="m 488.28157,397.42821 h 154.9998"
         id="path9830" />
      <path
         style="fill:none;stroke:#ff0000;stroke-width:0.238125;stroke-linecap:round"
         d="M 643.28137,397.42821 V 242.42894"
         id="path9832" />
      <path
         style="fill:none;stroke:#ff0000;stroke-width:0.238125;stroke-linecap:round"
         d="M 643.28137,242.42894 H 488.28157"
         id="path9834" />
    </g>
  </g>
</svg>
