  0
SECTION
  2
HEADER
  9
$ACADVER
  1
AC1015
  9
$ACADMAINTVER
 70
     6
  9
$DWGCODEPAGE
  3
ANSI_1252
  9
$INSBASE
 10
0.0
 20
0.0
 30
0.0
  9
$EXTMIN
 10
-110.0
 20
-110.0
 30
0.0
  9
$EXTMAX
 10
110.0
 20
110.0
 30
0.0
  9
$LIMMIN
 10
0.0
 20
0.0
  9
$LIMMAX
 10
420.0
 20
297.0
  9
$ORTHOMODE
 70
     0
  9
$REGENMODE
 70
     1
  9
$FILLMODE
 70
     1
  9
$QTEXTMODE
 70
     0
  9
$MIRRTEXT
 70
     1
  9
$LTSCALE
 40
1.0
  9
$ATTMODE
 70
     1
  9
$TEXTSIZE
 40
3.5
  9
$TRACEWID
 40
1.0
  9
$TEXTSTYLE
  7
Standard
  9
$CLAYER
  8
0
  9
$CELTYPE
  6
ByLayer
  9
$CECOLOR
 62
   256
  9
$CELTSCALE
 40
1.0
  9
$DISPSILH
 70
     0
  9
$DIMSCALE
 40
1.0
  9
$DIMASZ
 40
3.302
  9
$DIMEXO
 40
0.0
  9
$DIMDLI
 40
3.75
  9
$DIMRND
 40
0.0
  9
$DIMDLE
 40
0.0
  9
$DIMEXE
 40
1.0
  9
$DIMTP
 40
0.0
  9
$DIMTM
 40
0.0
  9
$DIMTXT
 40
3.5
  9
$DIMCEN
 40
2.5
  9
$DIMTSZ
 40
0.0
  9
$DIMTOL
 70
     0
  9
$DIMLIM
 70
     0
  9
$DIMTIH
 70
     1
  9
$DIMTOH
 70
     1
  9
$DIMSE1
 70
     0
  9
$DIMSE2
 70
     0
  9
$DIMTAD
 70
     1
  9
$DIMZIN
 70
     1
  9
$DIMBLK
  1

  9
$DIMASO
 70
     1
  9
$DIMSHO
 70
     1
  9
$DIMPOST
  1

  9
$DIMAPOST
  1

  9
$DIMALT
 70
     0
  9
$DIMALTD
 70
     3
  9
$DIMALTF
 40
0.0393700787
  9
$DIMLFAC
 40
1.0
  9
$DIMTOFL
 70
     1
  9
$DIMTVP
 40
0.0
  9
$DIMTIX
 70
     0
  9
$DIMSOXD
 70
     0
  9
$DIMSAH
 70
     0
  9
$DIMBLK1
  1

  9
$DIMBLK2
  1

  9
$DIMSTYLE
  2
ISO-25
  9
$DIMCLRD
 70
     0
  9
$DIMCLRE
 70
     0
  9
$DIMCLRT
 70
     0
  9
$DIMTFAC
 40
1.0
  9
$DIMGAP
 40
1.524
  9
$DIMJUST
 70
     0
  9
$DIMSD1
 70
     0
  9
$DIMSD2
 70
     0
  9
$DIMTOLJ
 70
     0
  9
$DIMTZIN
 70
     1
  9
$DIMALTZ
 70
     0
  9
$DIMALTTZ
 70
     0
  9
$DIMUPT
 70
     0
  9
$DIMDEC
 70
     2
  9
$DIMTDEC
 70
     2
  9
$DIMALTU
 70
     2
  9
$DIMALTTD
 70
     3
  9
$DIMTXSTY
  7
Standard
  9
$DIMAUNIT
 70
     0
  9
$DIMADEC
 70
     2
  9
$DIMALTRND
 40
0.0
  9
$DIMAZIN
 70
     0
  9
$DIMDSEP
 70
    44
  9
$DIMATFIT
 70
     3
  9
$DIMFRAC
 70
     0
  9
$DIMLDRBLK
  1

  9
$DIMLUNIT
 70
     2
  9
$DIMLWD
 70
    -2
  9
$DIMLWE
 70
    -2
  9
$DIMTMOVE
 70
     0
  9
$LUNITS
 70
     2
  9
$LUPREC
 70
     2
  9
$SKETCHINC
 40
1.0
  9
$FILLETRAD
 40
10.0
  9
$AUNITS
 70
     0
  9
$AUPREC
 70
     2
  9
$MENU
  1
.
  9
$ELEVATION
 40
0.0
  9
$PELEVATION
 40
0.0
  9
$THICKNESS
 40
0.0
  9
$LIMCHECK
 70
     0
  9
$CHAMFERA
 40
0.0
  9
$CHAMFERB
 40
0.0
  9
$CHAMFERC
 40
0.0
  9
$CHAMFERD
 40
0.0
  9
$SKPOLY
 70
     0
  9
$TDCREATE
 40
2459454.482867859
  9
$TDUCREATE
 40
2459454.649534525
  9
$TDUPDATE
 40
2459454.48289309
  9
$TDUUPDATE
 40
2459454.649559757
  9
$TDINDWG
 40
0.0000000116
  9
$TDUSRTIMER
 40
0.0000000116
  9
$USRTIMER
 70
     1
  9
$ANGBASE
 50
0.0
  9
$ANGDIR
 70
     0
  9
$PDMODE
 70
     0
  9
$PDSIZE
 40
-1.0
  9
$PLINEWID
 40
0.0
  9
$SPLFRAME
 70
     0
  9
$SPLINETYPE
 70
     6
  9
$SPLINESEGS
 70
     8
  9
$HANDSEED
  5
155
  9
$SURFTAB1
 70
     6
  9
$SURFTAB2
 70
     6
  9
$SURFTYPE
 70
     6
  9
$SURFU
 70
     6
  9
$SURFV
 70
     6
  9
$UCSBASE
  2

  9
$UCSNAME
  2

  9
$UCSORG
 10
0.0
 20
0.0
 30
0.0
  9
$UCSXDIR
 10
1.0
 20
0.0
 30
0.0
  9
$UCSYDIR
 10
0.0
 20
1.0
 30
0.0
  9
$UCSORTHOREF
  2

  9
$UCSORTHOVIEW
 70
     0
  9
$UCSORGTOP
 10
0.0
 20
0.0
 30
0.0
  9
$UCSORGBOTTOM
 10
0.0
 20
0.0
 30
0.0
  9
$UCSORGLEFT
 10
0.0
 20
0.0
 30
0.0
  9
$UCSORGRIGHT
 10
0.0
 20
0.0
 30
0.0
  9
$UCSORGFRONT
 10
0.0
 20
0.0
 30
0.0
  9
$UCSORGBACK
 10
0.0
 20
0.0
 30
0.0
  9
$PUCSBASE
  2

  9
$PUCSNAME
  2

  9
$PUCSORG
 10
0.0
 20
0.0
 30
0.0
  9
$PUCSXDIR
 10
1.0
 20
0.0
 30
0.0
  9
$PUCSYDIR
 10
0.0
 20
1.0
 30
0.0
  9
$PUCSORTHOREF
  2

  9
$PUCSORTHOVIEW
 70
     0
  9
$PUCSORGTOP
 10
0.0
 20
0.0
 30
0.0
  9
$PUCSORGBOTTOM
 10
0.0
 20
0.0
 30
0.0
  9
$PUCSORGLEFT
 10
0.0
 20
0.0
 30
0.0
  9
$PUCSORGRIGHT
 10
0.0
 20
0.0
 30
0.0
  9
$PUCSORGFRONT
 10
0.0
 20
0.0
 30
0.0
  9
$PUCSORGBACK
 10
0.0
 20
0.0
 30
0.0
  9
$USERI1
 70
     0
  9
$USERI2
 70
     0
  9
$USERI3
 70
     0
  9
$USERI4
 70
     0
  9
$USERI5
 70
     0
  9
$USERR1
 40
0.0
  9
$USERR2
 40
0.0
  9
$USERR3
 40
0.0
  9
$USERR4
 40
0.0
  9
$USERR5
 40
0.0
  9
$WORLDVIEW
 70
     1
  9
$SHADEDGE
 70
     3
  9
$SHADEDIF
 70
    70
  9
$TILEMODE
 70
     1
  9
$MAXACTVP
 70
    64
  9
$PINSBASE
 10
0.0
 20
0.0
 30
0.0
  9
$PLIMCHECK
 70
     0
  9
$PEXTMIN
 10
1.0000000000E+20
 20
1.0000000000E+20
 30
1.0000000000E+20
  9
$PEXTMAX
 10
-1.0000000000E+20
 20
-1.0000000000E+20
 30
-1.0000000000E+20
  9
$PLIMMIN
 10
0.0
 20
0.0
  9
$PLIMMAX
 10
420.0
 20
297.0
  9
$UNITMODE
 70
     0
  9
$VISRETAIN
 70
     1
  9
$PLINEGEN
 70
     0
  9
$PSLTSCALE
 70
     1
  9
$TREEDEPTH
 70
  3020
  9
$CMLSTYLE
  2
Standard
  9
$CMLJUST
 70
     0
  9
$CMLSCALE
 40
20.0
  9
$PROXYGRAPHICS
 70
     1
  9
$MEASUREMENT
 70
     1
  9
$CELWEIGHT
370
    -1
  9
$ENDCAPS
280
     0
  9
$JOINSTYLE
280
     0
  9
$LWDISPLAY
290
     1
  9
$INSUNITS
 70
     4
  9
$HYPERLINKBASE
  1

  9
$STYLESHEET
  1

  9
$XEDIT
290
     1
  9
$CEPSNTYPE
380
     0
  9
$PSTYLEMODE
290
     1
  9
$FINGERPRINTGUID
  2
{7f62b3e6-5851-474f-b89b-6d5616c793b4}
  9
$VERSIONGUID
  2
{FAEB1C32-E019-11D5-929B-00C0DF256EC4}
  9
$EXTNAMES
290
     1
  9
$PSVPSCALE
 40
0.0
  9
$OLESTARTUP
290
     0
  0
ENDSEC
  0
SECTION
  2
CLASSES
  0
CLASS
  1
ACDBDICTIONARYWDFLT
  2
AcDbDictionaryWithDefault
  3
ObjectDBX Classes
 90
        0
280
     0
281
     0
  0
CLASS
  1
VISUALSTYLE
  2
AcDbVisualStyle
  3
ObjectDBX Classes
 90
     4095
280
     0
281
     0
  0
CLASS
  1
MATERIAL
  2
AcDbMaterial
  3
ObjectDBX Classes
 90
     1153
280
     0
281
     0
  0
CLASS
  1
SCALE
  2
AcDbScale
  3
ObjectDBX Classes
 90
     1153
280
     0
281
     0
  0
CLASS
  1
TABLESTYLE
  2
AcDbTableStyle
  3
ObjectDBX Classes
 90
     4095
280
     0
281
     0
  0
CLASS
  1
MLEADERSTYLE
  2
AcDbMLeaderStyle
  3
ACDB_MLEADERSTYLE_CLASS
 90
     4095
280
     0
281
     0
  0
CLASS
  1
SUN
  2
AcDbSun
  3
SCENEOE
 90
     1153
280
     0
281
     0
  0
CLASS
  1
ACDBPLACEHOLDER
  2
AcDbPlaceHolder
  3
ObjectDBX Classes
 90
        0
280
     0
281
     0
  0
CLASS
  1
LAYOUT
  2
AcDbLayout
  3
ObjectDBX Classes
 90
        0
280
     0
281
     0
  0
ENDSEC
  0
SECTION
  2
TABLES
  0
TABLE
  2
VPORT
  5
8
330
0
100
AcDbSymbolTable
 70
     1
  0
VPORT
  5
29
330
8
100
AcDbSymbolTableRecord
100
AcDbViewportTableRecord
  2
*Active
 70
     0
 10
0.0
 20
0.0
 11
1.0
 21
1.0
 12
0.0
 22
0.0
 13
0.0
 23
0.0
 14
10.0
 24
10.0
 15
10.0
 25
10.0
 16
0.0
 26
0.0
 36
1.0
 17
0.0
 27
0.0
 37
0.0
 40
224.4
 41
1.0
 42
50.0
 43
0.0
 44
0.0
 50
0.0
 51
0.0
 71
     0
 72
   100
 73
     1
 74
     3
 75
     0
 76
     0
 77
     0
 78
     0
281
     0
 65
     1
110
0.0
120
0.0
130
0.0
111
1.0
121
0.0
131
0.0
112
0.0
122
1.0
132
0.0
 79
     0
146
0.0
  0
ENDTAB
  0
TABLE
  2
LTYPE
  5
5
330
0
100
AcDbSymbolTable
 70
     6
  0
LTYPE
  5
14
330
5
100
AcDbSymbolTableRecord
100
AcDbLinetypeTableRecord
  2
ByBlock
 70
     0
  3

 72
    65
 73
     0
 40
0.0
  0
LTYPE
  5
15
330
5
100
AcDbSymbolTableRecord
100
AcDbLinetypeTableRecord
  2
ByLayer
 70
     0
  3

 72
    65
 73
     0
 40
0.0
  0
LTYPE
  5
16
330
5
100
AcDbSymbolTableRecord
100
AcDbLinetypeTableRecord
  2
Continuous
 70
     0
  3
Solid line
 72
    65
 73
     0
 40
0.0
  0
LTYPE
  5
6E
330
5
100
AcDbSymbolTableRecord
100
AcDbLinetypeTableRecord
  2
HIDDEN
 70
     0
  3
Hidden __ __ __ __ __ __ __ __ __ __ __ __ __ __
 72
    65
 73
     2
 40
1.905
 49
1.27
 74
     0
 49
-0.635
 74
     0
  0
LTYPE
  5
6F
330
5
100
AcDbSymbolTableRecord
100
AcDbLinetypeTableRecord
  2
PHANTOM
 70
     0
  3
Phantom ______  __  __  ______  __  __  ______
 72
    65
 73
     6
 40
12.7
 49
6.35
 74
     0
 49
-1.27
 74
     0
 49
1.27
 74
     0
 49
-1.27
 74
     0
 49
1.27
 74
     0
 49
-1.27
 74
     0
  0
LTYPE
  5
70
330
5
100
AcDbSymbolTableRecord
100
AcDbLinetypeTableRecord
  2
CENTER
 70
     0
  3
Center ____ _ ____ _ ____ _ ____ _ ____ _ ____
 72
    65
 73
     4
 40
10.16
 49
6.35
 74
     0
 49
-1.27
 74
     0
 49
1.27
 74
     0
 49
-1.27
 74
     0
  0
LTYPE
  5
71
330
5
100
AcDbSymbolTableRecord
100
AcDbLinetypeTableRecord
  2
CENTERX2
 70
     0
  3
Center (2x) ________  __  ________  __  _____
 72
    65
 73
     4
 40
20.32
 49
12.7
 74
     0
 49
-2.54
 74
     0
 49
2.54
 74
     0
 49
-2.54
 74
     0
  0
LTYPE
  5
72
330
5
100
AcDbSymbolTableRecord
100
AcDbLinetypeTableRecord
  2
DOT2
 70
     0
  3
Dot (.5x) ........................................
 72
    65
 73
     2
 40
0.635
 49
0.0
 74
     0
 49
-0.635
 74
     0
  0
ENDTAB
  0
TABLE
  2
LAYER
  5
2
330
0
100
AcDbSymbolTable
 70
     1
  0
LAYER
  5
10
330
2
100
AcDbSymbolTableRecord
100
AcDbLayerTableRecord
  2
0
 70
     0
 62
     7
  6
Continuous
370
    -3
390
F
  0
ENDTAB
  0
TABLE
  2
STYLE
  5
3
330
0
100
AcDbSymbolTable
 70
     2
  0
STYLE
  5
11
330
3
100
AcDbSymbolTableRecord
100
AcDbTextStyleTableRecord
  2
Standard
 70
     0
 40
0.0
 41
1.0
 50
0.0
 71
     0
 42
3.5
  3
txt
  4

  0
STYLE
  5
151
330
3
100
AcDbSymbolTableRecord
100
AcDbTextStyleTableRecord
  2
SLDTEXTSTYLE0
 70
     0
 40
0.0
 41
0.7
 50
0.0
 71
     0
 42
3.5
  3
TXT
  4

  0
ENDTAB
  0
TABLE
  2
VIEW
  5
6
330
0
100
AcDbSymbolTable
 70
     0
  0
ENDTAB
  0
TABLE
  2
UCS
  5
7
330
0
100
AcDbSymbolTable
 70
     0
  0
ENDTAB
  0
TABLE
  2
APPID
  5
9
330
0
100
AcDbSymbolTable
 70
     1
  0
APPID
  5
12
330
9
100
AcDbSymbolTableRecord
100
AcDbRegAppTableRecord
  2
ACAD
 70
     0
  0
ENDTAB
  0
TABLE
  2
DIMSTYLE
  5
A
330
0
100
AcDbSymbolTable
 70
     1
100
AcDbDimStyleTable
  0
DIMSTYLE
105
27
330
A
100
AcDbSymbolTableRecord
100
AcDbDimStyleTableRecord
  2
ISO-25
 70
     0
 41
2.5
 42
0.625
 43
3.75
 44
1.25
 73
     0
 74
     0
 77
     1
 78
     8
140
2.5
141
2.5
143
0.0393700787
147
0.625
171
     3
172
     1
178
     0
271
     2
272
     2
274
     3
278
    44
283
     0
284
     8
340
11
  0
ENDTAB
  0
TABLE
  2
BLOCK_RECORD
  5
1
330
0
100
AcDbSymbolTable
 70
     1
  0
BLOCK_RECORD
  5
1F
330
1
100
AcDbSymbolTableRecord
100
AcDbBlockTableRecord
  2
*Model_Space
340
22
  0
BLOCK_RECORD
  5
1B
330
1
100
AcDbSymbolTableRecord
100
AcDbBlockTableRecord
  2
*Paper_Space
340
1E
  0
BLOCK_RECORD
  5
23
330
1
100
AcDbSymbolTableRecord
100
AcDbBlockTableRecord
  2
*Paper_Space0
340
26
  0
ENDTAB
  0
ENDSEC
  0
SECTION
  2
BLOCKS
  0
BLOCK
  5
20
330
1F
100
AcDbEntity
  8
0
100
AcDbBlockBegin
  2
*Model_Space
 70
     0
 10
0.0
 20
0.0
 30
0.0
  3
*Model_Space
  1

  0
ENDBLK
  5
21
330
1F
100
AcDbEntity
  8
0
100
AcDbBlockEnd
  0
BLOCK
  5
1C
330
1B
100
AcDbEntity
 67
     1
  8
0
100
AcDbBlockBegin
  2
*Paper_Space
 70
     0
 10
0.0
 20
0.0
 30
0.0
  3
*Paper_Space
  1

  0
ENDBLK
  5
1D
330
1B
100
AcDbEntity
 67
     1
  8
0
100
AcDbBlockEnd
  0
BLOCK
  5
24
330
23
100
AcDbEntity
  8
0
100
AcDbBlockBegin
  2
*Paper_Space0
 70
     0
 10
0.0
 20
0.0
 30
0.0
  3
*Paper_Space0
  1

  0
ENDBLK
  5
25
330
23
100
AcDbEntity
  8
0
100
AcDbBlockEnd
  0
ENDSEC
  0
SECTION
  2
ENTITIES
  0
SPLINE
  5
73
330
1F
100
AcDbEntity
  8
0
  6
Continuous
 62
     7
370
    25
100
AcDbSpline
210
0.0
220
0.0
230
1.0
 70
     8
 71
     3
 72
    23
 73
    19
 74
     0
 42
0.00000001
 43
0.00000001
 40
0.0
 40
0.0
 40
0.0
 40
0.0
 40
0.0679784896192479
 40
0.1330435352439079
 40
0.196507438053389
 40
0.2586134167685795
 40
0.3197283376065467
 40
0.3808728540495659
 40
0.4426356023162034
 40
0.5050793035048767
 40
0.5678805200585747
 40
0.6288138541554867
 40
0.6889100905404393
 40
0.7487650058898403
 40
0.8093857829631098
 40
0.8708843357532255
 40
0.9340374630736957
 40
0.9999999999999999
 40
0.9999999999999999
 40
0.9999999999999999
 40
0.9999999999999999
 10
73.26756317600749
 20
-103.2579875237234
 30
0.0
 10
73.26809737132989
 20
-103.234362125775
 30
0.0
 10
73.2691428672596
 20
-103.1881238747899
 30
0.0
 10
73.27748691883536
 20
-103.1201850544867
 30
0.0
 10
73.2926786300314
 20
-103.055636900638
 30
0.0
 10
73.31173355263026
 20
-102.9935100376296
 30
0.0
 10
73.33821655707432
 20
-102.9350079435919
 30
0.0
 10
73.36986246221925
 20
-102.8793504725617
 30
0.0
 10
73.40704988714319
 20
-102.8266145545593
 30
0.0
 10
73.44989317799134
 20
-102.7776114224713
 30
0.0
 10
73.49699982323489
 20
-102.7331020961641
 30
0.0
 10
73.54789459297024
 20
-102.6943034681927
 30
0.0
 10
73.60143284955106
 20
-102.6611971133963
 30
0.0
 10
73.65784126911007
 20
-102.6334319528051
 30
0.0
 10
73.71766174207404
 20
-102.6124305702103
 30
0.0
 10
73.78047612841075
 20
-102.5979731851418
 30
0.0
 10
73.84615728328998
 20
-102.5883179823409
 30
0.0
 10
73.8910584092515
 20
-102.5874548980444
 30
0.0
 10
73.91399747087928
 20
-102.5870139660311
 30
0.0
  0
SPLINE
  5
74
330
1F
100
AcDbEntity
  8
0
  6
Continuous
 62
     7
370
    25
100
AcDbSpline
210
0.0
220
0.0
230
1.0
 70
     8
 71
     3
 72
    15
 73
    11
 74
     0
 42
0.00000001
 43
0.00000001
 40
0.0
 40
0.0
 40
0.0
 40
0.0
 40
0.1057142614175032
 40
0.2134116126389863
 40
0.3261267300734672
 40
0.4444516715568704
 40
0.5690610798550743
 40
0.7027122044812042
 40
0.846317946586192
 40
1.0
 40
1.0
 40
1.0
 40
1.0
 10
73.91399747087928
 20
-102.5870139660311
 30
0.0
 10
73.9411895343449
 20
-102.5881183067285
 30
0.0
 10
73.99608375615918
 20
-102.5903477044084
 30
0.0
 10
74.07843838220728
 20
-102.6080533950131
 30
0.0
 10
74.16067172429467
 20
-102.6371864991126
 30
0.0
 10
74.24299507426235
 20
-102.677422732451
 30
0.0
 10
74.3248053636458
 20
-102.7294896083311
 30
0.0
 10
74.4068222203215
 20
-102.7924189076995
 30
0.0
 10
74.49003025061167
 20
-102.8657966222086
 30
0.0
 10
74.54198656371304
 20
-102.9218958476286
 30
0.0
 10
74.56884522728953
 20
-102.9508961775696
 30
0.0
  0
LINE
  5
75
330
1F
100
AcDbEntity
  8
0
  6
Continuous
 62
     7
370
    25
100
AcDbLine
 10
74.5688452273
 20
-102.9508961776
 30
0.0
 11
74.3557042016
 21
-103.1703472994
 31
0.0
  0
SPLINE
  5
76
330
1F
100
AcDbEntity
  8
0
  6
Continuous
 62
     7
370
    25
100
AcDbSpline
210
0.0
220
0.0
230
1.0
 70
     8
 71
     3
 72
    15
 73
    11
 74
     0
 42
0.00000001
 43
0.00000001
 40
0.0
 40
0.0
 40
0.0
 40
0.0
 40
0.1582230975563133
 40
0.305035505358158
 40
0.4413089638879132
 40
0.5659632271047328
 40
0.6835251144150711
 40
0.7933341296296051
 40
0.898517512161002
 40
1.0
 40
1.0
 40
1.0
 40
1.0
 10
74.35570420164849
 20
-103.1703472993645
 30
0.0
 10
74.33731369812051
 20
-103.1490341530297
 30
0.0
 10
74.30185897233082
 20
-103.1079449159751
 30
0.0
 10
74.24562749132843
 20
-103.0530078494716
 30
0.0
 10
74.18960388775407
 20
-103.0068709105292
 30
0.0
 10
74.13455507418088
 20
-102.96791865162
 30
0.0
 10
74.07909680510662
 20
-102.9384695050141
 30
0.0
 10
74.02387988697436
 20
-102.9169746430738
 30
0.0
 10
73.96884714845942
 20
-102.9036728374131
 30
0.0
 10
73.93206111324409
 20
-102.901958398719
 30
0.0
 10
73.91399747087928
 20
-102.9011165301337
 30
0.0
  0
SPLINE
  5
77
330
1F
100
AcDbEntity
  8
0
  6
Continuous
 62
     7
370
    25
100
AcDbSpline
210
0.0
220
0.0
230
1.0
 70
     8
 71
     3
 72
    15
 73
    11
 74
     0
 42
0.00000001
 43
0.00000001
 40
0.0
 40
0.0
 40
0.0
 40
0.0
 40
0.1249584925460785
 40
0.245900628606271
 40
0.3691660295860745
 40
0.4985108411773551
 40
0.6285038663666033
 40
0.7510283288509871
 40
0.8737241742784175
 40
1.0
 40
1.0
 40
1.0
 40
1.0
 10
73.9139974708793
 20
-102.9011165301337
 30
0.0
 10
73.89185808103753
 20
-102.9021914031114
 30
0.0
 10
73.84829089510147
 20
-102.9043066010104
 30
0.0
 10
73.78586507676775
 20
-102.9254200313451
 30
0.0
 10
73.72791445174987
 20
-102.9578287698051
 30
0.0
 10
73.67775747174363
 20
-103.0037973533602
 30
0.0
 10
73.63526979172235
 20
-103.0565616221883
 30
0.0
 10
73.60425611070406
 20
-103.1155579470743
 30
0.0
 10
73.58529012707459
 20
-103.1790059907806
 30
0.0
 10
73.58288539503246
 20
-103.223035848449
 30
0.0
 10
73.58166574011004
 20
-103.2453673314157
 30
0.0
  0
SPLINE
  5
78
330
1F
100
AcDbEntity
  8
0
  6
Continuous
 62
     7
370
    25
100
AcDbSpline
210
0.0
220
0.0
230
1.0
 70
     8
 71
     3
 72
    11
 73
     7
 74
     0
 42
0.00000001
 43
0.00000001
 40
0.0
 40
0.0
 40
0.0
 40
0.0
 40
0.2400399314959724
 40
0.4794031936060677
 40
0.7317567388575635
 40
1.0
 40
1.0
 40
1.0
 40
1.0
 10
73.58166574011004
 20
-103.2453673314157
 30
0.0
 10
73.58277655237538
 20
-103.2655793755674
 30
0.0
 10
73.58499504554104
 20
-103.3059464863861
 30
0.0
 10
73.6022417247523
 20
-103.3654945202265
 30
0.0
 10
73.629707796932
 20
-103.4235515584194
 30
0.0
 10
73.65537799121455
 20
-103.4591144647727
 30
0.0
 10
73.66860484267414
 20
-103.4774386455183
 30
0.0
  0
SPLINE
  5
79
330
1F
100
AcDbEntity
  8
0
  6
Continuous
 62
     7
370
    25
100
AcDbSpline
210
0.0
220
0.0
230
1.0
 70
     8
 71
     3
 72
    15
 73
    11
 74
     0
 42
0.00000001
 43
0.00000001
 40
0.0
 40
0.0
 40
0.0
 40
0.0
 40
0.0834251049856522
 40
0.1775598214659594
 40
0.283982359950445
 40
0.4022167468072206
 40
0.533568480380048
 40
0.6761209941988097
 40
0.8316493725539974
 40
0.9999999999999999
 40
0.9999999999999999
 40
0.9999999999999999
 40
0.9999999999999999
 10
73.66860484267414
 20
-103.4774386455183
 30
0.0
 10
73.67656833644583
 20
-103.4872232298514
 30
0.0
 10
73.69351762925868
 20
-103.5080484844026
 30
0.0
 10
73.72532614423547
 20
-103.5369523378202
 30
0.0
 10
73.76134864709576
 20
-103.5688945887954
 30
0.0
 10
73.80466858482802
 20
-103.6008314257739
 30
0.0
 10
73.85341961271206
 20
-103.6344631509802
 30
0.0
 10
73.90865889692587
 20
-103.6684652839549
 30
0.0
 10
73.96863340189688
 20
-103.7054297088431
 30
0.0
 10
74.01157070851353
 20
-103.7288741443869
 30
0.0
 10
74.03388929780236
 20
-103.7410604403901
 30
0.0
  0
SPLINE
  5
7A
330
1F
100
AcDbEntity
  8
0
  6
Continuous
 62
     7
370
    25
100
AcDbSpline
210
0.0
220
0.0
230
1.0
 70
     8
 71
     3
 72
    15
 73
    11
 74
     0
 42
0.00000001
 43
0.00000001
 40
0.0
 40
0.0
 40
0.0
 40
0.0
 40
0.1589891012268022
 40
0.3071145916055893
 40
0.4462131585962242
 40
0.5748760724117337
 40
0.6941521095829606
 40
0.8045811801532612
 40
0.9065933190457572
 40
1.0
 40
1.0
 40
1.0
 40
1.0
 10
74.03388929780235
 20
-103.7410604403901
 30
0.0
 10
74.06110287489943
 20
-103.7563053432042
 30
0.0
 10
74.11367054495862
 20
-103.7857534755964
 30
0.0
 10
74.18836331221414
 20
-103.8314631791059
 30
0.0
 10
74.25615035318503
 20
-103.8768946033794
 30
0.0
 10
74.31760602083372
 20
-103.921561877257
 30
0.0
 10
74.37154782967559
 20
-103.9667147448739
 30
0.0
 10
74.41961238232737
 20
-104.0106225018475
 30
0.0
 10
74.46060082625367
 20
-104.0546118101315
 30
0.0
 10
74.48355475294107
 20
-104.0853449238115
 30
0.0
 10
74.49452631703312
 20
-104.1000347993645
 30
0.0
  0
SPLINE
  5
7B
330
1F
100
AcDbEntity
  8
0
  6
Continuous
 62
     7
370
    25
100
AcDbSpline
210
0.0
220
0.0
230
1.0
 70
     8
 71
     3
 72
    11
 73
     7
 74
     0
 42
0.00000001
 43
0.00000001
 40
0.0
 40
0.0
 40
0.0
 40
0.0
 40
0.2488386141270664
 40
0.4952350254576598
 40
0.7433356038750218
 40
1.0
 40
1.0
 40
1.0
 40
1.0
 10
74.49452631703312
 20
-104.1000347993645
 30
0.0
 10
74.51273684444516
 20
-104.129700887415
 30
0.0
 10
74.54897917378837
 20
-104.18874190853
 30
0.0
 10
74.58703744024434
 20
-104.2859603359729
 30
0.0
 10
74.60909771508715
 20
-104.38907083841
 30
0.0
 10
74.61215993531073
 20
-104.4596030585268
 30
0.0
 10
74.61371702216132
 20
-104.4954674916722
 30
0.0
  0
SPLINE
  5
7C
330
1F
100
AcDbEntity
  8
0
  6
Continuous
 62
     7
370
    25
100
AcDbSpline
210
0.0
220
0.0
230
1.0
 70
     8
 71
     3
 72
    23
 73
    19
 74
     0
 42
0.00000001
 43
0.00000001
 40
0.0
 40
0.0
 40
0.0
 40
0.0
 40
0.0645481255642552
 40
0.1271991327555114
 40
0.1885973380874291
 40
0.2486395150940112
 40
0.3095246994640641
 40
0.3700369910533541
 40
0.4318892436070773
 40
0.4957042857252948
 40
0.5595193278435123
 40
0.6213715803972356
 40
0.6823971072916463
 40
0.7435684819321685
 40
0.8054984835712219
 40
0.8686397008205275
 40
0.9330662250811727
 40
1.0
 40
1.0
 40
1.0
 40
1.0
 10
74.61371702216132
 20
-104.4954674916722
 30
0.0
 10
74.6129974883459
 20
-104.520736637917
 30
0.0
 10
74.61157956835966
 20
-104.5705322510307
 30
0.0
 10
74.60172150142185
 20
-104.6438670807317
 30
0.0
 10
74.58476652509866
 20
-104.7140016382681
 30
0.0
 10
74.56167277114162
 20
-104.7816969229696
 30
0.0
 10
74.53048839823786
 20
-104.8456558625871
 30
0.0
 10
74.49394060108646
 20
-104.9074921115747
 30
0.0
 10
74.45006568935067
 20
-104.9658680423641
 30
0.0
 10
74.39997431373389
 20
-105.020707002542
 30
0.0
 10
74.34512881975489
 20
-105.0707927499624
 30
0.0
 10
74.2866226814014
 20
-105.1148167038285
 30
0.0
 10
74.22438385079154
 20
-105.1513910410277
 30
0.0
 10
74.15885704936912
 20
-105.1816563862705
 30
0.0
 10
74.08989339529657
 20
-105.2057246442169
 30
0.0
 10
74.01748210601005
 20
-105.2223871754707
 30
0.0
 10
73.94185335143845
 20
-105.2323599365649
 30
0.0
 10
73.89042354330745
 20
-105.2337444127494
 30
0.0
 10
73.86421782344338
 20
-105.234449863467
 30
0.0
  0
SPLINE
  5
7D
330
1F
100
AcDbEntity
  8
0
  6
Continuous
 62
     7
370
    25
100
AcDbSpline
210
0.0
220
0.0
230
1.0
 70
     8
 71
     3
 72
    15
 73
    11
 74
     0
 42
0.00000001
 43
0.00000001
 40
0.0
 40
0.0
 40
0.0
 40
0.0
 40
0.1267425189618563
 40
0.2517239612496137
 40
0.377218688026243
 40
0.5046935492516261
 40
0.6314582385934814
 40
0.7554010672029451
 40
0.877700533601478
 40
1.0
 40
1.0
 40
1.0
 40
1.0
 10
73.86421782344338
 20
-105.234449863467
 30
0.0
 10
73.82885064800539
 20
-105.2334571631415
 30
0.0
 10
73.75860772106675
 20
-105.2314855559782
 30
0.0
 10
73.65471800191803
 20
-105.2129794948144
 30
0.0
 10
73.55319724325336
 20
-105.1841841008469
 30
0.0
 10
73.454813702947
 20
-105.1444681666887
 30
0.0
 10
73.36176758905795
 20
-105.0943174538314
 30
0.0
 10
73.27663666445704
 20
-105.0342550602452
 30
0.0
 10
73.19912520199632
 20
-104.9662650628413
 30
0.0
 10
73.15500692826016
 20
-104.9141521521473
 30
0.0
 10
73.1329477913921
 20
-104.8880956968003
 30
0.0
  0
LINE
  5
7E
330
1F
100
AcDbEntity
  8
0
  6
Continuous
 62
     7
370
    25
100
AcDbLine
 10
73.1329477914
 20
-104.8880956968
 30
0.0
 11
73.3411809645
 21
-104.6511165301
 31
0.0
  0
SPLINE
  5
7F
330
1F
100
AcDbEntity
  8
0
  6
Continuous
 62
     7
370
    25
100
AcDbSpline
210
0.0
220
0.0
230
1.0
 70
     8
 71
     3
 72
    15
 73
    11
 74
     0
 42
0.00000001
 43
0.00000001
 40
0.0
 40
0.0
 40
0.0
 40
0.0
 40
0.1474758177483804
 40
0.2859041715443892
 40
0.4171716482444427
 40
0.5405007435865155
 40
0.6592377183802424
 40
0.7750060983159534
 40
0.8872285734286458
 40
1.0
 40
1.0
 40
1.0
 40
1.0
 10
73.341180964469
 20
-104.6511165301337
 30
0.0
 10
73.36095337744545
 20
-104.6724712946615
 30
0.0
 10
73.3992851896556
 20
-104.7138707346108
 30
0.0
 10
73.46058640645285
 20
-104.7689950752822
 30
0.0
 10
73.5229658075559
 20
-104.8151963464143
 30
0.0
 10
73.58580049413021
 20
-104.8538397612062
 30
0.0
 10
73.65002058845376
 20
-104.8836151643638
 30
0.0
 10
73.71526620268742
 20
-104.9045337582734
 30
0.0
 10
73.78140462674884
 20
-104.9179779504988
 30
0.0
 10
73.8258267625687
 20
-104.9195562328183
 30
0.0
 10
73.84809202216132
 20
-104.9203472993645
 30
0.0
  0
SPLINE
  5
80
330
1F
100
AcDbEntity
  8
0
  6
Continuous
 62
     7
370
    25
100
AcDbSpline
210
0.0
220
0.0
230
1.0
 70
     8
 71
     3
 72
    15
 73
    11
 74
     0
 42
0.00000001
 43
0.00000001
 40
0.0
 40
0.0
 40
0.0
 40
0.0
 40
0.1340420464623706
 40
0.2618956736507366
 40
0.3878360446911218
 40
0.5176862058208171
 40
0.6445086536782093
 40
0.7647182630567134
 40
0.8802907821584967
 40
1.0
 40
1.0
 40
1.0
 40
1.0
 10
73.84809202216132
 20
-104.9203472993645
 30
0.0
 10
73.87840994811937
 20
-104.9189764745043
 30
0.0
 10
73.93764608970353
 20
-104.916298112679
 30
0.0
 10
74.0224898483175
 20
-104.8919810206492
 30
0.0
 10
74.10082847476797
 20
-104.8538510688242
 30
0.0
 10
74.16885182028683
 20
-104.799766370664
 30
0.0
 10
74.22675398135442
 20
-104.7368107980644
 30
0.0
 10
74.2686821557621
 20
-104.665896678764
 30
0.0
 10
74.29495833122306
 20
-104.5891052220748
 30
0.0
 10
74.29804432987896
 20
-104.5358729194557
 30
0.0
 10
74.29961445805876
 20
-104.5087888057747
 30
0.0
  0
SPLINE
  5
81
330
1F
100
AcDbEntity
  8
0
  6
Continuous
 62
     7
370
    25
100
AcDbSpline
210
0.0
220
0.0
230
1.0
 70
     8
 71
     3
 72
    11
 73
     7
 74
     0
 42
0.00000001
 43
0.00000001
 40
0.0
 40
0.0
 40
0.0
 40
0.0
 40
0.2534754346498438
 40
0.5004533151029259
 40
0.7455781350009829
 40
1.0
 40
1.0
 40
1.0
 40
1.0
 10
74.29961445805876
 20
-104.5087888057747
 30
0.0
 10
74.29852816371994
 20
-104.4864791871126
 30
0.0
 10
74.29638342096104
 20
-104.4424318314644
 30
0.0
 10
74.2795401489565
 20
-104.3786814904202
 30
0.0
 10
74.25292729669673
 20
-104.3182122097379
 30
0.0
 10
74.22672264834294
 20
-104.2828225624961
 30
0.0
 10
74.21337647728953
 20
-104.2647984211593
 30
0.0
  0
SPLINE
  5
82
330
1F
100
AcDbEntity
  8
0
  6
Continuous
 62
     7
370
    25
100
AcDbSpline
210
0.0
220
0.0
230
1.0
 70
     8
 71
     3
 72
    15
 73
    11
 74
     0
 42
0.00000001
 43
0.00000001
 40
0.0
 40
0.0
 40
0.0
 40
0.0
 40
0.0768750740350469
 40
0.1674616757257207
 40
0.2722700232466451
 40
0.3895508405125329
 40
0.5208013683480519
 40
0.6662632933752192
 40
0.8255449152058734
 40
0.9999999999999999
 40
0.9999999999999999
 40
0.9999999999999999
 40
0.9999999999999999
 10
74.21337647728953
 20
-104.2647984211593
 30
0.0
 10
74.20535408286213
 20
-104.2557630590075
 30
0.0
 10
74.18787841040256
 20
-104.2360807769972
 30
0.0
 10
74.15582316913698
 20
-104.2076556981357
 30
0.0
 10
74.11744130693623
 20
-104.1770175989823
 30
0.0
 10
74.07230114400402
 20
-104.1446860100436
 30
0.0
 10
74.02031168206642
 20
-104.1110874047514
 30
0.0
 10
73.96126220667662
 20
-104.0763980525019
 30
0.0
 10
73.89596165412816
 20
-104.0389703267134
 30
0.0
 10
73.84979102281031
 20
-104.0141506713702
 30
0.0
 10
73.82565612472544
 20
-104.0011766262875
 30
0.0
  0
SPLINE
  5
83
330
1F
100
AcDbEntity
  8
0
  6
Continuous
 62
     7
370
    25
100
AcDbSpline
210
0.0
220
0.0
230
1.0
 70
     8
 71
     3
 72
    15
 73
    11
 74
     0
 42
0.00000001
 43
0.00000001
 40
0.0
 40
0.0
 40
0.0
 40
0.0
 40
0.1577616635135564
 40
0.305950213208558
 40
0.4437754990007359
 40
0.5728243624015444
 40
0.692154156443232
 40
0.8022957069908373
 40
0.905564391832988
 40
1.0
 40
1.0
 40
1.0
 40
1.0
 10
73.82565612472543
 20
-104.0011766262875
 30
0.0
 10
73.79960948468602
 20
-103.9866374946233
 30
0.0
 10
73.74909673719121
 20
-103.9584414783448
 30
0.0
 10
73.6775494462553
 20
-103.9145253980864
 30
0.0
 10
73.61300209203657
 20
-103.8698581234062
 30
0.0
 10
73.55390151747382
 20
-103.8269452841564
 30
0.0
 10
73.50174051179641
 20
-103.783524340209
 30
0.0
 10
73.45672456349143
 20
-103.7395470887415
 30
0.0
 10
73.4170813476599
 20
-103.6967871026622
 30
0.0
 10
73.39513393592867
 20
-103.6664898060475
 30
0.0
 10
73.38465051575106
 20
-103.6520179724414
 30
0.0
  0
SPLINE
  5
84
330
1F
100
AcDbEntity
  8
0
  6
Continuous
 62
     7
370
    25
100
AcDbSpline
210
0.0
220
0.0
230
1.0
 70
     8
 71
     3
 72
    11
 73
     7
 74
     0
 42
0.00000001
 43
0.00000001
 40
0.0
 40
0.0
 40
0.0
 40
0.0
 40
0.2462523706929799
 40
0.4925907964763681
 40
0.7405699911180711
 40
0.9999999999999999
 40
0.9999999999999999
 40
0.9999999999999999
 40
0.9999999999999999
 10
73.38465051575106
 20
-103.6520179724414
 30
0.0
 10
73.36651991609476
 20
-103.6228723574057
 30
0.0
 10
73.33025238088214
 20
-103.5645709421388
 30
0.0
 10
73.29503718970405
 20
-103.4672604654068
 30
0.0
 10
73.2708311608269
 20
-103.3648154080774
 30
0.0
 10
73.26866877065758
 20
-103.2941285537314
 30
0.0
 10
73.26756317600749
 20
-103.2579875237234
 30
0.0
  0
LINE
  5
85
330
1F
100
AcDbEntity
  8
0
  6
Continuous
 62
     7
370
    25
100
AcDbLine
 10
75.1073067658
 20
-102.6318857609
 30
0.0
 11
75.5560247145
 21
-102.6318857609
 31
0.0
  0
LINE
  5
86
330
1F
100
AcDbEntity
  8
0
  6
Continuous
 62
     7
370
    25
100
AcDbLine
 10
75.5560247145
 20
-102.6318857609
 30
0.0
 11
75.5560247145
 21
-101.5998344789
 31
0.0
  0
LINE
  5
87
330
1F
100
AcDbEntity
  8
0
  6
Continuous
 62
     7
370
    25
100
AcDbLine
 10
75.5560247145
 20
-101.5998344789
 30
0.0
 11
75.8701272786
 21
-101.5998344789
 31
0.0
  0
LINE
  5
88
330
1F
100
AcDbEntity
  8
0
  6
Continuous
 62
     7
370
    25
100
AcDbLine
 10
75.8701272786
 20
-101.5998344789
 30
0.0
 11
75.8701272786
 21
-102.6318857609
 31
0.0
  0
LINE
  5
89
330
1F
100
AcDbEntity
  8
0
  6
Continuous
 62
     7
370
    25
100
AcDbLine
 10
75.8701272786
 20
-102.6318857609
 30
0.0
 11
76.3188452273
 21
-102.6318857609
 31
0.0
  0
LINE
  5
8A
330
1F
100
AcDbEntity
  8
0
  6
Continuous
 62
     7
370
    25
100
AcDbLine
 10
76.3188452273
 20
-102.6318857609
 30
0.0
 11
76.3188452273
 21
-102.945988325
 31
0.0
  0
LINE
  5
8B
330
1F
100
AcDbEntity
  8
0
  6
Continuous
 62
     7
370
    25
100
AcDbLine
 10
76.3188452273
 20
-102.945988325
 30
0.0
 11
75.8701272786
 21
-102.945988325
 31
0.0
  0
LINE
  5
8C
330
1F
100
AcDbEntity
  8
0
  6
Continuous
 62
     7
370
    25
100
AcDbLine
 10
75.8701272786
 20
-102.945988325
 30
0.0
 11
75.8701272786
 21
-105.1895780686
 31
0.0
  0
LINE
  5
8D
330
1F
100
AcDbEntity
  8
0
  6
Continuous
 62
     7
370
    25
100
AcDbLine
 10
75.8701272786
 20
-105.1895780686
 30
0.0
 11
75.5560247145
 21
-105.1895780686
 31
0.0
  0
LINE
  5
8E
330
1F
100
AcDbEntity
  8
0
  6
Continuous
 62
     7
370
    25
100
AcDbLine
 10
75.5560247145
 20
-105.1895780686
 30
0.0
 11
75.5560247145
 21
-102.945988325
 31
0.0
  0
LINE
  5
8F
330
1F
100
AcDbEntity
  8
0
  6
Continuous
 62
     7
370
    25
100
AcDbLine
 10
75.5560247145
 20
-102.945988325
 30
0.0
 11
75.1073067658
 21
-102.945988325
 31
0.0
  0
LINE
  5
90
330
1F
100
AcDbEntity
  8
0
  6
Continuous
 62
     7
370
    25
100
AcDbLine
 10
75.1073067658
 20
-102.945988325
 30
0.0
 11
75.1073067658
 21
-102.6318857609
 31
0.0
  0
SPLINE
  5
91
330
1F
100
AcDbEntity
  8
0
  6
Continuous
 62
     7
370
    25
100
AcDbSpline
210
0.0
220
0.0
230
1.0
 70
     8
 71
     3
 72
    23
 73
    19
 74
     0
 42
0.00000001
 43
0.00000001
 40
0.0
 40
0.0
 40
0.0
 40
0.0
 40
0.0623263659914452
 40
0.1231962451944453
 40
0.1840362202545585
 40
0.246964085428897
 40
0.3106993957895734
 40
0.3732676370734437
 40
0.4365875799673867
 40
0.5021247910366538
 40
0.5390047220341686
 40
0.5832553755259894
 40
0.6344465152828125
 40
0.692676046102124
 40
0.7585704862865287
 40
0.8316586747921171
 40
0.911917102274837
 40
1.0
 40
1.0
 40
1.0
 40
1.0
 10
78.93052391318696
 20
-104.9203472993645
 30
0.0
 10
78.9547067016144
 20
-104.9193245644305
 30
0.0
 10
79.00250715789319
 20
-104.9173029945589
 30
0.0
 10
79.07197115190131
 20
-104.8994537192875
 30
0.0
 10
79.13842918311113
 20
-104.8722093162738
 30
0.0
 10
79.1994988407921
 20
-104.8323180225073
 30
0.0
 10
79.255784227874
 20
-104.7848866018077
 30
0.0
 10
79.30222705346134
 20
-104.7275305931414
 30
0.0
 10
79.34094429794632
 20
-104.663964609135
 30
0.0
 10
79.36424399129683
 20
-104.6037931552929
 30
0.0
 10
79.37908876330785
 20
-104.5489165250198
 30
0.0
 10
79.38851039016498
 20
-104.4984833891426
 30
0.0
 10
79.39674905055625
 20
-104.4395219106417
 30
0.0
 10
79.40393060245775
 20
-104.3719617103316
 30
0.0
 10
79.40813507301708
 20
-104.2956675281997
 30
0.0
 10
79.41285234584197
 20
-104.2108633852703
 30
0.0
 10
79.41455760673165
 20
-104.1173354730742
 30
0.0
 10
79.41484742760129
 20
-104.0521245211544
 30
0.0
 10
79.41499907344338
 20
-104.0180035493645
 30
0.0
  0
LINE
  5
92
330
1F
100
AcDbEntity
  8
0
  6
Continuous
 62
     7
370
    25
100
AcDbLine
 10
79.4149990734
 20
-104.0180035494
 30
0.0
 11
79.4149990734
 21
-101.6895780686
 31
0.0
  0
LINE
  5
93
330
1F
100
AcDbEntity
  8
0
  6
Continuous
 62
     7
370
    25
100
AcDbLine
 10
79.4149990734
 20
-101.6895780686
 30
0.0
 11
79.7291016375
 21
-101.6895780686
 31
0.0
  0
LINE
  5
94
330
1F
100
AcDbEntity
  8
0
  6
Continuous
 62
     7
370
    25
100
AcDbLine
 10
79.7291016375
 20
-101.6895780686
 30
0.0
 11
79.7291016375
 21
-104.0530596391
 31
0.0
  0
SPLINE
  5
95
330
1F
100
AcDbEntity
  8
0
  6
Continuous
 62
     7
370
    25
100
AcDbSpline
210
0.0
220
0.0
230
1.0
 70
     8
 71
     3
 72
    23
 73
    19
 74
     0
 42
0.00000001
 43
0.00000001
 40
0.0
 40
0.0
 40
0.0
 40
0.0
 40
0.0773606839427006
 40
0.1485419530250472
 40
0.2140077372521345
 40
0.2729945033606865
 40
0.326409195767467
 40
0.3738804007298091
 40
0.4160199382657654
 40
0.4521255195126356
 40
0.5180017107054573
 40
0.5823669297335183
 40
0.6470437823418091
 40
0.7133304210644736
 40
0.7809119703509663
 40
0.8503949591306477
 40
0.9229229735922755
 40
1.0
 40
1.0
 40
1.0
 40
1.0
 10
79.72910163754594
 20
-104.0530596391081
 30
0.0
 10
79.7287877189141
 20
-104.0967648100038
 30
0.0
 10
79.72818495683542
 20
-104.1806840712007
 30
0.0
 10
79.72487054629995
 20
-104.3015579670922
 30
0.0
 10
79.71873706839348
 20
-104.4119286532957
 30
0.0
 10
79.709802055904
 20
-104.5120471002885
 30
0.0
 10
79.69788182308042
 20
-104.6015996555763
 30
0.0
 10
79.68424079496037
 20
-104.6812782733911
 30
0.0
 10
79.66772799618452
 20
-104.750417955719
 30
0.0
 10
79.64286152985342
 20
-104.8280533114568
 30
0.0
 10
79.60208758130733
 20
-104.9131971161902
 30
0.0
 10
79.54072054316234
 20
-105.005152266796
 30
0.0
 10
79.46448774672771
 20
-105.0855856774464
 30
0.0
 10
79.37618671355361
 20
-105.155438402362
 30
0.0
 10
79.27504568947383
 20
-105.2110956335384
 30
0.0
 10
79.16314747034967
 20
-105.2510508119481
 30
0.0
 10
79.04118088290167
 20
-105.2754216685724
 30
0.0
 10
78.95658167054928
 20
-105.2779955736696
 30
0.0
 10
78.91299586831516
 20
-105.2793216583388
 30
0.0
  0
SPLINE
  5
96
330
1F
100
AcDbEntity
  8
0
  6
Continuous
 62
     7
370
    25
100
AcDbSpline
210
0.0
220
0.0
230
1.0
 70
     8
 71
     3
 72
    15
 73
    11
 74
     0
 42
0.00000001
 43
0.00000001
 40
0.0
 40
0.0
 40
0.0
 40
0.0
 40
0.1060709021051265
 40
0.2134216804124612
 40
0.3216854881303308
 40
0.4338579390981622
 40
0.5540812827743559
 40
0.6875870439665626
 40
0.8364658500651219
 40
1.0
 40
1.0
 40
1.0
 40
1.0
 10
78.91299586831516
 20
-105.2793216583388
 30
0.0
 10
78.87903751005166
 20
-105.2782410492097
 30
0.0
 10
78.81071104406702
 20
-105.2760667920702
 30
0.0
 10
78.70902033530487
 20
-105.2583450790205
 30
0.0
 10
78.60761835944797
 20
-105.2310290356742
 30
0.0
 10
78.50596691060771
 20
-105.1910264402754
 30
0.0
 10
78.40205766925973
 20
-105.1366208417908
 30
0.0
 10
78.29448332256607
 20
-105.0654360252118
 30
0.0
 10
78.18186013160725
 20
-104.9776044988145
 30
0.0
 10
78.10767684550049
 20
-104.9105667532064
 30
0.0
 10
78.06884522728953
 20
-104.8754755044927
 30
0.0
  0
LINE
  5
97
330
1F
100
AcDbEntity
  8
0
  6
Continuous
 62
     7
370
    25
100
AcDbLine
 10
78.0688452273
 20
-104.8754755045
 30
0.0
 11
78.2539413811
 21
-104.6062447353
 31
0.0
  0
SPLINE
  5
98
330
1F
100
AcDbEntity
  8
0
  6
Continuous
 62
     7
370
    25
100
AcDbSpline
210
0.0
220
0.0
230
1.0
 70
     8
 71
     3
 72
    11
 73
     7
 74
     0
 42
0.00000001
 43
0.00000001
 40
0.0
 40
0.0
 40
0.0
 40
0.0
 40
0.2991842876765247
 40
0.5648989463568157
 40
0.7985478688426183
 40
1.0
 40
1.0
 40
1.0
 40
1.0
 10
78.25394138113569
 20
-104.6062447352619
 30
0.0
 10
78.2966440601582
 20
-104.6356921314526
 30
0.0
 10
78.37727228623842
 20
-104.6912926551643
 30
0.0
 10
78.49577672712451
 20
-104.7628192556053
 30
0.0
 10
78.60077388013045
 20
-104.8241444211627
 30
0.0
 10
78.66945682745686
 20
-104.8553967002544
 30
0.0
 10
78.7012570862639
 20
-104.8698665301337
 30
0.0
  0
SPLINE
  5
99
330
1F
100
AcDbEntity
  8
0
  6
Continuous
 62
     7
370
    25
100
AcDbSpline
210
0.0
220
0.0
230
1.0
 70
     8
 71
     3
 72
    11
 73
     7
 74
     0
 42
0.00000001
 43
0.00000001
 40
0.0
 40
0.0
 40
0.0
 40
0.0
 40
0.2629516255675389
 40
0.5157066923583924
 40
0.7621092269531217
 40
1.0
 40
1.0
 40
1.0
 40
1.0
 10
78.70125708626388
 20
-104.8698665301337
 30
0.0
 10
78.72054139782301
 20
-104.8774259874735
 30
0.0
 10
78.75836222706145
 20
-104.8922517666726
 30
0.0
 10
78.81618730672899
 20
-104.9087976649837
 30
0.0
 10
78.87368234369025
 20
-104.9178400749038
 30
0.0
 10
78.91180003755696
 20
-104.9195214080424
 30
0.0
 10
78.93052391318696
 20
-104.9203472993645
 30
0.0
  0
SPLINE
  5
9A
330
1F
100
AcDbEntity
  8
0
  6
Continuous
 62
     7
370
    25
100
AcDbSpline
210
0.0
220
0.0
230
1.0
 70
     8
 71
     3
 72
    15
 73
    11
 74
     0
 42
0.00000001
 43
0.00000001
 40
0.0
 40
0.0
 40
0.0
 40
0.0
 40
0.1318667517023253
 40
0.2566614034533523
 40
0.3842132129424933
 40
0.5133652331525845
 40
0.6404431518253978
 40
0.7610850047778818
 40
0.8791455246531643
 40
1.0
 40
1.0
 40
1.0
 40
1.0
 10
80.64757118882798
 20
-102.0934242224414
 30
0.0
 10
80.62830291366124
 20
-102.0925545022197
 30
0.0
 10
80.59079973349962
 20
-102.0908617054394
 30
0.0
 10
80.53643289115742
 20
-102.0752916877031
 30
0.0
 10
80.48660440176405
 20
-102.0498756146026
 30
0.0
 10
80.4419397291058
 20
-102.0156494295074
 30
0.0
 10
80.40470953597362
 20
-101.9747045322777
 30
0.0
 10
80.37761121057709
 20
-101.9283772384206
 30
0.0
 10
80.36053624869143
 20
-101.8781680838026
 30
0.0
 10
80.35839162007676
 20
-101.8432559174935
 30
0.0
 10
80.35730676575106
 20
-101.8255956968004
 30
0.0
  0
SPLINE
  5
9B
330
1F
100
AcDbEntity
  8
0
  6
Continuous
 62
     7
370
    25
100
AcDbSpline
210
0.0
220
0.0
230
1.0
 70
     8
 71
     3
 72
    15
 73
    11
 74
     0
 42
0.00000001
 43
0.00000001
 40
0.0
 40
0.0
 40
0.0
 40
0.0
 40
0.1232898687277921
 40
0.2421490813339719
 40
0.3634374760537229
 40
0.4897453933413765
 40
0.6181148445930164
 40
0.7448937812572494
 40
0.8689322665891902
 40
1.0
 40
1.0
 40
1.0
 40
1.0
 10
80.35730676575106
 20
-101.8255956968004
 30
0.0
 10
80.3583678523679
 20
-101.8074648471976
 30
0.0
 10
80.36045189343416
 20
-101.7718547145856
 30
0.0
 10
80.37762400957268
 20
-101.7207596816701
 30
0.0
 10
80.40448381733451
 20
-101.6737781798669
 30
0.0
 10
80.44196438086804
 20
-101.6327526804409
 30
0.0
 10
80.48659784113842
 20
-101.5985072456718
 30
0.0
 10
80.53643458630498
 20
-101.5730962641697
 30
0.0
 10
80.59079928568359
 20
-101.5575249247994
 30
0.0
 10
80.62830276167213
 20
-101.555832310465
 30
0.0
 10
80.64757118882798
 20
-101.5549626839798
 30
0.0
  0
SPLINE
  5
9C
330
1F
100
AcDbEntity
  8
0
  6
Continuous
 62
     7
370
    25
100
AcDbSpline
210
0.0
220
0.0
230
1.0
 70
     8
 71
     3
 72
    15
 73
    11
 74
     0
 42
0.00000001
 43
0.00000001
 40
0.0
 40
0.0
 40
0.0
 40
0.0
 40
0.1318992643311
 40
0.258284092316994
 40
0.384341124779112
 40
0.5119796151257302
 40
0.6386320084211637
 40
0.7592297631645922
 40
0.8774121680352115
 40
0.9999999999999999
 40
0.9999999999999999
 40
0.9999999999999999
 40
0.9999999999999999
 10
80.64757118882798
 20
-101.5549626839798
 30
0.0
 10
80.66706250461611
 20
-101.5558668363756
 30
0.0
 10
80.70523024445859
 20
-101.5576373404192
 30
0.0
 10
80.76042351213489
 20
-101.5727988174979
 30
0.0
 10
80.81068052421023
 20
-101.5984985029423
 30
0.0
 10
80.85525825710009
 20
-101.6329781838429
 30
0.0
 10
80.89351014378104
 20
-101.6735276273021
 30
0.0
 10
80.92029085415643
 20
-101.7207885955974
 30
0.0
 10
80.93750325027173
 20
-101.7718472343862
 30
0.0
 10
80.9395818055493
 20
-101.8074623235674
 30
0.0
 10
80.94064009908442
 20
-101.8255956968004
 30
0.0
  0
SPLINE
  5
9D
330
1F
100
AcDbEntity
  8
0
  6
Continuous
 62
     7
370
    25
100
AcDbSpline
210
0.0
220
0.0
230
1.0
 70
     8
 71
     3
 72
    15
 73
    11
 74
     0
 42
0.00000001
 43
0.00000001
 40
0.0
 40
0.0
 40
0.0
 40
0.0
 40
0.1201621349925842
 40
0.2375463202768722
 40
0.3574970509273399
 40
0.4849171224652528
 40
0.6133292680851152
 40
0.7401503701286801
 40
0.8673012545632423
 40
0.9999999999999999
 40
0.9999999999999999
 40
0.9999999999999999
 40
0.9999999999999999
 10
80.9406400990844
 20
-101.8255956968004
 30
0.0
 10
80.93955793925956
 20
-101.8432583499636
 30
0.0
 10
80.93741863735418
 20
-101.8781753249782
 30
0.0
 10
80.9203041491028
 20
-101.9283487970306
 30
0.0
 10
80.89328191126032
 20
-101.974953080514
 30
0.0
 10
80.85528278563419
 20
-102.0154237907263
 30
0.0
 10
80.81067402463225
 20
-102.0498844107168
 30
0.0
 10
80.7604252387822
 20
-102.0755891496218
 30
0.0
 10
80.70522979026764
 20
-102.0907492869876
 30
0.0
 10
80.66706235107947
 20
-102.0925199757264
 30
0.0
 10
80.64757118882798
 20
-102.0934242224414
 30
0.0
  0
LINE
  5
9E
330
1F
100
AcDbEntity
  8
0
  6
Continuous
 62
     7
370
    25
100
AcDbLine
 10
80.8060247145
 20
-105.1895780686
 30
0.0
 11
80.4919221504
 21
-105.1895780686
 31
0.0
  0
LINE
  5
9F
330
1F
100
AcDbEntity
  8
0
  6
Continuous
 62
     7
370
    25
100
AcDbLine
 10
80.4919221504
 20
-105.1895780686
 30
0.0
 11
80.4919221504
 21
-102.6318857609
 31
0.0
  0
LINE
  5
A0
330
1F
100
AcDbEntity
  8
0
  6
Continuous
 62
     7
370
    25
100
AcDbLine
 10
80.4919221504
 20
-102.6318857609
 30
0.0
 11
80.8060247145
 21
-102.6318857609
 31
0.0
  0
LINE
  5
A1
330
1F
100
AcDbEntity
  8
0
  6
Continuous
 62
     7
370
    25
100
AcDbLine
 10
80.8060247145
 20
-102.6318857609
 30
0.0
 11
80.8060247145
 21
-105.1895780686
 31
0.0
  0
SPLINE
  5
A2
330
1F
100
AcDbEntity
  8
0
  6
Continuous
 62
     7
370
    25
100
AcDbSpline
210
0.0
220
0.0
230
1.0
 70
     8
 71
     3
 72
    15
 73
    11
 74
     0
 42
0.00000001
 43
0.00000001
 40
0.0
 40
0.0
 40
0.0
 40
0.0
 40
0.1209110787487125
 40
0.238762228638725
 40
0.3547548590848646
 40
0.4703593994502239
 40
0.5891440987928674
 40
0.7163289048363457
 40
0.8524452858576033
 40
1.0
 40
1.0
 40
1.0
 40
1.0
 10
82.8000150990844
 20
-102.5870139660311
 30
0.0
 10
82.84706603806386
 20
-102.5883706393133
 30
0.0
 10
82.93997718538417
 20
-102.5910496521856
 30
0.0
 10
83.0767081878127
 20
-102.6120707975689
 30
0.0
 10
83.20865042778964
 20
-102.6455848109205
 30
0.0
 10
83.33654844346661
 20
-102.6936004414306
 30
0.0
 10
83.46144409446785
 20
-102.7591504797657
 30
0.0
 10
83.58292574977793
 20
-102.845493427776
 30
0.0
 10
83.70134488395277
 20
-102.9534037675079
 30
0.0
 10
83.77442271450047
 20
-103.0361566318751
 30
0.0
 10
83.81243497087927
 20
-103.0792014660311
 30
0.0
  0
LINE
  5
A3
330
1F
100
AcDbEntity
  8
0
  6
Continuous
 62
     7
370
    25
100
AcDbLine
 10
83.8124349709
 20
-103.079201466
 30
0.0
 11
83.8124349709
 21
-102.6318857609
 31
0.0
  0
LINE
  5
A4
330
1F
100
AcDbEntity
  8
0
  6
Continuous
 62
     7
370
    25
100
AcDbLine
 10
83.8124349709
 20
-102.6318857609
 30
0.0
 11
84.126537535
 21
-102.6318857609
 31
0.0
  0
LINE
  5
A5
330
1F
100
AcDbEntity
  8
0
  6
Continuous
 62
     7
370
    25
100
AcDbLine
 10
84.126537535
 20
-102.6318857609
 30
0.0
 11
84.126537535
 21
-104.6616333571
 31
0.0
  0
SPLINE
  5
A6
330
1F
100
AcDbEntity
  8
0
  6
Continuous
 62
     7
370
    25
100
AcDbSpline
210
0.0
220
0.0
230
1.0
 70
     8
 71
     3
 72
    15
 73
    11
 74
     0
 42
0.00000001
 43
0.00000001
 40
0.0
 40
0.0
 40
0.0
 40
0.0
 40
0.1634452548497485
 40
0.3154887127129136
 40
0.4562908239366525
 40
0.5858641495747757
 40
0.7054286858067534
 40
0.8133707129824257
 40
0.9117182381600929
 40
0.9999999999999999
 40
0.9999999999999999
 40
0.9999999999999999
 40
0.9999999999999999
 10
84.12653753498184
 20
-104.6616333570568
 30
0.0
 10
84.12626049241095
 20
-104.7048709516636
 30
0.0
 10
84.12572573351483
 20
-104.7883299243688
 30
0.0
 10
84.12187476226022
 20
-104.9090082039818
 30
0.0
 10
84.11375408503982
 20
-105.0204742895136
 30
0.0
 10
84.10454540368625
 20
-105.1232365481029
 30
0.0
 10
84.09129868736674
 20
-105.2168186581629
 30
0.0
 10
84.07512232012829
 20
-105.3014998628368
 30
0.0
 10
84.05688664097626
 20
-105.3773614252045
 30
0.0
 10
84.04086642352196
 20
-105.424086266232
 30
0.0
 10
84.03328833626391
 20
-105.4461886455183
 30
0.0
  0
SPLINE
  5
A7
330
1F
100
AcDbEntity
  8
0
  6
Continuous
 62
     7
370
    25
100
AcDbSpline
210
0.0
220
0.0
230
1.0
 70
     8
 71
     3
 72
    23
 73
    19
 74
     0
 42
0.00000001
 43
0.00000001
 40
0.0
 40
0.0
 40
0.0
 40
0.0
 40
0.0613707062984538
 40
0.1209064680177754
 40
0.179423665000029
 40
0.2376066874397785
 40
0.2959384682493711
 40
0.3542182268208576
 40
0.4135370665946733
 40
0.474086782553187
 40
0.5351211890802714
 40
0.59698766496223
 40
0.660019833546805
 40
0.7242774964844917
 40
0.790011850225545
 40
0.857747684334452
 40
0.9278290322155507
 40
1.0
 40
1.0
 40
1.0
 40
1.0
 10
84.0332883362639
 20
-105.4461886455183
 30
0.0
 10
84.02209909752736
 20
-105.4749185671097
 30
0.0
 10
84.00005517108366
 20
-105.5315194041467
 30
0.0
 10
83.95876953762469
 20
-105.6117537249403
 30
0.0
 10
83.91253563400595
 20
-105.6873001147866
 30
0.0
 10
83.85972888337066
 20
-105.7577375660913
 30
0.0
 10
83.80058807933882
 20
-105.8227124784536
 30
0.0
 10
83.73650658718437
 20
-105.8836364777334
 30
0.0
 10
83.66623639576282
 20
-105.9392206451186
 30
0.0
 10
83.58981768355686
 20
-105.9885059425755
 30
0.0
 10
83.50901205035592
 20
-106.0328929967289
 30
0.0
 10
83.42386594828923
 20
-106.0713395639125
 30
0.0
 10
83.3348595099256
 20
-106.1048264075352
 30
0.0
 10
83.24115661832664
 20
-106.1299092032649
 30
0.0
 10
83.1442263838586
 20
-106.1516439238318
 30
0.0
 10
83.04292895277817
 20
-106.1657886096261
 30
0.0
 10
82.93785615597297
 20
-106.1754156677531
 30
0.0
 10
82.86641077589258
 20
-106.1763059007323
 30
0.0
 10
82.83016333626391
 20
-106.1767575557747
 30
0.0
  0
SPLINE
  5
A8
330
1F
100
AcDbEntity
  8
0
  6
Continuous
 62
     7
370
    25
100
AcDbSpline
210
0.0
220
0.0
230
1.0
 70
     8
 71
     3
 72
    19
 73
    15
 74
     0
 42
0.00000001
 43
0.00000001
 40
0.0
 40
0.0
 40
0.0
 40
0.0
 40
0.096491423769123
 40
0.1884736749923105
 40
0.2768399149588152
 40
0.3621365621714274
 40
0.4434367545654613
 40
0.520165520998622
 40
0.5927096635689978
 40
0.6629173343528162
 40
0.7354188002027047
 40
0.8148809699994165
 40
0.9030605557399849
 40
0.9999999999999999
 40
0.9999999999999999
 40
0.9999999999999999
 40
0.9999999999999999
 10
82.8301633362639
 20
-106.1767575557747
 30
0.0
 10
82.77727860166213
 20
-106.1759010699641
 30
0.0
 10
82.6739805064321
 20
-106.1742281230636
 30
0.0
 10
82.52337551374742
 20
-106.1547372079722
 30
0.0
 10
82.38034079382138
 20
-106.1271828348988
 30
0.0
 10
82.24676633712133
 20
-106.0854774072665
 30
0.0
 10
82.12349624025072
 20
-106.0344404175355
 30
0.0
 10
82.01137236472051
 20
-105.975845464581
 30
0.0
 10
81.91140125720275
 20
-105.9086561557797
 30
0.0
 10
81.82127758419965
 20
-105.8321555548632
 30
0.0
 10
81.73993599406361
 20
-105.7411918732258
 30
0.0
 10
81.66340870408308
 20
-105.6339930291011
 30
0.0
 10
81.5897477622251
 20
-105.5089261399498
 30
0.0
 10
81.54657912435736
 20
-105.4171334267354
 30
0.0
 10
81.52397343241772
 20
-105.3690652480824
 30
0.0
  0
LINE
  5
A9
330
1F
100
AcDbEntity
  8
0
  6
Continuous
 62
     7
370
    25
100
AcDbLine
 10
81.5239734324
 20
-105.3690652481
 30
0.0
 11
81.8380759965
 21
-105.3690652481
 31
0.0
  0
SPLINE
  5
AA
330
1F
100
AcDbEntity
  8
0
  6
Continuous
 62
     7
370
    25
100
AcDbSpline
210
0.0
220
0.0
230
1.0
 70
     8
 71
     3
 72
    15
 73
    11
 74
     0
 42
0.00000001
 43
0.00000001
 40
0.0
 40
0.0
 40
0.0
 40
0.0
 40
0.1247164867023027
 40
0.2438053739155135
 40
0.3600615340644397
 40
0.4751119996584019
 40
0.5935250978119035
 40
0.7193501703843571
 40
0.8538547713042595
 40
1.0
 40
1.0
 40
1.0
 40
1.0
 10
81.83807599652029
 20
-105.3690652480824
 30
0.0
 10
81.86333820582571
 20
-105.4091711238548
 30
0.0
 10
81.91272271422949
 20
-105.4875731723525
 30
0.0
 10
82.00507119519636
 20
-105.5890863282874
 30
0.0
 10
82.10627752154375
 20
-105.6758396929748
 30
0.0
 10
82.21975720472817
 20
-105.7457504670395
 30
0.0
 10
82.34598242013627
 20
-105.7984602584413
 30
0.0
 10
82.48502910630576
 20
-105.8360355548772
 30
0.0
 10
82.63802872804067
 20
-105.8585318217336
 30
0.0
 10
82.74454694222372
 20
-105.8612431158739
 30
0.0
 10
82.8000150990844
 20
-105.8626549916722
 30
0.0
  0
SPLINE
  5
AB
330
1F
100
AcDbEntity
  8
0
  6
Continuous
 62
     7
370
    25
100
AcDbSpline
210
0.0
220
0.0
230
1.0
 70
     8
 71
     3
 72
    23
 73
    19
 74
     0
 42
0.00000001
 43
0.00000001
 40
0.0
 40
0.0
 40
0.0
 40
0.0
 40
0.0981712978276986
 40
0.1892644356875872
 40
0.2744630560180407
 40
0.3550231712817403
 40
0.4309204620429322
 40
0.5010860453857534
 40
0.5666076270376015
 40
0.6297208634283022
 40
0.6627106951128602
 40
0.6987655616316135
 40
0.7386105373889583
 40
0.7825812280784425
 40
0.830408787249129
 40
0.8825778660702716
 40
0.9392286810451805
 40
1.0
 40
1.0
 40
1.0
 40
1.0
 10
82.8000150990844
 20
-105.8626549916722
 30
0.0
 10
82.85478198942829
 20
-105.8612248428771
 30
0.0
 10
82.96036707208143
 20
-105.858467659152
 30
0.0
 10
83.11219824112678
 20
-105.8360255149793
 30
0.0
 10
83.2507931791947
 20
-105.7984520812176
 30
0.0
 10
83.37535337982169
 20
-105.7458436949714
 30
0.0
 10
83.48440914835908
 20
-105.6813932884368
 30
0.0
 10
83.57842113964357
 20
-105.609393214027
 30
0.0
 10
83.65456581578624
 20
-105.5282122110124
 30
0.0
 10
83.70577878245605
 20
-105.4534304049217
 30
0.0
 10
83.73761340005487
 20
-105.3868062752247
 30
0.0
 10
83.75788563682052
 20
-105.3294536792672
 30
0.0
 10
83.77435960627483
 20
-105.2646008016047
 30
0.0
 10
83.78813944381048
 20
-105.1924650653822
 30
0.0
 10
83.79951035718209
 20
-105.112943408315
 30
0.0
 10
83.80671323952953
 20
-105.0258540049401
 30
0.0
 10
83.81191905110178
 20
-104.9313947826183
 30
0.0
 10
83.81225902095044
 20
-104.8659016444086
 30
0.0
 10
83.81243497087927
 20
-104.8320059532106
 30
0.0
  0
LINE
  5
AC
330
1F
100
AcDbEntity
  8
0
  6
Continuous
 62
     7
370
    25
100
AcDbLine
 10
83.8124349709
 20
-104.8320059532
 30
0.0
 11
83.8124349709
 21
-104.699493934
 31
0.0
  0
SPLINE
  5
AD
330
1F
100
AcDbEntity
  8
0
  6
Continuous
 62
     7
370
    25
100
AcDbSpline
210
0.0
220
0.0
230
1.0
 70
     8
 71
     3
 72
    15
 73
    11
 74
     0
 42
0.00000001
 43
0.00000001
 40
0.0
 40
0.0
 40
0.0
 40
0.0
 40
0.1265607130145291
 40
0.2508952618879574
 40
0.3747192653150487
 40
0.4998264235934778
 40
0.6249635314328694
 40
0.7490394747387428
 40
0.8731801199413558
 40
1.0
 40
1.0
 40
1.0
 40
1.0
 10
83.81243497087927
 20
-104.6994939339798
 30
0.0
 10
83.78055385347677
 20
-104.737435736137
 30
0.0
 10
83.7173523977528
 20
-104.8126519557835
 30
0.0
 10
83.60820507061992
 20
-104.9112135924767
 30
0.0
 10
83.48898815498998
 20
-104.996099722778
 30
0.0
 10
83.35990461258771
 20
-105.0657183572912
 30
0.0
 10
83.22411637042894
 20
-105.1213997819005
 30
0.0
 10
83.08309414001154
 20
-105.1603427428032
 30
0.0
 10
82.93810208481038
 20
-105.1855026426936
 30
0.0
 10
82.83984993498572
 20
-105.1882099589295
 30
0.0
 10
82.7901993939562
 20
-105.1895780685952
 30
0.0
  0
SPLINE
  5
AE
330
1F
100
AcDbEntity
  8
0
  6
Continuous
 62
     7
370
    25
100
AcDbSpline
210
0.0
220
0.0
230
1.0
 70
     8
 71
     3
 72
    31
 73
    27
 74
     0
 42
0.00000001
 43
0.00000001
 40
0.0
 40
0.0
 40
0.0
 40
0.0
 40
0.0428647590311923
 40
0.0852222575672327
 40
0.1272022841437397
 40
0.1690253126086033
 40
0.2108820330997069
 40
0.2529626777271209
 40
0.2956282851000512
 40
0.3385532936306143
 40
0.3814632477171868
 40
0.4235815621432664
 40
0.4650661653954499
 40
0.5063122188418646
 40
0.5470395054616127
 40
0.5876758328931722
 40
0.6286747862975576
 40
0.6699464646027603
 40
0.7110355744560726
 40
0.751995828635216
 40
0.7926726074835044
 40
0.8334460178854449
 40
0.8741906070422389
 40
0.9154935830294642
 40
0.9574778068391461
 40
1.0
 40
1.0
 40
1.0
 40
1.0
 10
82.79019939395621
 20
-105.1895780685953
 30
0.0
 10
82.76096312453468
 20
-105.1890630421248
 30
0.0
 10
82.70283656697879
 20
-105.1880390839943
 30
0.0
 10
82.61648181974648
 20
-105.1790803065692
 30
0.0
 10
82.53140138141806
 20
-105.166081564275
 30
0.0
 10
82.44779367779114
 20
-105.1470001252913
 30
0.0
 10
82.36553806472418
 20
-105.1225083987524
 30
0.0
 10
82.2847704726029
 20
-105.091891660003
 30
0.0
 10
82.20483694603607
 20
-105.0572765417362
 30
0.0
 10
82.12719044817435
 20
-105.0165037382973
 30
0.0
 10
82.05260431743994
 20
-104.9711414314373
 30
0.0
 10
81.98164113230459
 20
-104.9220025407272
 30
0.0
 10
81.9146725932171
 20
-104.8693442524858
 30
0.0
 10
81.85233610376758
 20
-104.8126473126897
 30
0.0
 10
81.79471343231864
 20
-104.7519937799273
 30
0.0
 10
81.741029564264
 20
-104.6880302268948
 30
0.0
 10
81.69217221719695
 20
-104.6198634855492
 30
0.0
 10
81.64713882795645
 20
-104.5487365280161
 30
0.0
 10
81.60808127758331
 20
-104.4741756042046
 30
0.0
 10
81.57379690575804
 20
-104.3977975087768
 30
0.0
 10
81.54398750071734
 20
-104.3197655542914
 30
0.0
 10
81.52022209898075
 20
-104.2398184916369
 30
0.0
 10
81.50207098571103
 20
-104.1580067227707
 30
0.0
 10
81.48856075872203
 20
-104.0744642738988
 30
0.0
 10
81.4808978270662
 20
-103.9889338862688
 30
0.0
 10
81.4797029030219
 20
-103.9313125370741
 30
0.0
 10
81.47910163754594
 20
-103.9023184532106
 30
0.0
  0
SPLINE
  5
AF
330
1F
100
AcDbEntity
  8
0
  6
Continuous
 62
     7
370
    25
100
AcDbSpline
210
0.0
220
0.0
230
1.0
 70
     8
 71
     3
 72
    31
 73
    27
 74
     0
 42
0.00000001
 43
0.00000001
 40
0.0
 40
0.0
 40
0.0
 40
0.0
 40
0.0420341186638467
 40
0.0839054330862356
 40
0.1250689344486209
 40
0.1661584697031376
 40
0.2072102728707294
 40
0.2484907320562533
 40
0.28987811223279
 40
0.3321695142040862
 40
0.374475842153923
 40
0.4162249804562069
 40
0.4576095869585102
 40
0.4990731704672257
 40
0.5405533615534462
 40
0.582248849195359
 40
0.6245497501259967
 40
0.6674328009210388
 40
0.7103225433055288
 40
0.7524671185698651
 40
0.7940647568438071
 40
0.8352157072950146
 40
0.8762283442246892
 40
0.9174461887061498
 40
0.9586431404713225
 40
1.0
 40
1.0
 40
1.0
 40
1.0
 10
81.47910163754594
 20
-103.9023184532106
 30
0.0
 10
81.47962080382146
 20
-103.8733153572115
 30
0.0
 10
81.48065712556622
 20
-103.8154214984129
 30
0.0
 10
81.48960810491765
 20
-103.7295421130254
 30
0.0
 10
81.5023762943417
 20
-103.6448126777835
 30
0.0
 10
81.52258406333762
 20
-103.5621065360915
 30
0.0
 10
81.5469065858485
 20
-103.4804817843281
 30
0.0
 10
81.57703015840578
 20
-103.4005413279167
 30
0.0
 10
81.61324891774267
 20
-103.3222608188094
 30
0.0
 10
81.65425866741916
 20
-103.2455822873641
 30
0.0
 10
81.7003427600706
 20
-103.1715346724295
 30
0.0
 10
81.7508752408777
 20
-103.1012080265249
 30
0.0
 10
81.80591711513745
 20
-103.035119854599
 30
0.0
 10
81.86470903075777
 20
-102.9726034327306
 30
0.0
 10
81.92796884779602
 20
-102.9142619395141
 30
0.0
 10
81.99566384014133
 20
-102.8602369746307
 30
0.0
 10
82.06712672038758
 20
-102.8096229483611
 30
0.0
 10
82.1425789703835
 20
-102.7635116112
 30
0.0
 10
82.22085635890024
 20
-102.7227293646802
 30
0.0
 10
82.29997017669308
 20
-102.6855167677554
 30
0.0
 10
82.38096841171388
 20
-102.6559826482253
 30
0.0
 10
82.46234095113785
 20
-102.6299595491898
 30
0.0
 10
82.54552086590084
 20
-102.61152435397
 30
0.0
 10
82.6294882595233
 20
-102.5973021120522
 30
0.0
 10
82.71453059727857
 20
-102.588637391027
 30
0.0
 10
82.77148349232611
 20
-102.5875558060443
 30
0.0
 10
82.8000150990844
 20
-102.5870139660311
 30
0.0
  0
SPLINE
  5
B0
330
1F
100
AcDbEntity
  8
0
  6
Continuous
 62
     7
370
    25
100
AcDbSpline
210
0.0
220
0.0
230
1.0
 70
     8
 71
     3
 72
    23
 73
    19
 74
     0
 42
0.00000001
 43
0.00000001
 40
0.0
 40
0.0
 40
0.0
 40
0.0
 40
0.0614842551968892
 40
0.1217745277022107
 40
0.1809195598139317
 40
0.2402561150782707
 40
0.3001144444023529
 40
0.3611459476126114
 40
0.4235005824125859
 40
0.4886693612807179
 40
0.553954104653562
 40
0.617581261015261
 40
0.6802384268167405
 40
0.7421873887724538
 40
0.8046632117692927
 40
0.868258989312663
 40
0.9330202571803756
 40
0.9999999999999999
 40
0.9999999999999999
 40
0.9999999999999999
 40
0.9999999999999999
 10
-89.58340311478446
 20
-101.5181512093121
 30
0.0
 10
-89.58499902165696
 20
-101.5943558102585
 30
0.0
 10
-89.58815984396878
 20
-101.7452851702918
 30
0.0
 10
-89.62449349171679
 20
-101.9669046427197
 30
0.0
 10
-89.6777269642545
 20
-102.1821510405237
 30
0.0
 10
-89.75796024670585
 20
-102.3883637421758
 30
0.0
 10
-89.85588791676558
 20
-102.5893153086928
 30
0.0
 10
-89.98014880444023
 20
-102.779734495405
 30
0.0
 10
-90.12418175308886
 20
-102.9638357491162
 30
0.0
 10
-90.28940661071384
 20
-103.1367099424072
 30
0.0
 10
-90.47020380205387
 20
-103.2954078469432
 30
0.0
 10
-90.66129277480638
 20
-103.4365784248049
 30
0.0
 10
-90.86298629478927
 20
-103.5542872101936
 30
0.0
 10
-91.07419020673429
 20
-103.650339255172
 30
0.0
 10
-91.29495302445147
 20
-103.7254635120215
 30
0.0
 10
-91.52520049947809
 20
-103.779894765625
 30
0.0
 10
-91.76531216958278
 20
-103.8133014921292
 30
0.0
 10
-91.92851333911594
 20
-103.816768912829
 30
0.0
 10
-92.0114880506819
 20
-103.8185318182865
 30
0.0
  0
SPLINE
  5
B1
330
1F
100
AcDbEntity
  8
0
  6
Continuous
 62
     7
370
    25
100
AcDbSpline
210
0.0
220
0.0
230
1.0
 70
     8
 71
     3
 72
    23
 73
    19
 74
     0
 42
0.00000001
 43
0.00000001
 40
0.0
 40
0.0
 40
0.0
 40
0.0
 40
0.057208269433507
 40
0.11369605965749
 40
0.1691779164171936
 40
0.224159216580542
 40
0.2787198783810446
 40
0.3337942174469878
 40
0.3892414593400019
 40
0.4458220733936225
 40
0.5037042811090195
 40
0.564293891819364
 40
0.6279754158952249
 40
0.6950382596840525
 40
0.7653727258510146
 40
0.8396114430907349
 40
0.9175377500777896
 40
1.0
 40
1.0
 40
1.0
 40
1.0
 10
-92.01148805068192
 20
-103.8185318182865
 30
0.0
 10
-92.07568816935
 20
-103.8172903772642
 30
0.0
 10
-92.20327987233954
 20
-103.8148231298902
 30
0.0
 10
-92.39200289974576
 20
-103.7930114488649
 30
0.0
 10
-92.5769133306554
 20
-103.7621513401435
 30
0.0
 10
-92.75569087273826
 20
-103.7131571701995
 30
0.0
 10
-92.9306388724396
 20
-103.6537130830972
 30
0.0
 10
-93.10099644200267
 20
-103.5805199896445
 30
0.0
 10
-93.2668461442241
 20
-103.4928067861294
 30
0.0
 10
-93.4291174169043
 20
-103.3925188691741
 30
0.0
 10
-93.58739755518498
 20
-103.2758072038054
 30
0.0
 10
-93.7402019772979
 20
-103.1398715695984
 30
0.0
 10
-93.89254428497304
 20
-102.9884610574767
 30
0.0
 10
-94.03992796175403
 20
-102.8174639750268
 30
0.0
 10
-94.1853341693538
 20
-102.6296429166579
 30
0.0
 10
-94.32589602108533
 20
-102.4232406141214
 30
0.0
 10
-94.46452304973438
 20
-102.1993813264209
 30
0.0
 10
-94.55150347160072
 20
-102.04185183253
 30
0.0
 10
-94.59622362760497
 20
-101.9608595426454
 30
0.0
  0
LINE
  5
B2
330
1F
100
AcDbEntity
  8
0
  6
Continuous
 62
     7
370
    25
100
AcDbLine
 10
-94.5962236276
 20
-101.9608595426
 30
0.0
 11
-93.8776739481
 21
-101.5300702798
 31
0.0
  0
SPLINE
  5
B3
330
1F
100
AcDbEntity
  8
0
  6
Continuous
 62
     7
370
    25
100
AcDbSpline
210
0.0
220
0.0
230
1.0
 70
     8
 71
     3
 72
    15
 73
    11
 74
     0
 42
0.00000001
 43
0.00000001
 40
0.0
 40
0.0
 40
0.0
 40
0.0
 40
0.1590042985173779
 40
0.3046460998968114
 40
0.4385469045795929
 40
0.5623222987759277
 40
0.6774325425257347
 40
0.7868973929387574
 40
0.8936108891042679
 40
0.9999999999999999
 40
0.9999999999999999
 40
0.9999999999999999
 40
0.9999999999999999
 10
-93.8776739481178
 20
-101.5300702798249
 30
0.0
 10
-93.8108439433665
 20
-101.6419409289822
 30
0.0
 10
-93.6828002332693
 20
-101.8562807756182
 30
0.0
 10
-93.46920407532755
 20
-102.1459074452309
 30
0.0
 10
-93.24788129106747
 20
-102.3920726830743
 30
0.0
 10
-93.01719290959024
 20
-102.5933444442423
 30
0.0
 10
-92.77854703557874
 20
-102.7518060263437
 30
0.0
 10
-92.5303857622182
 20
-102.8640114462317
 30
0.0
 10
-92.27354536477617
 20
-102.9339931007049
 30
0.0
 10
-92.09875179832612
 20
-102.9424933109091
 30
0.0
 10
-92.01148805068192
 20
-102.9467369464916
 30
0.0
  0
SPLINE
  5
B4
330
1F
100
AcDbEntity
  8
0
  6
Continuous
 62
     7
370
    25
100
AcDbSpline
210
0.0
220
0.0
230
1.0
 70
     8
 71
     3
 72
    19
 73
    15
 74
     0
 42
0.00000001
 43
0.00000001
 40
0.0
 40
0.0
 40
0.0
 40
0.0
 40
0.0912636048966266
 40
0.1809303110850816
 40
0.2700882198317218
 40
0.3601561333877298
 40
0.4483425324981549
 40
0.5326658421383319
 40
0.6138337041070505
 40
0.6939815272835578
 40
0.7727159770890067
 40
0.8493351720622493
 40
0.9239673265752366
 40
1.0
 40
1.0
 40
1.0
 40
1.0
 10
-92.0114880506819
 20
-102.9467369464916
 30
0.0
 10
-91.93696281801112
 20
-102.9446613132476
 30
0.0
 10
-91.78921636918213
 20
-102.9405463654658
 30
0.0
 10
-91.57170806484801
 20
-102.9010072747745
 30
0.0
 10
-91.36046654505905
 20
-102.8402635331275
 30
0.0
 10
-91.1598455677134
 20
-102.7532698423211
 30
0.0
 10
-90.97261336099396
 20
-102.6480192341319
 30
0.0
 10
-90.80842567231932
 20
-102.5208928030427
 30
0.0
 10
-90.66648511174056
 20
-102.3785634463095
 30
0.0
 10
-90.55037726207753
 20
-102.219776999322
 30
0.0
 10
-90.46129717637719
 20
-102.0490067812757
 30
0.0
 10
-90.39283072451654
 20
-101.8737223280255
 30
0.0
 10
-90.35483554563673
 20
-101.6911700907766
 30
0.0
 10
-90.34911200152766
 20
-101.5682589667176
 30
0.0
 10
-90.34622362760499
 20
-101.5062321387993
 30
0.0
  0
SPLINE
  5
B5
330
1F
100
AcDbEntity
  8
0
  6
Continuous
 62
     7
370
    25
100
AcDbSpline
210
0.0
220
0.0
230
1.0
 70
     8
 71
     3
 72
    11
 73
     7
 74
     0
 42
0.00000001
 43
0.00000001
 40
0.0
 40
0.0
 40
0.0
 40
0.0
 40
0.2347233736739036
 40
0.4771583189289917
 40
0.728556284203051
 40
1.0
 40
1.0
 40
1.0
 40
1.0
 10
-90.34622362760499
 20
-101.5062321387993
 30
0.0
 10
-90.34980409644614
 20
-101.4354615037955
 30
0.0
 10
-90.35708266639203
 20
-101.291595144432
 30
0.0
 10
-90.41860197513942
 20
-101.0793388444009
 30
0.0
 10
-90.51537871747352
 20
-100.8692854600563
 30
0.0
 10
-90.60465942361418
 20
-100.7393538150818
 30
0.0
 10
-90.6510112878614
 20
-100.6718972029018
 30
0.0
  0
SPLINE
  5
B6
330
1F
100
AcDbEntity
  8
0
  6
Continuous
 62
     7
370
    25
100
AcDbSpline
210
0.0
220
0.0
230
1.0
 70
     8
 71
     3
 72
    15
 73
    11
 74
     0
 42
0.00000001
 43
0.00000001
 40
0.0
 40
0.0
 40
0.0
 40
0.0
 40
0.0902792146500139
 40
0.1895299184469594
 40
0.2991978724002889
 40
0.418925886773816
 40
0.5483762854012427
 40
0.688136369538679
 40
0.8390835016589201
 40
1.0
 40
1.0
 40
1.0
 40
1.0
 10
-90.6510112878614
 20
-100.6718972029018
 30
0.0
 10
-90.68906849372856
 20
-100.6232120598652
 30
0.0
 10
-90.7689648370041
 20
-100.5210036919137
 30
0.0
 10
-90.90631879615854
 20
-100.3688652629019
 30
0.0
 10
-91.06749364518592
 20
-100.2119348168754
 30
0.0
 10
-91.2469737071143
 20
-100.0442199642842
 30
0.0
 10
-91.45129692287003
 20
-99.87352102947041
 30
0.0
 10
-91.67406374356338
 20
-99.6916980687615
 30
0.0
 10
-91.92096168676683
 20
-99.50566566736241
 30
0.0
 10
-92.09411760712483
 20
-99.38090372246367
 30
0.0
 10
-92.18346321093831
 20
-99.31652861315824
 30
0.0
  0
SPLINE
  5
B7
330
1F
100
AcDbEntity
  8
0
  6
Continuous
 62
     7
370
    25
100
AcDbSpline
210
0.0
220
0.0
230
1.0
 70
     8
 71
     3
 72
    15
 73
    11
 74
     0
 42
0.00000001
 43
0.00000001
 40
0.0
 40
0.0
 40
0.0
 40
0.0
 40
0.1815353013762862
 40
0.3470816724816306
 40
0.4955678164315539
 40
0.6283573018772153
 40
0.7455196699921525
 40
0.8458307507576519
 40
0.9307818073847551
 40
0.9999999999999999
 40
0.9999999999999999
 40
0.9999999999999999
 40
0.9999999999999999
 10
-92.18346321093831
 20
-99.31652861315824
 30
0.0
 10
-92.27289291594461
 20
-99.25283061465416
 30
0.0
 10
-92.44387570192504
 20
-99.13104489205962
 30
0.0
 10
-92.6829894019091
 20
-98.95030020231226
 30
0.0
 10
-92.89681166921886
 20
-98.78505080485337
 30
0.0
 10
-93.08439213791833
 20
-98.6337410611758
 30
0.0
 10
-93.2456483016873
 20
-98.4963504496889
 30
0.0
 10
-93.38185087129315
 20
-98.37419831177226
 30
0.0
 10
-93.48953022423945
 20
-98.2639810925205
 30
0.0
 10
-93.54940806298164
 20
-98.19248069113942
 30
0.0
 10
-93.57629173657935
 20
-98.16037877341466
 30
0.0
  0
SPLINE
  5
B8
330
1F
100
AcDbEntity
  8
0
  6
Continuous
 62
     7
370
    25
100
AcDbSpline
210
0.0
220
0.0
230
1.0
 70
     8
 71
     3
 72
    15
 73
    11
 74
     0
 42
0.00000001
 43
0.00000001
 40
0.0
 40
0.0
 40
0.0
 40
0.0
 40
0.1335067689985131
 40
0.2625589787303628
 40
0.3882644471488759
 40
0.5126673546814223
 40
0.6337222699657604
 40
0.7553938601370906
 40
0.8775529450912786
 40
1.0
 40
1.0
 40
1.0
 40
1.0
 10
-93.57629173657935
 20
-98.16037877341466
 30
0.0
 10
-93.61386791785499
 20
-98.11034768391161
 30
0.0
 10
-93.68776652130653
 20
-98.01195483189943
 30
0.0
 10
-93.78531253457892
 20
-97.85816589160646
 30
0.0
 10
-93.86822192994643
 20
-97.7007379613269
 30
0.0
 10
-93.93321616513445
 20
-97.53924800452721
 30
0.0
 10
-93.98794698231625
 20
-97.3759631772458
 30
0.0
 10
-94.02475909977373
 20
-97.20875300911815
 30
0.0
 10
-94.04780963514061
 20
-97.03836779284725
 30
0.0
 10
-94.05017017386385
 20
-96.9237064341926
 30
0.0
 10
-94.05135183273319
 20
-96.86630826059415
 30
0.0
  0
SPLINE
  5
B9
330
1F
100
AcDbEntity
  8
0
  6
Continuous
 62
     7
370
    25
100
AcDbSpline
210
0.0
220
0.0
230
1.0
 70
     8
 71
     3
 72
    19
 73
    15
 74
     0
 42
0.00000001
 43
0.00000001
 40
0.0
 40
0.0
 40
0.0
 40
0.0
 40
0.0837853706537076
 40
0.1657798879221406
 40
0.2462800078932617
 40
0.3274609277363898
 40
0.4087969540320658
 40
0.4897152412309878
 40
0.5713760321300523
 40
0.6555233211112771
 40
0.7410194827999732
 40
0.8265467605037614
 40
0.911988851654834
 40
1.0
 40
1.0
 40
1.0
 40
1.0
 10
-94.05135183273318
 20
-96.86630826059414
 30
0.0
 10
-94.04818203946358
 20
-96.77637880807987
 30
0.0
 10
-94.0419102050267
 20
-96.59844208186622
 30
0.0
 10
-93.98886894879857
 20
-96.33851006507831
 30
0.0
 10
-93.90514906420906
 20
-96.09034305183559
 30
0.0
 10
-93.7878614794024
 20
-95.856397955647
 30
0.0
 10
-93.63666505088668
 20
-95.64276628777566
 30
0.0
 10
-93.46169625599973
 20
-95.44699067653357
 30
0.0
 10
-93.25329693228014
 20
-95.28240983399712
 30
0.0
 10
-93.02464056149762
 20
-95.13860912076622
 30
0.0
 10
-92.77436080072536
 20
-95.02605473097756
 30
0.0
 10
-92.51209717818828
 20
-94.94114949344501
 30
0.0
 10
-92.23743286041281
 20
-94.8930412961955
 30
0.0
 10
-92.05139667632736
 20
-94.88613743855052
 30
0.0
 10
-91.95700087119472
 20
-94.88263438238901
 30
0.0
  0
SPLINE
  5
BA
330
1F
100
AcDbEntity
  8
0
  6
Continuous
 62
     7
370
    25
100
AcDbSpline
210
0.0
220
0.0
230
1.0
 70
     8
 71
     3
 72
    19
 73
    15
 74
     0
 42
0.00000001
 43
0.00000001
 40
0.0
 40
0.0
 40
0.0
 40
0.0
 40
0.1072327993600893
 40
0.2132518127818517
 40
0.3188304473075877
 40
0.4267935306342763
 40
0.4836459507827224
 40
0.5436038220211418
 40
0.6083076495640838
 40
0.6771267602600395
 40
0.7506856360204961
 40
0.8287134184432869
 40
0.9121903482234528
 40
1.0
 40
1.0
 40
1.0
 40
1.0
 10
-91.95700087119472
 20
-94.88263438238901
 30
0.0
 10
-91.85683662761382
 20
-94.88608915055845
 30
0.0
 10
-91.6576419162288
 20
-94.89295958180031
 30
0.0
 10
-91.364636678417
 20
-94.9526964435768
 30
0.0
 10
-91.08253208144411
 20
-95.05154093220474
 30
0.0
 10
-90.85559843831105
 20
-95.16371338729316
 30
0.0
 10
-90.67799030333232
 20
-95.27574682545394
 30
0.0
 10
-90.54254223823065
 20
-95.37779497013112
 30
0.0
 10
-90.4052855720347
 20
-95.49527737674133
 30
0.0
 10
-90.2651131531649
 20
-95.62850697436622
 30
0.0
 10
-90.12440012309833
 20
-95.77870622701234
 30
0.0
 10
-89.98105745336252
 20
-95.94484647150621
 30
0.0
 10
-89.83474994339372
 20
-96.12591239289112
 30
0.0
 10
-89.74062856880707
 20
-96.2551718947235
 30
0.0
 10
-89.69237747375884
 20
-96.32143646572236
 30
0.0
  0
LINE
  5
BB
330
1F
100
AcDbEntity
  8
0
  6
Continuous
 62
     7
370
    25
100
AcDbLine
 10
-89.6923774738
 20
-96.3214364657
 30
0.0
 11
-90.3819808391
 21
-96.8441728439
 31
0.0
  0
SPLINE
  5
BC
330
1F
100
AcDbEntity
  8
0
  6
Continuous
 62
     7
370
    25
100
AcDbSpline
210
0.0
220
0.0
230
1.0
 70
     8
 71
     3
 72
    19
 73
    15
 74
     0
 42
0.00000001
 43
0.00000001
 40
0.0
 40
0.0
 40
0.0
 40
0.0
 40
0.0984694310255615
 40
0.1896291011376328
 40
0.2741840894379736
 40
0.3521831609671558
 40
0.4231988731834725
 40
0.4885509460005351
 40
0.5484733460279381
 40
0.6014401636178744
 40
0.7011980824257708
 40
0.799591802138185
 40
0.8985450984822292
 40
1.0
 40
1.0
 40
1.0
 40
1.0
 10
-90.38198083914344
 20
-96.84417284392748
 30
0.0
 10
-90.42362096086192
 20
-96.79052888147254
 30
0.0
 10
-90.50381009946562
 20
-96.68722315221373
 30
0.0
 10
-90.62555313898407
 20
-96.54254995717001
 30
0.0
 10
-90.74029985536184
 20
-96.41039564973529
 30
0.0
 10
-90.85335082626641
 20
-96.29560891023375
 30
0.0
 10
-90.95873535982646
 20
-96.19190372927031
 30
0.0
 10
-91.06101960528336
 20
-96.10311574841094
 30
0.0
 10
-91.15873160114565
 20
-96.02837501665213
 30
0.0
 10
-91.28190124128602
 20
-95.94861208532275
 30
0.0
 10
-91.43664427149947
 20
-95.86954629097548
 30
0.0
 10
-91.63089243093783
 20
-95.80264138707246
 30
0.0
 10
-91.83388767030848
 20
-95.76243623669828
 30
0.0
 10
-91.97214534678587
 20
-95.75712036689067
 30
0.0
 10
-92.04213708914344
 20
-95.75442925418389
 30
0.0
  0
SPLINE
  5
BD
330
1F
100
AcDbEntity
  8
0
  6
Continuous
 62
     7
370
    25
100
AcDbSpline
210
0.0
220
0.0
230
1.0
 70
     8
 71
     3
 72
    15
 73
    11
 74
     0
 42
0.00000001
 43
0.00000001
 40
0.0
 40
0.0
 40
0.0
 40
0.0
 40
0.1430730837303658
 40
0.2759029640930158
 40
0.4023708562739964
 40
0.5284136450935988
 40
0.650356379186952
 40
0.7658950861246968
 40
0.8807741308440259
 40
1.0
 40
1.0
 40
1.0
 40
1.0
 10
-92.04213708914344
 20
-95.75442925418389
 30
0.0
 10
-92.12994578641388
 20
-95.75737195406707
 30
0.0
 10
-92.29927658727728
 20
-95.76304667358124
 30
0.0
 10
-92.53968144639568
 20
-95.82502378071808
 30
0.0
 10
-92.75605240726352
 20
-95.92260829860375
 30
0.0
 10
-92.94196577954291
 20
-96.05937324540747
 30
0.0
 10
-93.0967555809331
 20
-96.22140994192848
 30
0.0
 10
-93.20872598079073
 20
-96.40787287568185
 30
0.0
 10
-93.27611923756001
 20
-96.61377299629287
 30
0.0
 10
-93.28434305956965
 20
-96.75740273309843
 30
0.0
 10
-93.28853131991268
 20
-96.83055104905567
 30
0.0
  0
SPLINE
  5
BE
330
1F
100
AcDbEntity
  8
0
  6
Continuous
 62
     7
370
    25
100
AcDbSpline
210
0.0
220
0.0
230
1.0
 70
     8
 71
     3
 72
    15
 73
    11
 74
     0
 42
0.00000001
 43
0.00000001
 40
0.0
 40
0.0
 40
0.0
 40
0.0
 40
0.1072852142689637
 40
0.2147458609696377
 40
0.3229385595552914
 40
0.4341161625174744
 40
0.553412310962799
 40
0.6860729848107331
 40
0.8342559920595888
 40
1.0
 40
1.0
 40
1.0
 40
1.0
 10
-93.28853131991268
 20
-96.83055104905567
 30
0.0
 10
-93.28757658379932
 20
-96.87609035408252
 30
0.0
 10
-93.28566555039123
 20
-96.9672434298589
 30
0.0
 10
-93.25901247029574
 20
-97.10191116888997
 30
0.0
 10
-93.2247712428267
 20
-97.23623870747804
 30
0.0
 10
-93.17051056571124
 20
-97.36962212293245
 30
0.0
 10
-93.09560054264439
 20
-97.50439413777367
 30
0.0
 10
-92.9972308297289
 20
-97.64287550041588
 30
0.0
 10
-92.87334135760754
 20
-97.78628679290532
 30
0.0
 10
-92.77844004189694
 20
-97.8795618435015
 30
0.0
 10
-92.72833500581011
 20
-97.92880826059415
 30
0.0
  0
SPLINE
  5
BF
330
1F
100
AcDbEntity
  8
0
  6
Continuous
 62
     7
370
    25
100
AcDbSpline
210
0.0
220
0.0
230
1.0
 70
     8
 71
     3
 72
    15
 73
    11
 74
     0
 42
0.00000001
 43
0.00000001
 40
0.0
 40
0.0
 40
0.0
 40
0.0
 40
0.0525942815291384
 40
0.1249519739750365
 40
0.2180938989285936
 40
0.3335024107325205
 40
0.4687891785044453
 40
0.6249375859645994
 40
0.8016830479282312
 40
1.0
 40
1.0
 40
1.0
 40
1.0
 10
-92.72833500581011
 20
-97.92880826059415
 30
0.0
 10
-92.70972881567714
 20
-97.94541246614686
 30
0.0
 10
-92.66552476691605
 20
-97.98486025780362
 30
0.0
 10
-92.58471180440546
 20
-98.04944151079557
 30
0.0
 10
-92.47799358013273
 20
-98.12910538636976
 30
0.0
 10
-92.34815680584616
 20
-98.22767458352291
 30
0.0
 10
-92.19280749879469
 20
-98.34201527723621
 30
0.0
 10
-92.01192857672925
 20
-98.47066547820548
 30
0.0
 10
-91.80753628270148
 20
-98.61780159293646
 30
0.0
 10
-91.66249734408824
 20
-98.72066990584628
 30
0.0
 10
-91.58580696093833
 20
-98.7750622670044
 30
0.0
  0
SPLINE
  5
C0
330
1F
100
AcDbEntity
  8
0
  6
Continuous
 62
     7
370
    25
100
AcDbSpline
210
0.0
220
0.0
230
1.0
 70
     8
 71
     3
 72
    19
 73
    15
 74
     0
 42
0.00000001
 43
0.00000001
 40
0.0
 40
0.0
 40
0.0
 40
0.0
 40
0.0969723103815168
 40
0.1877734389628689
 40
0.272396139013694
 40
0.3513209973752908
 40
0.4243347744514698
 40
0.4919087840005263
 40
0.5542332197968003
 40
0.6112676582441554
 40
0.7163478449915519
 40
0.8145400858216166
 40
0.9084954561491854
 40
1.0
 40
1.0
 40
1.0
 40
1.0
 10
-91.58580696093833
 20
-98.7750622670044
 30
0.0
 10
-91.49355545719175
 20
-98.84219128305372
 30
0.0
 10
-91.31492320598683
 20
-98.97217731873938
 30
0.0
 10
-91.06075479763032
 20
-99.16747254166317
 30
0.0
 10
-90.8302984065428
 20
-99.35847426534359
 30
0.0
 10
-90.6227449121581
 20
-99.54396273971982
 30
0.0
 10
-90.43604384880437
 20
-99.72253096558578
 30
0.0
 10
-90.27226652716561
 20
-99.89632726067342
 30
0.0
 10
-90.12974416060817
 20
-100.064106508616
 30
0.0
 10
-89.97630891577633
 20
-100.2792113352945
 30
0.0
 10
-89.81952563979806
 20
-100.5433939685322
 30
0.0
 10
-89.684881978906
 20
-100.8670696907136
 30
0.0
 10
-89.59998313508781
 20
-101.1920036119205
 30
0.0
 10
-89.58888088332448
 20
-101.4103973576456
 30
0.0
 10
-89.58340311478446
 20
-101.5181512093121
 30
0.0
  0
LINE
  5
C1
330
1F
100
AcDbEntity
  8
0
  6
Continuous
 62
     7
370
    25
100
AcDbLine
 10
-86.2154143327
 20
-103.6005831003
 30
0.0
 11
-86.3567404545
 21
-103.6005831003
 31
0.0
  0
LINE
  5
C2
330
1F
100
AcDbEntity
  8
0
  6
Continuous
 62
     7
370
    25
100
AcDbLine
 10
-86.3567404545
 20
-103.6005831003
 30
0.0
 11
-88.9295569609
 21
-97.3890446388
 31
0.0
  0
LINE
  5
C3
330
1F
100
AcDbEntity
  8
0
  6
Continuous
 62
     7
370
    25
100
AcDbLine
 10
-88.9295569609
 20
-97.3890446388
 30
0.0
 11
-88.1105465443
 21
-97.3890446388
 31
0.0
  0
LINE
  5
C4
330
1F
100
AcDbEntity
  8
0
  6
Continuous
 62
     7
370
    25
100
AcDbLine
 10
-88.1105465443
 20
-97.3890446388
 30
0.0
 11
-86.2596851661
 21
-101.8569933567
 31
0.0
  0
LINE
  5
C5
330
1F
100
AcDbEntity
  8
0
  6
Continuous
 62
     7
370
    25
100
AcDbLine
 10
-86.2596851661
 20
-101.8569933567
 30
0.0
 11
-84.2317404545
 21
-97.3890446388
 31
0.0
  0
LINE
  5
C6
330
1F
100
AcDbEntity
  8
0
  6
Continuous
 62
     7
370
    25
100
AcDbLine
 10
-84.2317404545
 20
-97.3890446388
 30
0.0
 11
-84.1023334032
 21
-97.3890446388
 31
0.0
  0
LINE
  5
C7
330
1F
100
AcDbEntity
  8
0
  6
Continuous
 62
     7
370
    25
100
AcDbLine
 10
-84.1023334032
 20
-97.3890446388
 30
0.0
 11
-82.118659525
 21
-101.8569933567
 31
0.0
  0
LINE
  5
C8
330
1F
100
AcDbEntity
  8
0
  6
Continuous
 62
     7
370
    25
100
AcDbLine
 10
-82.118659525
 20
-101.8569933567
 30
0.0
 11
-80.2507709032
 21
-97.3890446388
 31
0.0
  0
LINE
  5
C9
330
1F
100
AcDbEntity
  8
0
  6
Continuous
 62
     7
370
    25
100
AcDbLine
 10
-80.2507709032
 20
-97.3890446388
 30
0.0
 11
-79.4487877302
 21
-97.3890446388
 31
0.0
  0
LINE
  5
CA
330
1F
100
AcDbEntity
  8
0
  6
Continuous
 62
     7
370
    25
100
AcDbLine
 10
-79.4487877302
 20
-97.3890446388
 30
0.0
 11
-82.0454423776
 21
-103.6005831003
 31
0.0
  0
LINE
  5
CB
330
1F
100
AcDbEntity
  8
0
  6
Continuous
 62
     7
370
    25
100
AcDbLine
 10
-82.0454423776
 20
-103.6005831003
 30
0.0
 11
-82.203795743
 21
-103.6005831003
 31
0.0
  0
LINE
  5
CC
330
1F
100
AcDbEntity
  8
0
  6
Continuous
 62
     7
370
    25
100
AcDbLine
 10
-82.203795743
 20
-103.6005831003
 30
0.0
 11
-84.1891723456
 21
-99.1326343824
 31
0.0
  0
LINE
  5
CD
330
1F
100
AcDbEntity
  8
0
  6
Continuous
 62
     7
370
    25
100
AcDbLine
 10
-84.1891723456
 20
-99.1326343824
 30
0.0
 11
-86.2154143327
 21
-103.6005831003
 31
0.0
  0
LINE
  5
CE
330
1F
100
AcDbEntity
  8
0
  6
Continuous
 62
     7
370
    25
100
AcDbLine
 10
-72.9103261917
 20
-98.5383835811
 30
0.0
 11
-72.9103261917
 21
-97.3890446388
 31
0.0
  0
LINE
  5
CF
330
1F
100
AcDbEntity
  8
0
  6
Continuous
 62
     7
370
    25
100
AcDbLine
 10
-72.9103261917
 20
-97.3890446388
 30
0.0
 11
-72.1475056789
 21
-97.3890446388
 31
0.0
  0
LINE
  5
D0
330
1F
100
AcDbEntity
  8
0
  6
Continuous
 62
     7
370
    25
100
AcDbLine
 10
-72.1475056789
 20
-97.3890446388
 30
0.0
 11
-72.1475056789
 21
-103.6005831003
 31
0.0
  0
LINE
  5
D1
330
1F
100
AcDbEntity
  8
0
  6
Continuous
 62
     7
370
    25
100
AcDbLine
 10
-72.1475056789
 20
-103.6005831003
 30
0.0
 11
-72.9103261917
 21
-103.6005831003
 31
0.0
  0
LINE
  5
D2
330
1F
100
AcDbEntity
  8
0
  6
Continuous
 62
     7
370
    25
100
AcDbLine
 10
-72.9103261917
 20
-103.6005831003
 30
0.0
 11
-72.9103261917
 21
-102.5261640298
 31
0.0
  0
SPLINE
  5
D3
330
1F
100
AcDbEntity
  8
0
  6
Continuous
 62
     7
370
    25
100
AcDbSpline
210
0.0
220
0.0
230
1.0
 70
     8
 71
     3
 72
    15
 73
    11
 74
     0
 42
0.00000001
 43
0.00000001
 40
0.0
 40
0.0
 40
0.0
 40
0.0
 40
0.1342983790141734
 40
0.2620849753823029
 40
0.3862699121345033
 40
0.5071645966228008
 40
0.627300235725507
 40
0.7481449416029956
 40
0.8723701771613522
 40
0.9999999999999999
 40
0.9999999999999999
 40
0.9999999999999999
 40
0.9999999999999999
 10
-72.91032619170754
 20
-102.5261640298249
 30
0.0
 10
-72.9963432546568
 20
-102.6234030437225
 30
0.0
 10
-73.16420663462455
 20
-102.8131662020765
 30
0.0
 10
-73.44456363541244
 20
-103.0610800495541
 30
0.0
 10
-73.74174349603275
 20
-103.265998830437
 30
0.0
 10
-74.05430384735016
 20
-103.4315057685666
 30
0.0
 10
-74.38196243832996
 20
-103.5558293339573
 30
0.0
 10
-74.72399293600084
 20
-103.6441957204056
 30
0.0
 10
-75.08053486096001
 20
-103.7010093201097
 30
0.0
 10
-75.32400486545004
 20
-103.7066825160773
 30
0.0
 10
-75.44738548657934
 20
-103.7095574593121
 30
0.0
  0
SPLINE
  5
D4
330
1F
100
AcDbEntity
  8
0
  6
Continuous
 62
     7
370
    25
100
AcDbSpline
210
0.0
220
0.0
230
1.0
 70
     8
 71
     3
 72
    23
 73
    19
 74
     0
 42
0.00000001
 43
0.00000001
 40
0.0
 40
0.0
 40
0.0
 40
0.0
 40
0.0646199913407682
 40
0.1274334841444713
 40
0.1890041265579409
 40
0.2499300706860468
 40
0.3106684537406716
 40
0.3723289611368247
 40
0.4349391099970089
 40
0.4995755441940344
 40
0.564191207771924
 40
0.6267352169294784
 40
0.6881093335614008
 40
0.7492936065367513
 40
0.8103305278109447
 40
0.8719011702244143
 40
0.9350459146845296
 40
1.0
 40
1.0
 40
1.0
 40
1.0
 10
-75.44738548657934
 20
-103.7095574593121
 30
0.0
 10
-75.55707908874406
 20
-103.7065791266584
 30
0.0
 10
-75.77339972918635
 20
-103.7007057227919
 30
0.0
 10
-76.091613202238
 20
-103.6551401282904
 30
0.0
 10
-76.39783723662299
 20
-103.5819657614453
 30
0.0
 10
-76.69236119880168
 20
-103.4802064583939
 30
0.0
 10
-76.97327926628446
 20
-103.3452244629868
 30
0.0
 10
-77.24299664391725
 20
-103.183624289172
 30
0.0
 10
-77.50011603882079
 20
-102.9911822732618
 30
0.0
 10
-77.74071834773302
 20
-102.7711827758334
 30
0.0
 10
-77.96228177721734
 20
-102.5322235212446
 30
0.0
 10
-78.15671629644264
 20
-102.2773557645479
 30
0.0
 10
-78.31883091894706
 20
-102.0076815979515
 30
0.0
 10
-78.45439397209327
 20
-101.7266153670788
 30
0.0
 10
-78.55881366573504
 20
-101.431993419639
 30
0.0
 10
-78.63160677750433
 20
-101.1248345832139
 30
0.0
 10
-78.67711929092015
 20
-100.8055020331885
 30
0.0
 10
-78.68299026686934
 20
-100.5880489056706
 30
0.0
 10
-78.68596721734856
 20
-100.4777866259788
 30
0.0
  0
SPLINE
  5
D5
330
1F
100
AcDbEntity
  8
0
  6
Continuous
 62
     7
370
    25
100
AcDbSpline
210
0.0
220
0.0
230
1.0
 70
     8
 71
     3
 72
    23
 73
    19
 74
     0
 42
0.00000001
 43
0.00000001
 40
0.0
 40
0.0
 40
0.0
 40
0.0
 40
0.063774532305631
 40
0.1260788099895058
 40
0.1869040927472074
 40
0.2475739349176196
 40
0.3080033561644462
 40
0.3691318984609774
 40
0.4320332277442054
 40
0.4967907944370901
 40
0.5616108232295645
 40
0.624913865748462
 40
0.6867263492419265
 40
0.7480788332577727
 40
0.8095822911398955
 40
0.8716307425688279
 40
0.9348858208285543
 40
1.0
 40
1.0
 40
1.0
 40
1.0
 10
-78.68596721734856
 20
-100.4777866259788
 30
0.0
 10
-78.68292428684242
 20
-100.3698033458816
 30
0.0
 10
-78.6769085773856
 20
-100.1563262263918
 30
0.0
 10
-78.63209361491637
 20
-99.8423636741404
 30
0.0
 10
-78.55673259388698
 20
-99.53996218378825
 30
0.0
 10
-78.45097353526978
 20
-99.2500953216734
 30
0.0
 10
-78.3153573589308
 20
-98.97241234274112
 30
0.0
 10
-78.15038914759441
 20
-98.70671685341911
 30
0.0
 10
-77.95605698761155
 20
-98.45227688815419
 30
0.0
 10
-77.7320154277146
 20
-98.21507533730855
 30
0.0
 10
-77.48931670017673
 20
-97.99596813122575
 30
0.0
 10
-77.22968121081087
 20
-97.80554616372268
 30
0.0
 10
-76.95956752760313
 20
-97.64109095945518
 30
0.0
 10
-76.67478593062017
 20
-97.510789659854
 30
0.0
 10
-76.37955153321481
 20
-97.40536754881752
 30
0.0
 10
-76.07123602211436
 20
-97.33243034057338
 30
0.0
 10
-75.75112218818796
 20
-97.28945113184768
 30
0.0
 10
-75.53378813603105
 20
-97.28322727605217
 30
0.0
 10
-75.4235473455537
 20
-97.28007027982491
 30
0.0
  0
SPLINE
  5
D6
330
1F
100
AcDbEntity
  8
0
  6
Continuous
 62
     7
370
    25
100
AcDbSpline
210
0.0
220
0.0
230
1.0
 70
     8
 71
     3
 72
    15
 73
    11
 74
     0
 42
0.00000001
 43
0.00000001
 40
0.0
 40
0.0
 40
0.0
 40
0.0
 40
0.1298621417207373
 40
0.2546535308972895
 40
0.3760145541937119
 40
0.4952552518176089
 40
0.6147977192994578
 40
0.7381055541683318
 40
0.8651963000723604
 40
1.0
 40
1.0
 40
1.0
 40
1.0
 10
-75.4235473455537
 20
-97.28007027982491
 30
0.0
 10
-75.29677625925798
 20
-97.28356196214085
 30
0.0
 10
-75.04818414216268
 20
-97.29040898636784
 30
0.0
 10
-74.68455897680037
 20
-97.34738989557107
 30
0.0
 10
-74.34056524474892
 20
-97.44365474437572
 30
0.0
 10
-74.01354753267582
 20
-97.57459723957561
 30
0.0
 10
-73.70468015215985
 20
-97.74860129591742
 30
0.0
 10
-73.4168871902497
 20
-97.96809548697485
 30
0.0
 10
-73.14715673078784
 20
-98.23169551247369
 30
0.0
 10
-72.99080459390116
 20
-98.43416659189897
 30
0.0
 10
-72.91032619170754
 20
-98.53838358110696
 30
0.0
  0
CIRCLE
  5
D7
330
1F
100
AcDbEntity
  8
0
  6
Continuous
 62
     7
370
    25
100
AcDbCircle
 10
-60.8
 20
-54.2
 30
0.0
 40
10.0
  0
CIRCLE
  5
D8
330
1F
100
AcDbEntity
  8
0
  6
Continuous
 62
     7
370
    25
100
AcDbCircle
 10
25.0
 20
-69.4
 30
0.0
 40
1.799999999999997
  0
CIRCLE
  5
D9
330
1F
100
AcDbEntity
  8
0
  6
Continuous
 62
     7
370
    25
100
AcDbCircle
 10
-25.8
 20
-54.2
 30
0.0
 40
1.800000000000004
  0
CIRCLE
  5
DA
330
1F
100
AcDbEntity
  8
0
  6
Continuous
 62
     7
370
    25
100
AcDbCircle
 10
-26.9
 20
-102.0
 30
0.0
 40
1.799999999999997
  0
CIRCLE
  5
DB
330
1F
100
AcDbEntity
  8
0
  6
Continuous
 62
     7
370
    25
100
AcDbCircle
 10
25.0
 20
-97.3
 30
0.0
 40
1.799999999999997
  0
CIRCLE
  5
DC
330
1F
100
AcDbEntity
  8
0
  6
Continuous
 62
     7
370
    25
100
AcDbCircle
 10
-100.0
 20
100.0
 30
0.0
 40
2.457449999999994
  0
CIRCLE
  5
DD
330
1F
100
AcDbEntity
  8
0
  6
Continuous
 62
     7
370
    25
100
AcDbCircle
 10
100.0
 20
100.0
 30
0.0
 40
2.457449999999994
  0
CIRCLE
  5
DE
330
1F
100
AcDbEntity
  8
0
  6
Continuous
 62
     7
370
    25
100
AcDbCircle
 10
100.0
 20
-100.0
 30
0.0
 40
2.457450000000009
  0
CIRCLE
  5
DF
330
1F
100
AcDbEntity
  8
0
  6
Continuous
 62
     7
370
    25
100
AcDbCircle
 10
-100.0
 20
-100.0
 30
0.0
 40
2.457450000000009
  0
CIRCLE
  5
E0
330
1F
100
AcDbEntity
  8
0
  6
Continuous
 62
     7
370
    25
100
AcDbCircle
 10
34.0
 20
34.0
 30
0.0
 40
2.399999999999999
  0
CIRCLE
  5
E1
330
1F
100
AcDbEntity
  8
0
  6
Continuous
 62
     7
370
    25
100
AcDbCircle
 10
34.0
 20
-34.0
 30
0.0
 40
2.399999999999995
  0
CIRCLE
  5
E2
330
1F
100
AcDbEntity
  8
0
  6
Continuous
 62
     7
370
    25
100
AcDbCircle
 10
-34.0
 20
-34.0
 30
0.0
 40
2.399999999999999
  0
CIRCLE
  5
E3
330
1F
100
AcDbEntity
  8
0
  6
Continuous
 62
     7
370
    25
100
AcDbCircle
 10
9.8994949366
 20
9.8994949366
 30
0.0
 40
1.800000000000001
  0
CIRCLE
  5
E4
330
1F
100
AcDbEntity
  8
0
  6
Continuous
 62
     7
370
    25
100
AcDbCircle
 10
9.8994949366
 20
-9.8994949366
 30
0.0
 40
1.799999999999999
  0
CIRCLE
  5
E5
330
1F
100
AcDbEntity
  8
0
  6
Continuous
 62
     7
370
    25
100
AcDbCircle
 10
-9.8994949366
 20
-9.8994949366
 30
0.0
 40
1.800000000000001
  0
CIRCLE
  5
E6
330
1F
100
AcDbEntity
  8
0
  6
Continuous
 62
     7
370
    25
100
AcDbCircle
 10
-34.0
 20
34.0
 30
0.0
 40
2.399999999999995
  0
CIRCLE
  5
E7
330
1F
100
AcDbEntity
  8
0
  6
Continuous
 62
     7
370
    25
100
AcDbCircle
 10
-9.8994949366
 20
9.8994949366
 30
0.0
 40
1.799999999999999
  0
CIRCLE
  5
E8
330
1F
100
AcDbEntity
  8
0
  6
Continuous
 62
     7
370
    25
100
AcDbCircle
 10
0.0
 20
0.0
 30
0.0
 40
11.15
  0
LINE
  5
E9
330
1F
100
AcDbEntity
  8
0
  6
Continuous
 62
     7
370
    25
100
AcDbLine
 10
-110.0
 20
110.0
 30
0.0
 11
-110.0
 21
-110.0
 31
0.0
  0
LINE
  5
EA
330
1F
100
AcDbEntity
  8
0
  6
Continuous
 62
     7
370
    25
100
AcDbLine
 10
-110.0
 20
-110.0
 30
0.0
 11
110.0
 21
-110.0
 31
0.0
  0
LINE
  5
EB
330
1F
100
AcDbEntity
  8
0
  6
Continuous
 62
     7
370
    25
100
AcDbLine
 10
110.0
 20
-110.0
 30
0.0
 11
110.0
 21
110.0
 31
0.0
  0
LINE
  5
EC
330
1F
100
AcDbEntity
  8
0
  6
Continuous
 62
     7
370
    25
100
AcDbLine
 10
110.0
 20
110.0
 30
0.0
 11
-110.0
 21
110.0
 31
0.0
  0
SPLINE
  5
ED
330
1F
100
AcDbEntity
  8
0
  6
Continuous
 62
     7
370
    25
100
AcDbSpline
210
0.0
220
0.0
230
1.0
 70
     8
 71
     3
 72
    23
 73
    19
 74
     0
 42
0.00000001
 43
0.00000001
 40
0.0
 40
0.0
 40
0.0
 40
0.0
 40
0.0614842551968892
 40
0.1217745277022108
 40
0.1809195598139319
 40
0.2402561150782703
 40
0.3001144444023525
 40
0.3611459476126122
 40
0.4235005824125867
 40
0.4886693612807174
 40
0.5539541046535617
 40
0.6175812610152608
 40
0.6802384268167403
 40
0.7421873887724537
 40
0.8046632117692926
 40
0.868258989312663
 40
0.9330202571803756
 40
1.0
 40
1.0
 40
1.0
 40
1.0
 10
-43.92314670452806
 20
-101.5181512093121
 30
0.0
 10
-43.92474261140053
 20
-101.5943558102585
 30
0.0
 10
-43.92790343371235
 20
-101.7452851702918
 30
0.0
 10
-43.96423708146042
 20
-101.9669046427198
 30
0.0
 10
-44.01747055399812
 20
-102.1821510405237
 30
0.0
 10
-44.09770383644942
 20
-102.3883637421758
 30
0.0
 10
-44.19563150650917
 20
-102.5893153086928
 30
0.0
 10
-44.3198923941838
 20
-102.779734495405
 30
0.0
 10
-44.46392534283246
 20
-102.9638357491162
 30
0.0
 10
-44.6291502004574
 20
-103.1367099424072
 30
0.0
 10
-44.80994739179749
 20
-103.2954078469432
 30
0.0
 10
-45.00103636454996
 20
-103.436578424805
 30
0.0
 10
-45.20272988453287
 20
-103.5542872101936
 30
0.0
 10
-45.41393379647787
 20
-103.650339255172
 30
0.0
 10
-45.63469661419504
 20
-103.7254635120215
 30
0.0
 10
-45.86494408922169
 20
-103.779894765625
 30
0.0
 10
-46.10505575932633
 20
-103.8133014921292
 30
0.0
 10
-46.2682569288595
 20
-103.816768912829
 30
0.0
 10
-46.35123164042549
 20
-103.8185318182865
 30
0.0
  0
SPLINE
  5
EE
330
1F
100
AcDbEntity
  8
0
  6
Continuous
 62
     7
370
    25
100
AcDbSpline
210
0.0
220
0.0
230
1.0
 70
     8
 71
     3
 72
    23
 73
    19
 74
     0
 42
0.00000001
 43
0.00000001
 40
0.0
 40
0.0
 40
0.0
 40
0.0
 40
0.057208269433511
 40
0.1136960596574918
 40
0.1691779164171953
 40
0.2241592165805436
 40
0.2787198783810442
 40
0.3337942174469893
 40
0.3892414593400033
 40
0.4458220733936218
 40
0.5037042811090222
 40
0.5642938918193648
 40
0.6279754158952242
 40
0.6950382596840532
 40
0.7653727258510137
 40
0.8396114430907363
 40
0.9175377500777898
 40
1.0
 40
1.0
 40
1.0
 40
1.0
 10
-46.35123164042549
 20
-103.8185318182865
 30
0.0
 10
-46.41543175909356
 20
-103.8172903772642
 30
0.0
 10
-46.54302346208308
 20
-103.8148231298902
 30
0.0
 10
-46.73174648948938
 20
-103.7930114488649
 30
0.0
 10
-46.91665692039896
 20
-103.7621513401435
 30
0.0
 10
-47.09543446248183
 20
-103.7131571701994
 30
0.0
 10
-47.27038246218321
 20
-103.6537130830972
 30
0.0
 10
-47.44074003174624
 20
-103.5805199896444
 30
0.0
 10
-47.60658973396768
 20
-103.4928067861294
 30
0.0
 10
-47.76886100664794
 20
-103.3925188691741
 30
0.0
 10
-47.92714114492856
 20
-103.2758072038054
 30
0.0
 10
-48.07994556704147
 20
-103.1398715695983
 30
0.0
 10
-48.23228787471663
 20
-102.9884610574767
 30
0.0
 10
-48.37967155149761
 20
-102.8174639750268
 30
0.0
 10
-48.52507775909739
 20
-102.6296429166579
 30
0.0
 10
-48.66563961082893
 20
-102.4232406141213
 30
0.0
 10
-48.80426663947797
 20
-102.1993813264209
 30
0.0
 10
-48.8912470613443
 20
-102.04185183253
 30
0.0
 10
-48.93596721734858
 20
-101.9608595426454
 30
0.0
  0
LINE
  5
EF
330
1F
100
AcDbEntity
  8
0
  6
Continuous
 62
     7
370
    25
100
AcDbLine
 10
-48.9359672173
 20
-101.9608595426
 30
0.0
 11
-48.2174175379
 21
-101.5300702798
 31
0.0
  0
SPLINE
  5
F0
330
1F
100
AcDbEntity
  8
0
  6
Continuous
 62
     7
370
    25
100
AcDbSpline
210
0.0
220
0.0
230
1.0
 70
     8
 71
     3
 72
    15
 73
    11
 74
     0
 42
0.00000001
 43
0.00000001
 40
0.0
 40
0.0
 40
0.0
 40
0.0
 40
0.159004298517379
 40
0.3046460998968121
 40
0.4385469045795913
 40
0.5623222987759258
 40
0.67743254252573
 40
0.786897392938755
 40
0.8936108891042653
 40
0.9999999999999999
 40
0.9999999999999999
 40
0.9999999999999999
 40
0.9999999999999999
 10
-48.21741753786139
 20
-101.5300702798249
 30
0.0
 10
-48.15058753311009
 20
-101.6419409289822
 30
0.0
 10
-48.0225438230129
 20
-101.8562807756182
 30
0.0
 10
-47.80894766507114
 20
-102.1459074452309
 30
0.0
 10
-47.58762488081104
 20
-102.3920726830742
 30
0.0
 10
-47.35693649933383
 20
-102.5933444442424
 30
0.0
 10
-47.11829062532235
 20
-102.7518060263437
 30
0.0
 10
-46.87012935196179
 20
-102.8640114462316
 30
0.0
 10
-46.61328895451971
 20
-102.9339931007049
 30
0.0
 10
-46.43849538806969
 20
-102.9424933109091
 30
0.0
 10
-46.3512316404255
 20
-102.9467369464916
 30
0.0
  0
SPLINE
  5
F1
330
1F
100
AcDbEntity
  8
0
  6
Continuous
 62
     7
370
    25
100
AcDbSpline
210
0.0
220
0.0
230
1.0
 70
     8
 71
     3
 72
    19
 73
    15
 74
     0
 42
0.00000001
 43
0.00000001
 40
0.0
 40
0.0
 40
0.0
 40
0.0
 40
0.0912636048966267
 40
0.1809303110850818
 40
0.270088219831722
 40
0.3601561333877276
 40
0.4483425324981528
 40
0.5326658421383298
 40
0.6138337041070484
 40
0.6939815272835574
 40
0.7727159770890065
 40
0.8493351720622493
 40
0.9239673265752361
 40
1.0
 40
1.0
 40
1.0
 40
1.0
 10
-46.3512316404255
 20
-102.9467369464916
 30
0.0
 10
-46.27670640775472
 20
-102.9446613132477
 30
0.0
 10
-46.12895995892571
 20
-102.9405463654658
 30
0.0
 10
-45.9114516545916
 20
-102.9010072747745
 30
0.0
 10
-45.70021013480259
 20
-102.8402635331275
 30
0.0
 10
-45.499589157457
 20
-102.7532698423211
 30
0.0
 10
-45.31235695073758
 20
-102.6480192341319
 30
0.0
 10
-45.14816926206288
 20
-102.5208928030427
 30
0.0
 10
-45.00622870148415
 20
-102.3785634463095
 30
0.0
 10
-44.8901208518211
 20
-102.219776999322
 30
0.0
 10
-44.80104076612078
 20
-102.0490067812756
 30
0.0
 10
-44.73257431426011
 20
-101.8737223280255
 30
0.0
 10
-44.69457913538032
 20
-101.6911700907765
 30
0.0
 10
-44.68885559127124
 20
-101.5682589667176
 30
0.0
 10
-44.68596721734857
 20
-101.5062321387993
 30
0.0
  0
SPLINE
  5
F2
330
1F
100
AcDbEntity
  8
0
  6
Continuous
 62
     7
370
    25
100
AcDbSpline
210
0.0
220
0.0
230
1.0
 70
     8
 71
     3
 72
    11
 73
     7
 74
     0
 42
0.00000001
 43
0.00000001
 40
0.0
 40
0.0
 40
0.0
 40
0.0
 40
0.2347233736739025
 40
0.4771583189289897
 40
0.7285562842030479
 40
0.9999999999999999
 40
0.9999999999999999
 40
0.9999999999999999
 40
0.9999999999999999
 10
-44.68596721734857
 20
-101.5062321387993
 30
0.0
 10
-44.68954768618971
 20
-101.4354615037954
 30
0.0
 10
-44.69682625613559
 20
-101.291595144432
 30
0.0
 10
-44.75834556488304
 20
-101.079338844401
 30
0.0
 10
-44.8551223072171
 20
-100.8692854600563
 30
0.0
 10
-44.94440301335775
 20
-100.7393538150818
 30
0.0
 10
-44.99075487760499
 20
-100.6718972029018
 30
0.0
  0
SPLINE
  5
F3
330
1F
100
AcDbEntity
  8
0
  6
Continuous
 62
     7
370
    25
100
AcDbSpline
210
0.0
220
0.0
230
1.0
 70
     8
 71
     3
 72
    15
 73
    11
 74
     0
 42
0.00000001
 43
0.00000001
 40
0.0
 40
0.0
 40
0.0
 40
0.0
 40
0.0902792146500121
 40
0.1895299184469577
 40
0.2991978724002876
 40
0.4189258867738174
 40
0.5483762854012444
 40
0.6881363695386811
 40
0.8390835016589199
 40
1.0
 40
1.0
 40
1.0
 40
1.0
 10
-44.99075487760499
 20
-100.6718972029018
 30
0.0
 10
-45.02881208347215
 20
-100.6232120598652
 30
0.0
 10
-45.10870842674765
 20
-100.5210036919136
 30
0.0
 10
-45.24606238590215
 20
-100.3688652629019
 30
0.0
 10
-45.4072372349295
 20
-100.2119348168754
 30
0.0
 10
-45.58671729685787
 20
-100.0442199642843
 30
0.0
 10
-45.79104051261362
 20
-99.87352102947037
 30
0.0
 10
-46.01380733330699
 20
-99.69169806876157
 30
0.0
 10
-46.26070527651043
 20
-99.50566566736242
 30
0.0
 10
-46.43386119686843
 20
-99.38090372246369
 30
0.0
 10
-46.5232068006819
 20
-99.31652861315824
 30
0.0
  0
SPLINE
  5
F4
330
1F
100
AcDbEntity
  8
0
  6
Continuous
 62
     7
370
    25
100
AcDbSpline
210
0.0
220
0.0
230
1.0
 70
     8
 71
     3
 72
    15
 73
    11
 74
     0
 42
0.00000001
 43
0.00000001
 40
0.0
 40
0.0
 40
0.0
 40
0.0
 40
0.1815353013762892
 40
0.3470816724816305
 40
0.4955678164315537
 40
0.628357301877218
 40
0.7455196699921551
 40
0.8458307507576545
 40
0.9307818073847577
 40
0.9999999999999999
 40
0.9999999999999999
 40
0.9999999999999999
 40
0.9999999999999999
 10
-46.5232068006819
 20
-99.31652861315824
 30
0.0
 10
-46.61263650568819
 20
-99.25283061465417
 30
0.0
 10
-46.78361929166862
 20
-99.13104489205962
 30
0.0
 10
-47.02273299165266
 20
-98.95030020231225
 30
0.0
 10
-47.23655525896245
 20
-98.78505080485336
 30
0.0
 10
-47.42413572766191
 20
-98.63374106117578
 30
0.0
 10
-47.58539189143094
 20
-98.49635044968895
 30
0.0
 10
-47.72159446103669
 20
-98.3741983117722
 30
0.0
 10
-47.82927381398308
 20
-98.26398109252052
 30
0.0
 10
-47.8891516527252
 20
-98.1924806911394
 30
0.0
 10
-47.91603532632293
 20
-98.16037877341468
 30
0.0
  0
SPLINE
  5
F5
330
1F
100
AcDbEntity
  8
0
  6
Continuous
 62
     7
370
    25
100
AcDbSpline
210
0.0
220
0.0
230
1.0
 70
     8
 71
     3
 72
    15
 73
    11
 74
     0
 42
0.00000001
 43
0.00000001
 40
0.0
 40
0.0
 40
0.0
 40
0.0
 40
0.133506768998513
 40
0.2625589787303652
 40
0.3882644471488758
 40
0.512667354681422
 40
0.6337222699657616
 40
0.7553938601370905
 40
0.8775529450912783
 40
1.0
 40
1.0
 40
1.0
 40
1.0
 10
-47.91603532632293
 20
-98.16037877341466
 30
0.0
 10
-47.95361150759857
 20
-98.11034768391163
 30
0.0
 10
-48.02751011105015
 20
-98.01195483189946
 30
0.0
 10
-48.12505612432251
 20
-97.85816589160646
 30
0.0
 10
-48.20796551969001
 20
-97.70073796132688
 30
0.0
 10
-48.27295975487801
 20
-97.5392480045272
 30
0.0
 10
-48.32769057205984
 20
-97.3759631772458
 30
0.0
 10
-48.3645026895173
 20
-97.20875300911814
 30
0.0
 10
-48.38755322488418
 20
-97.03836779284725
 30
0.0
 10
-48.38991376360745
 20
-96.92370643419257
 30
0.0
 10
-48.39109542247678
 20
-96.86630826059414
 30
0.0
  0
SPLINE
  5
F6
330
1F
100
AcDbEntity
  8
0
  6
Continuous
 62
     7
370
    25
100
AcDbSpline
210
0.0
220
0.0
230
1.0
 70
     8
 71
     3
 72
    19
 73
    15
 74
     0
 42
0.00000001
 43
0.00000001
 40
0.0
 40
0.0
 40
0.0
 40
0.0
 40
0.083785370653708
 40
0.165779887922141
 40
0.2462800078932615
 40
0.3274609277363906
 40
0.4087969540320655
 40
0.4897152412309875
 40
0.5713760321300521
 40
0.6555233211112771
 40
0.7410194827999751
 40
0.8265467605037612
 40
0.9119888516548338
 40
0.9999999999999999
 40
0.9999999999999999
 40
0.9999999999999999
 40
0.9999999999999999
 10
-48.39109542247679
 20
-96.86630826059415
 30
0.0
 10
-48.38792562920717
 20
-96.7763788080799
 30
0.0
 10
-48.3816537947703
 20
-96.59844208186625
 30
0.0
 10
-48.32861253854213
 20
-96.33851006507827
 30
0.0
 10
-48.2448926539527
 20
-96.09034305183566
 30
0.0
 10
-48.12760506914596
 20
-95.85639795564698
 30
0.0
 10
-47.97640864063028
 20
-95.64276628777564
 30
0.0
 10
-47.8014398457433
 20
-95.44699067653357
 30
0.0
 10
-47.59304052202377
 20
-95.28240983399715
 30
0.0
 10
-47.36438415124118
 20
-95.13860912076619
 30
0.0
 10
-47.11410439046897
 20
-95.02605473097759
 30
0.0
 10
-46.85184076793185
 20
-94.941149493445
 30
0.0
 10
-46.57717645015639
 20
-94.8930412961955
 30
0.0
 10
-46.39114026607097
 20
-94.88613743855052
 30
0.0
 10
-46.29674446093831
 20
-94.88263438238901
 30
0.0
  0
SPLINE
  5
F7
330
1F
100
AcDbEntity
  8
0
  6
Continuous
 62
     7
370
    25
100
AcDbSpline
210
0.0
220
0.0
230
1.0
 70
     8
 71
     3
 72
    19
 73
    15
 74
     0
 42
0.00000001
 43
0.00000001
 40
0.0
 40
0.0
 40
0.0
 40
0.0
 40
0.1072327993600892
 40
0.2132518127818493
 40
0.3188304473075876
 40
0.4267935306342761
 40
0.4836459507827223
 40
0.5436038220211437
 40
0.6083076495640856
 40
0.6771267602600413
 40
0.7506856360204962
 40
0.8287134184432869
 40
0.9121903482234528
 40
1.0
 40
1.0
 40
1.0
 40
1.0
 10
-46.29674446093831
 20
-94.88263438238901
 30
0.0
 10
-46.19658021735743
 20
-94.88608915055843
 30
0.0
 10
-45.99738550597236
 20
-94.89295958180028
 30
0.0
 10
-45.70438026816061
 20
-94.95269644357683
 30
0.0
 10
-45.4222756711877
 20
-95.05154093220476
 30
0.0
 10
-45.19534202805465
 20
-95.16371338729314
 30
0.0
 10
-45.01773389307593
 20
-95.27574682545395
 30
0.0
 10
-44.88228582797424
 20
-95.37779497013116
 30
0.0
 10
-44.74502916177828
 20
-95.49527737674133
 30
0.0
 10
-44.60485674290846
 20
-95.62850697436618
 30
0.0
 10
-44.46414371284192
 20
-95.77870622701236
 30
0.0
 10
-44.32080104310613
 20
-95.9448464715062
 30
0.0
 10
-44.1744935331373
 20
-96.12591239289115
 30
0.0
 10
-44.08037215855067
 20
-96.2551718947235
 30
0.0
 10
-44.03212106350242
 20
-96.32143646572236
 30
0.0
  0
LINE
  5
F8
330
1F
100
AcDbEntity
  8
0
  6
Continuous
 62
     7
370
    25
100
AcDbLine
 10
-44.0321210635
 20
-96.3214364657
 30
0.0
 11
-44.7217244289
 21
-96.8441728439
 31
0.0
  0
SPLINE
  5
F9
330
1F
100
AcDbEntity
  8
0
  6
Continuous
 62
     7
370
    25
100
AcDbSpline
210
0.0
220
0.0
230
1.0
 70
     8
 71
     3
 72
    19
 73
    15
 74
     0
 42
0.00000001
 43
0.00000001
 40
0.0
 40
0.0
 40
0.0
 40
0.0
 40
0.0984694310255575
 40
0.189629101137629
 40
0.2741840894379699
 40
0.3521831609671546
 40
0.4231988731834715
 40
0.4885509460005341
 40
0.5484733460279372
 40
0.6014401636178737
 40
0.7011980824257672
 40
0.7995918021381848
 40
0.8985450984822291
 40
1.0
 40
1.0
 40
1.0
 40
1.0
 10
-44.72172442888704
 20
-96.8441728439275
 30
0.0
 10
-44.76336455060552
 20
-96.79052888147257
 30
0.0
 10
-44.84355368920922
 20
-96.68722315221382
 30
0.0
 10
-44.96529672872761
 20
-96.54254995716994
 30
0.0
 10
-45.08004344510545
 20
-96.41039564973532
 30
0.0
 10
-45.19309441600996
 20
-96.29560891023377
 30
0.0
 10
-45.29847894957005
 20
-96.19190372927032
 30
0.0
 10
-45.40076319502695
 20
-96.1031157484109
 30
0.0
 10
-45.49847519088922
 20
-96.02837501665215
 30
0.0
 10
-45.62164483102959
 20
-95.94861208532272
 30
0.0
 10
-45.77638786124308
 20
-95.86954629097549
 30
0.0
 10
-45.97063602068141
 20
-95.80264138707243
 30
0.0
 10
-46.17363126005206
 20
-95.76243623669822
 30
0.0
 10
-46.31188893652945
 20
-95.75712036689067
 30
0.0
 10
-46.38188067888703
 20
-95.75442925418389
 30
0.0
  0
SPLINE
  5
FA
330
1F
100
AcDbEntity
  8
0
  6
Continuous
 62
     7
370
    25
100
AcDbSpline
210
0.0
220
0.0
230
1.0
 70
     8
 71
     3
 72
    15
 73
    11
 74
     0
 42
0.00000001
 43
0.00000001
 40
0.0
 40
0.0
 40
0.0
 40
0.0
 40
0.1430730837303623
 40
0.2759029640930125
 40
0.4023708562739967
 40
0.5284136450935962
 40
0.6503563791869521
 40
0.7658950861246971
 40
0.8807741308440252
 40
1.0
 40
1.0
 40
1.0
 40
1.0
 10
-46.38188067888703
 20
-95.75442925418389
 30
0.0
 10
-46.46968937615746
 20
-95.75737195406703
 30
0.0
 10
-46.63902017702087
 20
-95.76304667358121
 30
0.0
 10
-46.87942503613923
 20
-95.82502378071807
 30
0.0
 10
-47.09579599700712
 20
-95.9226082986037
 30
0.0
 10
-47.28170936928647
 20
-96.05937324540749
 30
0.0
 10
-47.4364991706767
 20
-96.22140994192844
 30
0.0
 10
-47.54846957053432
 20
-96.40787287568187
 30
0.0
 10
-47.61586282730359
 20
-96.61377299629288
 30
0.0
 10
-47.62408664931326
 20
-96.75740273309847
 30
0.0
 10
-47.62827490965626
 20
-96.83055104905567
 30
0.0
  0
SPLINE
  5
FB
330
1F
100
AcDbEntity
  8
0
  6
Continuous
 62
     7
370
    25
100
AcDbSpline
210
0.0
220
0.0
230
1.0
 70
     8
 71
     3
 72
    15
 73
    11
 74
     0
 42
0.00000001
 43
0.00000001
 40
0.0
 40
0.0
 40
0.0
 40
0.0
 40
0.1072852142689634
 40
0.2147458609696381
 40
0.3229385595552916
 40
0.4341161625174723
 40
0.5534123109627965
 40
0.6860729848107335
 40
0.8342559920595853
 40
1.0
 40
1.0
 40
1.0
 40
1.0
 10
-47.62827490965626
 20
-96.83055104905567
 30
0.0
 10
-47.62732017354291
 20
-96.8760903540825
 30
0.0
 10
-47.62540914013482
 20
-96.9672434298589
 30
0.0
 10
-47.59875606003935
 20
-97.10191116888998
 30
0.0
 10
-47.5645148325703
 20
-97.23623870747807
 30
0.0
 10
-47.51025415545485
 20
-97.36962212293248
 30
0.0
 10
-47.43534413238795
 20
-97.50439413777367
 30
0.0
 10
-47.3369744194725
 20
-97.64287550041587
 30
0.0
 10
-47.21308494735112
 20
-97.78628679290532
 30
0.0
 10
-47.11818363164053
 20
-97.87956184350152
 30
0.0
 10
-47.06807859555369
 20
-97.92880826059415
 30
0.0
  0
SPLINE
  5
FC
330
1F
100
AcDbEntity
  8
0
  6
Continuous
 62
     7
370
    25
100
AcDbSpline
210
0.0
220
0.0
230
1.0
 70
     8
 71
     3
 72
    15
 73
    11
 74
     0
 42
0.00000001
 43
0.00000001
 40
0.0
 40
0.0
 40
0.0
 40
0.0
 40
0.052594281529131
 40
0.1249519739750367
 40
0.2180938989285938
 40
0.3335024107325206
 40
0.4687891785044454
 40
0.6249375859645954
 40
0.8016830479282273
 40
1.0
 40
1.0
 40
1.0
 40
1.0
 10
-47.0680785955537
 20
-97.92880826059417
 30
0.0
 10
-47.04947240542074
 20
-97.94541246614688
 30
0.0
 10
-47.00526835665964
 20
-97.9848602578036
 30
0.0
 10
-46.92445539414906
 20
-98.04944151079562
 30
0.0
 10
-46.8177371698763
 20
-98.12910538636976
 30
0.0
 10
-46.68790039558969
 20
-98.22767458352286
 30
0.0
 10
-46.53255108853828
 20
-98.34201527723623
 30
0.0
 10
-46.35167216647281
 20
-98.47066547820549
 30
0.0
 10
-46.14727987244511
 20
-98.61780159293644
 30
0.0
 10
-46.00224093383182
 20
-98.7206699058463
 30
0.0
 10
-45.9255505506819
 20
-98.7750622670044
 30
0.0
  0
SPLINE
  5
FD
330
1F
100
AcDbEntity
  8
0
  6
Continuous
 62
     7
370
    25
100
AcDbSpline
210
0.0
220
0.0
230
1.0
 70
     8
 71
     3
 72
    19
 73
    15
 74
     0
 42
0.00000001
 43
0.00000001
 40
0.0
 40
0.0
 40
0.0
 40
0.0
 40
0.0969723103815153
 40
0.1877734389628691
 40
0.2723961390136943
 40
0.3513209973752898
 40
0.4243347744514689
 40
0.4919087840005268
 40
0.5542332197967995
 40
0.6112676582441549
 40
0.7163478449915525
 40
0.8145400858216157
 40
0.9084954561491856
 40
1.0
 40
1.0
 40
1.0
 40
1.0
 10
-45.9255505506819
 20
-98.7750622670044
 30
0.0
 10
-45.83329904693532
 20
-98.84219128305372
 30
0.0
 10
-45.65466679573041
 20
-98.97217731873937
 30
0.0
 10
-45.40049838737389
 20
-99.1674725416632
 30
0.0
 10
-45.17004199628637
 20
-99.35847426534357
 30
0.0
 10
-44.9624885019017
 20
-99.54396273971984
 30
0.0
 10
-44.77578743854797
 20
-99.7225309655858
 30
0.0
 10
-44.61201011690918
 20
-99.89632726067339
 30
0.0
 10
-44.46948775035175
 20
-100.0641065086159
 30
0.0
 10
-44.31605250551996
 20
-100.2792113352945
 30
0.0
 10
-44.15926922954163
 20
-100.5433939685322
 30
0.0
 10
-44.02462556864961
 20
-100.8670696907136
 30
0.0
 10
-43.93972672483141
 20
-101.1920036119205
 30
0.0
 10
-43.92862447306807
 20
-101.4103973576456
 30
0.0
 10
-43.92314670452806
 20
-101.5181512093121
 30
0.0
  0
SPLINE
  5
FE
330
1F
100
AcDbEntity
  8
0
  6
Continuous
 62
     7
370
    25
100
AcDbSpline
210
0.0
220
0.0
230
1.0
 70
     8
 71
     3
 72
    15
 73
    11
 74
     0
 42
0.00000001
 43
0.00000001
 40
0.0
 40
0.0
 40
0.0
 40
0.0
 40
0.0781298651584268
 40
0.1694654174977314
 40
0.2743352908540815
 40
0.39211016335392
 40
0.5236873298575218
 40
0.6683654211389648
 40
0.8271319021257845
 40
1.0
 40
1.0
 40
1.0
 40
1.0
 10
-55.54083500581011
 20
-102.0255630682864
 30
0.0
 10
-55.5534081042334
 20
-101.9803125303383
 30
0.0
 10
-55.58067943471919
 20
-101.8821631057894
 30
0.0
 10
-55.60988372899938
 20
-101.7197244907213
 30
0.0
 10
-55.63443435584293
 20
-101.5326882621419
 30
0.0
 10
-55.65751928295161
 20
-101.3210416175339
 30
0.0
 10
-55.67114103798932
 20
-101.0846205129277
 30
0.0
 10
-55.68308338910897
 20
-100.8235274315306
 30
0.0
 10
-55.69246160618629
 20
-100.5374466674354
 30
0.0
 10
-55.69240630177773
 20
-100.3381714152213
 30
0.0
 10
-55.69237747375882
 20
-100.2342970426454
 30
0.0
  0
LINE
  5
FF
330
1F
100
AcDbEntity
  8
0
  6
Continuous
 62
     7
370
    25
100
AcDbLine
 10
-55.6923774738
 20
-100.2342970426
 30
0.0
 11
-55.6923774738
 21
-95.1005831003
 31
0.0
  0
LINE
  5
100
330
1F
100
AcDbEntity
  8
0
  6
Continuous
 62
     7
370
    25
100
AcDbLine
 10
-55.6923774738
 20
-95.1005831003
 30
0.0
 11
-54.9295569609
 21
-95.1005831003
 31
0.0
  0
LINE
  5
101
330
1F
100
AcDbEntity
  8
0
  6
Continuous
 62
     7
370
    25
100
AcDbLine
 10
-54.9295569609
 20
-95.1005831003
 30
0.0
 11
-54.9295569609
 21
-100.193431658
 31
0.0
  0
SPLINE
  5
102
330
1F
100
AcDbEntity
  8
0
  6
Continuous
 62
     7
370
    25
100
AcDbSpline
210
0.0
220
0.0
230
1.0
 70
     8
 71
     3
 72
    15
 73
    11
 74
     0
 42
0.00000001
 43
0.00000001
 40
0.0
 40
0.0
 40
0.0
 40
0.0
 40
0.1910785917157191
 40
0.3626045563099698
 40
0.5160987502785522
 40
0.6500380260398397
 40
0.7659767209867929
 40
0.8623740257993813
 40
0.9408420582211775
 40
1.0
 40
1.0
 40
1.0
 40
1.0
 10
-54.92955696093831
 20
-100.1934316580301
 30
0.0
 10
-54.92967048201496
 20
-100.2655134448386
 30
0.0
 10
-54.92988590782099
 20
-100.4023010571456
 30
0.0
 10
-54.92844694556191
 20
-100.5969955012892
 30
0.0
 10
-54.92441705084404
 20
-100.7700857589863
 30
0.0
 10
-54.92187637763105
 20
-100.9222390316519
 30
0.0
 10
-54.91622428190291
 20
-101.0527571326234
 30
0.0
 10
-54.91161473943153
 20
-101.1623471728557
 30
0.0
 10
-54.90568767313867
 20
-101.2504902359594
 30
0.0
 10
-54.89856438778225
 20
-101.3019296277974
 30
0.0
 10
-54.89550247375884
 20
-101.324040632389
 30
0.0
  0
SPLINE
  5
103
330
1F
100
AcDbEntity
  8
0
  6
Continuous
 62
     7
370
    25
100
AcDbSpline
210
0.0
220
0.0
230
1.0
 70
     8
 71
     3
 72
    19
 73
    15
 74
     0
 42
0.00000001
 43
0.00000001
 40
0.0
 40
0.0
 40
0.0
 40
0.0
 40
0.0863150037405913
 40
0.1677664659179396
 40
0.2444326843848592
 40
0.3181346623514539
 40
0.391884106979964
 40
0.4700680503917545
 40
0.5539041787139085
 40
0.6443394983098191
 40
0.736874663334508
 40
0.8261683643076446
 40
0.9136785948895789
 40
1.0
 40
1.0
 40
1.0
 40
1.0
 10
-54.89550247375884
 20
-101.324040632389
 30
0.0
 10
-54.88292864523177
 20
-101.4038113433856
 30
0.0
 10
-54.85848947841686
 20
-101.5588579712912
 30
0.0
 10
-54.79620541810324
 20
-101.7796352272008
 30
0.0
 10
-54.70922005852901
 20
-101.9786116258739
 30
0.0
 10
-54.60614409762264
 20
-102.1619961900029
 30
0.0
 10
-54.47030775577171
 20
-102.3246846358256
 30
0.0
 10
-54.30758488438531
 20
-102.4745557926059
 30
0.0
 10
-54.1104388750957
 20
-102.6056301753079
 30
0.0
 10
-53.89123454703202
 20
-102.7254821468733
 30
0.0
 10
-53.65497039878144
 20
-102.8218116326209
 30
0.0
 10
-53.41354303764284
 20
-102.8946526603048
 30
0.0
 10
-53.17058151683749
 20
-102.9390442740406
 30
0.0
 10
-53.00792511592718
 20
-102.944184440117
 30
0.0
 10
-52.92715311478447
 20
-102.9467369464916
 30
0.0
  0
SPLINE
  5
104
330
1F
100
AcDbEntity
  8
0
  6
Continuous
 62
     7
370
    25
100
AcDbSpline
210
0.0
220
0.0
230
1.0
 70
     8
 71
     3
 72
    19
 73
    15
 74
     0
 42
0.00000001
 43
0.00000001
 40
0.0
 40
0.0
 40
0.0
 40
0.0
 40
0.0828906475568666
 40
0.1653025405594697
 40
0.2477618761145881
 40
0.3315277110597994
 40
0.4152798127751534
 40
0.4963662304840478
 40
0.5771513480211465
 40
0.6577825401388799
 40
0.7393216419943445
 40
0.8237930816663169
 40
0.9094759533791156
 40
1.0
 40
1.0
 40
1.0
 40
1.0
 10
-52.92715311478447
 20
-102.9467369464916
 30
0.0
 10
-52.85780831668809
 20
-102.944129024379
 30
0.0
 10
-52.71951923778989
 20
-102.9389282428254
 30
0.0
 10
-52.51404647754561
 20
-102.9067219103253
 30
0.0
 10
-52.3139319279663
 20
-102.8486776793864
 30
0.0
 10
-52.11818741961994
 20
-102.7737811232268
 30
0.0
 10
-51.93470645745808
 20
-102.67482268771
 30
0.0
 10
-51.76338666971592
 20
-102.5605077918487
 30
0.0
 10
-51.61047425801835
 20
-102.4264242358055
 30
0.0
 10
-51.4709334061403
 20
-102.2780376848022
 30
0.0
 10
-51.34941999049832
 20
-102.1106124563104
 30
0.0
 10
-51.24409007517981
 20
-101.9277941210488
 30
0.0
 10
-51.15781281746928
 20
-101.7268314214768
 30
0.0
 10
-51.11520711428774
 20
-101.5855992531555
 30
0.0
 10
-51.09331898016908
 20
-101.5130430362352
 30
0.0
  0
SPLINE
  5
105
330
1F
100
AcDbEntity
  8
0
  6
Continuous
 62
     7
370
    25
100
AcDbSpline
210
0.0
220
0.0
230
1.0
 70
     8
 71
     3
 72
    15
 73
    11
 74
     0
 42
0.00000001
 43
0.00000001
 40
0.0
 40
0.0
 40
0.0
 40
0.0
 40
0.06983510391543
 40
0.1556207549116627
 40
0.2578015566582763
 40
0.373811234066374
 40
0.5064024926743752
 40
0.655564458143109
 40
0.8200792824038529
 40
1.0
 40
1.0
 40
1.0
 40
1.0
 10
-51.09331898016908
 20
-101.5130430362352
 30
0.0
 10
-51.08603296159543
 20
-101.4830536414028
 30
0.0
 10
-51.06979677596443
 20
-101.4162251840584
 30
0.0
 10
-51.05462538099837
 20
-101.3032449069973
 30
0.0
 10
-51.03882381927442
 20
-101.1699421659349
 30
0.0
 10
-51.02785986355794
 20
-101.0153591919667
 30
0.0
 10
-51.01717118540877
 20
-100.8400139727847
 30
0.0
 10
-51.01077658004612
 20
-100.6429930617536
 30
0.0
 10
-51.00782092865892
 20
-100.4250118712122
 30
0.0
 10
-51.00694013351232
 20
-100.2728930497569
 30
0.0
 10
-51.00648003786139
 20
-100.1934316580301
 30
0.0
  0
LINE
  5
106
330
1F
100
AcDbEntity
  8
0
  6
Continuous
 62
     7
370
    25
100
AcDbLine
 10
-51.0064800379
 20
-100.193431658
 30
0.0
 11
-51.0064800379
 21
-95.1005831003
 31
0.0
  0
LINE
  5
107
330
1F
100
AcDbEntity
  8
0
  6
Continuous
 62
     7
370
    25
100
AcDbLine
 10
-51.0064800379
 20
-95.1005831003
 30
0.0
 11
-50.243659525
 21
-95.1005831003
 31
0.0
  0
LINE
  5
108
330
1F
100
AcDbEntity
  8
0
  6
Continuous
 62
     7
370
    25
100
AcDbLine
 10
-50.243659525
 20
-95.1005831003
 30
0.0
 11
-50.243659525
 21
-100.2342970426
 31
0.0
  0
SPLINE
  5
109
330
1F
100
AcDbEntity
  8
0
  6
Continuous
 62
     7
370
    25
100
AcDbSpline
210
0.0
220
0.0
230
1.0
 70
     8
 71
     3
 72
    31
 73
    27
 74
     0
 42
0.00000001
 43
0.00000001
 40
0.0
 40
0.0
 40
0.0
 40
0.0
 40
0.0548580354451543
 40
0.1070587915426411
 40
0.1569783545765241
 40
0.2039922771829756
 40
0.2484915357868476
 40
0.2904833137405239
 40
0.3304890042981904
 40
0.3678859257629624
 40
0.4038581313538698
 40
0.4400093433074111
 40
0.4762950107796833
 40
0.5127922945733497
 40
0.5504848246303717
 40
0.5883811157748436
 40
0.6276453271698532
 40
0.6679794644543823
 40
0.7084327575000842
 40
0.7486023022886346
 40
0.7890877771957816
 40
0.8294612046317068
 40
0.8703710453051796
 40
0.9122142271494424
 40
0.9555465749316862
 40
1.0
 40
1.0
 40
1.0
 40
1.0
 10
-50.24365952504088
 20
-100.2342970426454
 30
0.0
 10
-50.24427667454609
 20
-100.3268216772352
 30
0.0
 10
-50.24548107932826
 20
-100.5073891271399
 30
0.0
 10
-50.25592533653557
 20
-100.7719852847697
 30
0.0
 10
-50.27257805046228
 20
-101.0229853822293
 30
0.0
 10
-50.29610626411364
 20
-101.2604231595106
 30
0.0
 10
-50.32728184324095
 20
-101.4834489748164
 30
0.0
 10
-50.36195023589511
 20
-101.6940176975281
 30
0.0
 10
-50.4061005304622
 20
-101.890617822528
 30
0.0
 10
-50.45766736190708
 20
-102.0747822653813
 30
0.0
 10
-50.51661740713939
 20
-102.2500899408151
 30
0.0
 10
-50.59297448168149
 20
-102.4164680049988
 30
0.0
 10
-50.67900541008984
 20
-102.5789744041006
 30
0.0
 10
-50.78104099573272
 20
-102.7351512399567
 30
0.0
 10
-50.8956972107223
 20
-102.8856900118622
 30
0.0
 10
-51.02550843539422
 20
-103.0296777654573
 30
0.0
 10
-51.16618139756525
 20
-103.1694154492671
 30
0.0
 10
-51.32005461373086
 20
-103.3013186099238
 30
0.0
 10
-51.48459160364004
 20
-103.4222825395079
 30
0.0
 10
-51.65930292938128
 20
-103.5286485549972
 30
0.0
 10
-51.84284651306604
 20
-103.6185630545941
 30
0.0
 10
-52.03474524793926
 20
-103.6925760138539
 30
0.0
 10
-52.23508102638481
 20
-103.7482257547625
 30
0.0
 10
-52.44385890000043
 20
-103.7896939902307
 30
0.0
 10
-52.66155408376441
 20
-103.8132567128267
 30
0.0
 10
-52.80961110595964
 20
-103.8167585429719
 30
0.0
 10
-52.88458500581011
 20
-103.8185318182865
 30
0.0
  0
SPLINE
  5
10A
330
1F
100
AcDbEntity
  8
0
  6
Continuous
 62
     7
370
    25
100
AcDbSpline
210
0.0
220
0.0
230
1.0
 70
     8
 71
     3
 72
    23
 73
    19
 74
     0
 42
0.00000001
 43
0.00000001
 40
0.0
 40
0.0
 40
0.0
 40
0.0
 40
0.0711745037456343
 40
0.1396441217506243
 40
0.2063172239119625
 40
0.2713732401918836
 40
0.335418083916312
 40
0.3980763446528608
 40
0.4606079146322824
 40
0.5229695111172319
 40
0.584715724092457
 40
0.6448949403163613
 40
0.7042905608207907
 40
0.7629981899193218
 40
0.8210874309038739
 40
0.8801038914766978
 40
0.9393884881896689
 40
1.0
 40
1.0
 40
1.0
 40
1.0
 10
-52.88458500581011
 20
-103.8185318182865
 30
0.0
 10
-52.96635282642944
 20
-103.8166259597878
 30
0.0
 10
-53.12678099799292
 20
-103.8128866722309
 30
0.0
 10
-53.36317344710086
 20
-103.7914599933488
 30
0.0
 10
-53.58979363811295
 20
-103.7511010357261
 30
0.0
 10
-53.80903505374494
 20
-103.6997126009703
 30
0.0
 10
-54.01791283250135
 20
-103.6288378104369
 30
0.0
 10
-54.2192254831428
 20
-103.5460280786336
 30
0.0
 10
-54.40952513728848
 20
-103.4443261608036
 30
0.0
 10
-54.59189902106869
 20
-103.3311707777554
 30
0.0
 10
-54.76147342887668
 20
-103.2038537993457
 30
0.0
 10
-54.91713855070952
 20
-103.0650848054654
 30
0.0
 10
-55.05915137928859
 20
-102.9170867460766
 30
0.0
 10
-55.1851182132768
 20
-102.7582572863535
 30
0.0
 10
-55.29712607582898
 20
-102.5898317122011
 30
0.0
 10
-55.39361373695105
 20
-102.411333558379
 30
0.0
 10
-55.47646018695698
 20
-102.2228319334326
 30
0.0
 10
-55.51921899266897
 20
-102.0918027324487
 30
0.0
 10
-55.54083500581011
 20
-102.0255630682864
 30
0.0
  0
LINE
  5
10B
330
1F
100
AcDbEntity
  8
0
  6
Continuous
 62
     7
370
    25
100
AcDbLine
 10
-66.1539159353
 20
-103.6005831003
 30
0.0
 11
-66.9167364481
 21
-103.6005831003
 31
0.0
  0
LINE
  5
10C
330
1F
100
AcDbEntity
  8
0
  6
Continuous
 62
     7
370
    25
100
AcDbLine
 10
-66.9167364481
 20
-103.6005831003
 30
0.0
 11
-66.9167364481
 21
-97.3890446388
 31
0.0
  0
LINE
  5
10D
330
1F
100
AcDbEntity
  8
0
  6
Continuous
 62
     7
370
    25
100
AcDbLine
 10
-66.9167364481
 20
-97.3890446388
 30
0.0
 11
-66.1539159353
 21
-97.3890446388
 31
0.0
  0
LINE
  5
10E
330
1F
100
AcDbEntity
  8
0
  6
Continuous
 62
     7
370
    25
100
AcDbLine
 10
-66.1539159353
 20
-97.3890446388
 30
0.0
 11
-66.1539159353
 21
-98.4685718824
 31
0.0
  0
SPLINE
  5
10F
330
1F
100
AcDbEntity
  8
0
  6
Continuous
 62
     7
370
    25
100
AcDbSpline
210
0.0
220
0.0
230
1.0
 70
     8
 71
     3
 72
    11
 73
     7
 74
     0
 42
0.00000001
 43
0.00000001
 40
0.0
 40
0.0
 40
0.0
 40
0.0
 40
0.2835948081386919
 40
0.5433948405759648
 40
0.7806456291745562
 40
1.0
 40
1.0
 40
1.0
 40
1.0
 10
-66.15391593529729
 20
-98.46857188238901
 30
0.0
 10
-66.08522634264851
 20
-98.37413056390226
 30
0.0
 10
-65.95361049787482
 20
-98.19317194360973
 30
0.0
 10
-65.73779391325056
 20
-97.95470982475094
 30
0.0
 10
-65.52219478294403
 20
-97.75234144916232
 30
0.0
 10
-65.36692799864981
 20
-97.64610876098051
 30
0.0
 10
-65.29233740965626
 20
-97.59507428623516
 30
0.0
  0
SPLINE
  5
110
330
1F
100
AcDbEntity
  8
0
  6
Continuous
 62
     7
370
    25
100
AcDbSpline
210
0.0
220
0.0
230
1.0
 70
     8
 71
     3
 72
    11
 73
     7
 74
     0
 42
0.00000001
 43
0.00000001
 40
0.0
 40
0.0
 40
0.0
 40
0.0
 40
0.2537340756906564
 40
0.5030351201318566
 40
0.7500135973308757
 40
1.0
 40
1.0
 40
1.0
 40
1.0
 10
-65.29233740965626
 20
-97.59507428623516
 30
0.0
 10
-65.19066608720638
 20
-97.5464898277823
 30
0.0
 10
-64.98909975929662
 20
-97.45016973822456
 30
0.0
 10
-64.66993878448656
 20
-97.35245966645626
 30
0.0
 10
-64.34335744418374
 20
-97.29241299184942
 30
0.0
 10
-64.12282321041843
 20
-97.2842010849394
 30
0.0
 10
-64.01188869170755
 20
-97.28007027982493
 30
0.0
  0
SPLINE
  5
111
330
1F
100
AcDbEntity
  8
0
  6
Continuous
 62
     7
370
    25
100
AcDbSpline
210
0.0
220
0.0
230
1.0
 70
     8
 71
     3
 72
    19
 73
    15
 74
     0
 42
0.00000001
 43
0.00000001
 40
0.0
 40
0.0
 40
0.0
 40
0.0
 40
0.0841520188443147
 40
0.1665323202984583
 40
0.2488363311465307
 40
0.3312461454872636
 40
0.4129571090216188
 40
0.4904942776695683
 40
0.5661557919819229
 40
0.6399873346864684
 40
0.7167654882718517
 40
0.8021439047100991
 40
0.895833200710193
 40
1.0
 40
1.0
 40
1.0
 40
1.0
 10
-64.01188869170754
 20
-97.28007027982491
 30
0.0
 10
-63.93686284290068
 20
-97.2826088431489
 30
0.0
 10
-63.78839072237697
 20
-97.28763252346432
 30
0.0
 10
-63.56840078927657
 20
-97.3203211803222
 30
0.0
 10
-63.355029874825
 20
-97.37682474336974
 30
0.0
 10
-63.14953866073939
 20
-97.4555282444334
 30
0.0
 10
-62.95593129677638
 20
-97.55084162693895
 30
0.0
 10
-62.77842895938281
 20
-97.66267663187972
 30
0.0
 10
-62.61905588236749
 20
-97.78822667215022
 30
0.0
 10
-62.47789261490489
 20
-97.93316122368545
 30
0.0
 10
-62.35095355322903
 20
-98.10155010580678
 30
0.0
 10
-62.23419063998478
 20
-98.29793471028705
 30
0.0
 10
-62.12630083849681
 20
-98.52672474427932
 30
0.0
 10
-62.0665062313332
 20
-98.6927577723688
 30
0.0
 10
-62.03502571093831
 20
-98.78017044008132
 30
0.0
  0
SPLINE
  5
112
330
1F
100
AcDbEntity
  8
0
  6
Continuous
 62
     7
370
    25
100
AcDbSpline
210
0.0
220
0.0
230
1.0
 70
     8
 71
     3
 72
    19
 73
    15
 74
     0
 42
0.00000001
 43
0.00000001
 40
0.0
 40
0.0
 40
0.0
 40
0.0
 40
0.0717660641583373
 40
0.1412255357663682
 40
0.2091158524974613
 40
0.2748396534685274
 40
0.3394829303752185
 40
0.4024762667354004
 40
0.4649418891713281
 40
0.5268326406463827
 40
0.6474148160608233
 40
0.7655615117859498
 40
0.8816150870393314
 40
1.0
 40
1.0
 40
1.0
 40
1.0
 10
-62.03502571093831
 20
-98.78017044008132
 30
0.0
 10
-62.00172695764584
 20
-98.72012542184169
 30
0.0
 10
-61.93619968749063
 20
-98.60196525839336
 30
0.0
 10
-61.82617171174266
 20
-98.43473805008435
 30
0.0
 10
-61.7108927774382
 20
-98.27832155560272
 30
0.0
 10
-61.58938043714819
 20
-98.13259166784678
 30
0.0
 10
-61.46206358339245
 20
-97.99826803684131
 30
0.0
 10
-61.32834303980629
 20
-97.87490656139505
 30
0.0
 10
-61.18897999920632
 20
-97.76197747101811
 30
0.0
 10
-60.9951988451326
 20
-97.63004979791343
 30
0.0
 10
-60.7430825129075
 20
-97.48991835746169
 30
0.0
 10
-60.42521137721273
 20
-97.36842070772633
 30
0.0
 10
-60.09456096049625
 20
-97.29333868171152
 30
0.0
 10
-59.87011797889242
 20
-97.2845223048245
 30
0.0
 10
-59.75678051863062
 20
-97.28007027982491
 30
0.0
  0
SPLINE
  5
113
330
1F
100
AcDbEntity
  8
0
  6
Continuous
 62
     7
370
    25
100
AcDbSpline
210
0.0
220
0.0
230
1.0
 70
     8
 71
     3
 72
    23
 73
    19
 74
     0
 42
0.00000001
 43
0.00000001
 40
0.0
 40
0.0
 40
0.0
 40
0.0
 40
0.0756043304957455
 40
0.1479650154827357
 40
0.2187969985237001
 40
0.2894704453213781
 40
0.3597242180874993
 40
0.4297077387530441
 40
0.5004965198485862
 40
0.5744290198679494
 40
0.6139472962286707
 40
0.6571552698261118
 40
0.7039727697209356
 40
0.7549389848168002
 40
0.8097066112894892
 40
0.8688329536985493
 40
0.9323854739325987
 40
1.0
 40
1.0
 40
1.0
 40
1.0
 10
-59.75678051863063
 20
-97.28007027982493
 30
0.0
 10
-59.65263982321414
 20
-97.28399781619365
 30
0.0
 10
-59.44882637088084
 20
-97.29168438620617
 30
0.0
 10
-59.15211015414969
 20
-97.35204282144929
 30
0.0
 10
-58.87539434121908
 20
-97.45568853587802
 30
0.0
 10
-58.61923572776181
 20
-97.59711308183464
 30
0.0
 10
-58.38813332376822
 20
-97.77483395557364
 30
0.0
 10
-58.18725085860726
 20
-97.98628684693135
 30
0.0
 10
-58.01780854764839
 20
-98.22997607424468
 30
0.0
 10
-57.90711756552736
 20
-98.45921376107293
 30
0.0
 10
-57.83203763811181
 20
-98.66159956941922
 30
0.0
 10
-57.78574606903462
 20
-98.83404341973886
 30
0.0
 10
-57.74484966668153
 20
-99.0238400482591
 30
0.0
 10
-57.71089521389993
 20
-99.23121639762401
 30
0.0
 10
-57.68607873023896
 20
-99.45690501778792
 30
0.0
 10
-57.66769270691132
 20
-99.70053657350357
 30
0.0
 10
-57.65524852826967
 20
-99.96230041601387
 30
0.0
 10
-57.65436920992025
 20
-100.1429023451375
 30
0.0
 10
-57.65391593529729
 20
-100.2359997670044
 30
0.0
  0
LINE
  5
114
330
1F
100
AcDbEntity
  8
0
  6
Continuous
 62
     7
370
    25
100
AcDbLine
 10
-57.6539159353
 20
-100.235999767
 30
0.0
 11
-57.6539159353
 21
-103.6005831003
 31
0.0
  0
LINE
  5
115
330
1F
100
AcDbEntity
  8
0
  6
Continuous
 62
     7
370
    25
100
AcDbLine
 10
-57.6539159353
 20
-103.6005831003
 30
0.0
 11
-58.4167364481
 21
-103.6005831003
 31
0.0
  0
LINE
  5
116
330
1F
100
AcDbEntity
  8
0
  6
Continuous
 62
     7
370
    25
100
AcDbLine
 10
-58.4167364481
 20
-103.6005831003
 30
0.0
 11
-58.4167364481
 21
-100.2325943183
 31
0.0
  0
SPLINE
  5
117
330
1F
100
AcDbEntity
  8
0
  6
Continuous
 62
     7
370
    25
100
AcDbSpline
210
0.0
220
0.0
230
1.0
 70
     8
 71
     3
 72
    23
 73
    19
 74
     0
 42
0.00000001
 43
0.00000001
 40
0.0
 40
0.0
 40
0.0
 40
0.0
 40
0.0783429851937005
 40
0.1505633028794196
 40
0.2161510566599743
 40
0.2756797924514267
 40
0.3287070503654593
 40
0.3759044348322068
 40
0.4173018977400296
 40
0.4526927480535805
 40
0.5172652917530123
 40
0.5812165680623075
 40
0.6453218939728014
 40
0.7120244933797623
 40
0.7801300447160425
 40
0.8502182262116641
 40
0.9226485217347369
 40
1.0
 40
1.0
 40
1.0
 40
1.0
 10
-58.4167364481178
 20
-100.2325943182864
 30
0.0
 10
-58.41692559248817
 20
-100.1531300672956
 30
0.0
 10
-58.4172890992023
 20
-100.0004118620798
 30
0.0
 10
-58.42383077585811
 20
-99.78122733771819
 30
0.0
 10
-58.43615653856486
 20
-99.58143275584244
 30
0.0
 10
-58.45056923271339
 20
-99.40130054177963
 30
0.0
 10
-58.47058991263763
 20
-99.24041062685923
 30
0.0
 10
-58.496444318279
 20
-99.09908618176524
 30
0.0
 10
-58.52383296946162
 20
-98.9762154970322
 30
0.0
 10
-58.5693346621545
 20
-98.84000652429387
 30
0.0
 10
-58.64206525607868
 20
-98.6897502988344
 30
0.0
 10
-58.75285056473037
 20
-98.52770732904611
 30
0.0
 10
-58.89242082280192
 20
-98.38665395717261
 30
0.0
 10
-59.05358120302667
 20
-98.26420947347133
 30
0.0
 10
-59.23705599728269
 20
-98.16465348794799
 30
0.0
 10
-59.43927032496862
 20
-98.09355460724174
 30
0.0
 10
-59.65896873598369
 20
-98.049541902526
 30
0.0
 10
-59.81105265069544
 20
-98.0451558646977
 30
0.0
 10
-59.88959301863062
 20
-98.04289079264542
 30
0.0
  0
SPLINE
  5
118
330
1F
100
AcDbEntity
  8
0
  6
Continuous
 62
     7
370
    25
100
AcDbSpline
210
0.0
220
0.0
230
1.0
 70
     8
 71
     3
 72
    23
 73
    19
 74
     0
 42
0.00000001
 43
0.00000001
 40
0.0
 40
0.0
 40
0.0
 40
0.0
 40
0.068158244155997
 40
0.1347066022023562
 40
0.2018649976035972
 40
0.2707882662774621
 40
0.3400242943604908
 40
0.4080827390537199
 40
0.476813195258142
 40
0.5473460643070941
 40
0.5856397954238952
 40
0.6288649531777624
 40
0.6771532033637896
 40
0.730802811365106
 40
0.7898066155325021
 40
0.8543250087420127
 40
0.9243651340575421
 40
1.0
 40
1.0
 40
1.0
 40
1.0
 10
-59.88959301863062
 20
-98.04289079264542
 30
0.0
 10
-59.98593433639439
 20
-98.04633003201275
 30
0.0
 10
-60.17634140641741
 20
-98.05312727649975
 30
0.0
 10
-60.45428044435138
 20
-98.12252096798183
 30
0.0
 10
-60.72135291325396
 20
-98.22714443386927
 30
0.0
 10
-60.96958966464313
 20
-98.37876611545492
 30
0.0
 10
-61.19794287042669
 20
-98.56044357052413
 30
0.0
 10
-61.39441327362029
 20
-98.77646401736818
 30
0.0
 10
-61.55672001022747
 20
-99.02085098278225
 30
0.0
 10
-61.6666225232265
 20
-99.24706440269156
 30
0.0
 10
-61.73605368339261
 20
-99.4502616235459
 30
0.0
 10
-61.78189762163014
 20
-99.6277838126839
 30
0.0
 10
-61.81755728662836
 20
-99.8295533345644
 30
0.0
 10
-61.85100000042709
 20
-100.0542143838061
 30
0.0
 10
-61.87282733977472
 20
-100.3033133932323
 30
0.0
 10
-61.89266481541959
 20
-100.5756980813747
 30
0.0
 10
-61.90194405368203
 20
-100.8721876971478
 30
0.0
 10
-61.90324202495498
 20
-101.0777096552099
 30
0.0
 10
-61.90391593529728
 20
-101.1844172349531
 30
0.0
  0
LINE
  5
119
330
1F
100
AcDbEntity
  8
0
  6
Continuous
 62
     7
370
    25
100
AcDbLine
 10
-61.9039159353
 20
-101.184417235
 30
0.0
 11
-61.9039159353
 21
-103.6005831003
 31
0.0
  0
LINE
  5
11A
330
1F
100
AcDbEntity
  8
0
  6
Continuous
 62
     7
370
    25
100
AcDbLine
 10
-61.9039159353
 20
-103.6005831003
 30
0.0
 11
-62.6667364481
 21
-103.6005831003
 31
0.0
  0
LINE
  5
11B
330
1F
100
AcDbEntity
  8
0
  6
Continuous
 62
     7
370
    25
100
AcDbLine
 10
-62.6667364481
 20
-103.6005831003
 30
0.0
 11
-62.6667364481
 21
-100.4420294144
 31
0.0
  0
SPLINE
  5
11C
330
1F
100
AcDbEntity
  8
0
  6
Continuous
 62
     7
370
    25
100
AcDbSpline
210
0.0
220
0.0
230
1.0
 70
     8
 71
     3
 72
    23
 73
    19
 74
     0
 42
0.00000001
 43
0.00000001
 40
0.0
 40
0.0
 40
0.0
 40
0.0
 40
0.0825297038220661
 40
0.1587788549175722
 40
0.2277380621151815
 40
0.2899456527966788
 40
0.3454988386981406
 40
0.3938963373401252
 40
0.4363737851900902
 40
0.4721222744615248
 40
0.536383615504829
 40
0.5990779017254968
 40
0.6619482340244628
 40
0.7263105423531563
 40
0.7917711030502114
 40
0.8586473037978617
 40
0.9273053338076851
 40
1.0
 40
1.0
 40
1.0
 40
1.0
 10
-62.6667364481178
 20
-100.4420294144403
 30
0.0
 10
-62.66692935191725
 20
-100.3529170688675
 30
0.0
 10
-62.66730047943822
 20
-100.1814738728568
 30
0.0
 10
-62.67380010720641
 20
-99.93562066138783
 30
0.0
 10
-62.68615333132551
 20
-99.71199518116192
 30
0.0
 10
-62.70043466307195
 20
-99.51085734042364
 30
0.0
 10
-62.72098081090171
 20
-99.33257268486206
 30
0.0
 10
-62.74431880459695
 20
-99.17618541542747
 30
0.0
 10
-62.77187971587608
 20
-99.04208759136817
 30
0.0
 10
-62.81751229281295
 20
-98.89500508527212
 30
0.0
 10
-62.88724743008729
 20
-98.7329685580251
 30
0.0
 10
-62.99941892348635
 20
-98.56019750658204
 30
0.0
 10
-63.13932304726892
 20
-98.40897498402707
 30
0.0
 10
-63.30342374579703
 20
-98.27987516639801
 30
0.0
 10
-63.48800897397332
 20
-98.17316014038741
 30
0.0
 10
-63.69196866165203
 20
-98.09627217176312
 30
0.0
 10
-63.91346630711207
 20
-98.05152746839448
 30
0.0
 10
-64.06616930717671
 20
-98.04582397646774
 30
0.0
 10
-64.14470119170754
 20
-98.04289079264542
 30
0.0
  0
SPLINE
  5
11D
330
1F
100
AcDbEntity
  8
0
  6
Continuous
 62
     7
370
    25
100
AcDbSpline
210
0.0
220
0.0
230
1.0
 70
     8
 71
     3
 72
    23
 73
    19
 74
     0
 42
0.00000001
 43
0.00000001
 40
0.0
 40
0.0
 40
0.0
 40
0.0
 40
0.0686770684130367
 40
0.1368709585090977
 40
0.2061143571453014
 40
0.2775381819697304
 40
0.3497719775548995
 40
0.4212508361555694
 40
0.4929107569233713
 40
0.5670265889927402
 40
0.6066141532413346
 40
0.6497039535189865
 40
0.6973031504846856
 40
0.7490856597091353
 40
0.8048806474593081
 40
0.8654850057023368
 40
0.9302371271531357
 40
1.0
 40
1.0
 40
1.0
 40
1.0
 10
-64.14470119170754
 20
-98.04289079264542
 30
0.0
 10
-64.23702627666466
 20
-98.04660762411531
 30
0.0
 10
-64.42102689236536
 20
-98.05401513724385
 30
0.0
 10
-64.69133167581346
 20
-98.120689802305
 30
0.0
 10
-64.95236833602787
 20
-98.22512826957576
 30
0.0
 10
-65.19997260452604
 20
-98.37001640164202
 30
0.0
 10
-65.42746696469833
 20
-98.54948559252
 30
0.0
 10
-65.62662989955606
 20
-98.76056462510887
 30
0.0
 10
-65.79406174725756
 20
-99.00062656363835
 30
0.0
 10
-65.90512472630543
 20
-99.224454675176
 30
0.0
 10
-65.97676387774355
 20
-99.4225611999263
 30
0.0
 10
-66.02435254767428
 20
-99.59098492999175
 30
0.0
 10
-66.06524878178956
 20
-99.77798553296272
 30
0.0
 10
-66.0956399773568
 20
-99.98413994559607
 30
0.0
 10
-66.12497812954686
 20
-100.2081054599252
 30
0.0
 10
-66.13913745159188
 20
-100.4509977920771
 30
0.0
 10
-66.15291124539527
 20
-100.7126085764963
 30
0.0
 10
-66.15357282395162
 20
-100.8932276149406
 30
0.0
 10
-66.15391593529729
 20
-100.9869012093121
 30
0.0
  0
LINE
  5
11E
330
1F
100
AcDbEntity
  8
0
  6
Continuous
 62
     7
370
    25
100
AcDbLine
 10
-66.1539159353
 20
-100.9869012093
 30
0.0
 11
-66.1539159353
 21
-103.6005831003
 31
0.0
  0
LINE
  5
11F
330
1F
100
AcDbEntity
  8
0
  6
Continuous
 62
     7
370
    25
100
AcDbLine
 10
-69.8590441404
 20
-103.6005831003
 30
0.0
 11
-70.6218646532
 21
-103.6005831003
 31
0.0
  0
LINE
  5
120
330
1F
100
AcDbEntity
  8
0
  6
Continuous
 62
     7
370
    25
100
AcDbLine
 10
-70.6218646532
 20
-103.6005831003
 30
0.0
 11
-70.6218646532
 21
-97.3890446388
 31
0.0
  0
LINE
  5
121
330
1F
100
AcDbEntity
  8
0
  6
Continuous
 62
     7
370
    25
100
AcDbLine
 10
-70.6218646532
 20
-97.3890446388
 30
0.0
 11
-69.8590441404
 21
-97.3890446388
 31
0.0
  0
LINE
  5
122
330
1F
100
AcDbEntity
  8
0
  6
Continuous
 62
     7
370
    25
100
AcDbLine
 10
-69.8590441404
 20
-97.3890446388
 30
0.0
 11
-69.8590441404
 21
-98.3034076196
 31
0.0
  0
SPLINE
  5
123
330
1F
100
AcDbEntity
  8
0
  6
Continuous
 62
     7
370
    25
100
AcDbSpline
210
0.0
220
0.0
230
1.0
 70
     8
 71
     3
 72
    15
 73
    11
 74
     0
 42
0.00000001
 43
0.00000001
 40
0.0
 40
0.0
 40
0.0
 40
0.0
 40
0.1600594124854928
 40
0.306112382740123
 40
0.4383665141302029
 40
0.5605414552552184
 40
0.6753172249526962
 40
0.7861136344281712
 40
0.8928417881050863
 40
0.9999999999999999
 40
0.9999999999999999
 40
0.9999999999999999
 40
0.9999999999999999
 10
-69.8590441404255
 20
-98.30340761956852
 30
0.0
 10
-69.80272858345803
 20
-98.21827203649133
 30
0.0
 10
-69.6950255183215
 20
-98.05545089534735
 30
0.0
 10
-69.51600840417666
 20
-97.84011116436719
 30
0.0
 10
-69.33264317107196
 20
-97.66181747973947
 30
0.0
 10
-69.14405200190865
 20
-97.51973750558399
 30
0.0
 10
-68.948848044984
 20
-97.41333421701185
 30
0.0
 10
-68.7513154479546
 20
-97.3353939890781
 30
0.0
 10
-68.54834644972932
 20
-97.28930622350174
 30
0.0
 10
-68.41195320517589
 20
-97.28315305174829
 30
0.0
 10
-68.34361946093831
 20
-97.28007027982491
 30
0.0
  0
SPLINE
  5
124
330
1F
100
AcDbEntity
  8
0
  6
Continuous
 62
     7
370
    25
100
AcDbSpline
210
0.0
220
0.0
230
1.0
 70
     8
 71
     3
 72
    11
 73
     7
 74
     0
 42
0.00000001
 43
0.00000001
 40
0.0
 40
0.0
 40
0.0
 40
0.0
 40
0.2252775478670044
 40
0.4635231951764847
 40
0.7203235553269224
 40
0.9999999999999999
 40
0.9999999999999999
 40
0.9999999999999999
 40
0.9999999999999999
 10
-68.34361946093831
 20
-97.28007027982491
 30
0.0
 10
-68.29061266804209
 20
-97.2829615586983
 30
0.0
 10
-68.18154774682841
 20
-97.28891055288005
 30
0.0
 10
-68.01644717158949
 20
-97.33070826986734
 30
0.0
 10
-67.84634164552331
 20
-97.39744061035321
 30
0.0
 10
-67.73671013362913
 20
-97.46019543682533
 30
0.0
 10
-67.67955696093831
 20
-97.49291082469672
 30
0.0
  0
LINE
  5
125
330
1F
100
AcDbEntity
  8
0
  6
Continuous
 62
     7
370
    25
100
AcDbLine
 10
-67.6795569609
 20
-97.4929108247
 30
0.0
 11
-68.0984271532
 21
-98.153567876
 31
0.0
  0
SPLINE
  5
126
330
1F
100
AcDbEntity
  8
0
  6
Continuous
 62
     7
370
    25
100
AcDbSpline
210
0.0
220
0.0
230
1.0
 70
     8
 71
     3
 72
    11
 73
     7
 74
     0
 42
0.00000001
 43
0.00000001
 40
0.0
 40
0.0
 40
0.0
 40
0.0
 40
0.2951388013693651
 40
0.5602299448882271
 40
0.7949833567408978
 40
1.0
 40
1.0
 40
1.0
 40
1.0
 10
-68.098427153246
 20
-98.15356787597877
 30
0.0
 10
-68.13512049030967
 20
-98.13719865827055
 30
0.0
 10
-68.20477146844462
 20
-98.10612674941959
 30
0.0
 10
-68.306661129383
 20
-98.06935329624179
 30
0.0
 10
-68.40060151858656
 20
-98.04770035775351
 30
0.0
 10
-68.46045016032495
 20
-98.04442004394122
 30
0.0
 10
-68.48835103145113
 20
-98.04289079264542
 30
0.0
  0
SPLINE
  5
127
330
1F
100
AcDbEntity
  8
0
  6
Continuous
 62
     7
370
    25
100
AcDbSpline
210
0.0
220
0.0
230
1.0
 70
     8
 71
     3
 72
    19
 73
    15
 74
     0
 42
0.00000001
 43
0.00000001
 40
0.0
 40
0.0
 40
0.0
 40
0.0
 40
0.0938065293523333
 40
0.1913381281363379
 40
0.29519061662517
 40
0.4103123367232998
 40
0.471930251051277
 40
0.5364251593464296
 40
0.6031187283036311
 40
0.6741176724905985
 40
0.7493320232258855
 40
0.8282833841715606
 40
0.9120398092627559
 40
1.0
 40
1.0
 40
1.0
 40
1.0
 10
-68.48835103145113
 20
-98.04289079264542
 30
0.0
 10
-68.54956495569219
 20
-98.04697088339766
 30
0.0
 10
-68.67442361703516
 20
-98.05529308583444
 30
0.0
 10
-68.85774311560165
 20
-98.12071590469708
 30
0.0
 10
-69.03562918610488
 20
-98.22642005925759
 30
0.0
 10
-69.17690322320668
 20
-98.34364990232402
 30
0.0
 10
-69.28629155161691
 20
-98.45669455330895
 30
0.0
 10
-69.36434638504879
 20
-98.55541210240021
 30
0.0
 10
-69.43594734193628
 20
-98.66610306468354
 30
0.0
 10
-69.50436073433752
 20
-98.78687515392023
 30
0.0
 10
-69.56669316313115
 20
-98.91979049428427
 30
0.0
 10
-69.62486878834021
 20
-99.06352115545168
 30
0.0
 10
-69.67746888400885
 20
-99.21823361103547
 30
0.0
 10
-69.70746233426772
 20
-99.32601973157043
 30
0.0
 10
-69.72282619170754
 20
-99.38123213879928
 30
0.0
  0
SPLINE
  5
128
330
1F
100
AcDbEntity
  8
0
  6
Continuous
 62
     7
370
    25
100
AcDbSpline
210
0.0
220
0.0
230
1.0
 70
     8
 71
     3
 72
    15
 73
    11
 74
     0
 42
0.00000001
 43
0.00000001
 40
0.0
 40
0.0
 40
0.0
 40
0.0
 40
0.0708548685015285
 40
0.1569381495573521
 40
0.2586003949600832
 40
0.3758909295891992
 40
0.5081661676989049
 40
0.6562378085782229
 40
0.8201767703979105
 40
1.0
 40
1.0
 40
1.0
 40
1.0
 10
-69.72282619170754
 20
-99.38123213879928
 30
0.0
 10
-69.73431914702273
 20
-99.43047670320499
 30
0.0
 10
-69.75977516971047
 20
-99.53954967133028
 30
0.0
 10
-69.78452604733071
 20
-99.72253894565458
 30
0.0
 10
-69.80898059098804
 20
-99.93873925979572
 30
0.0
 10
-69.82621523555412
 20
-100.1887524139415
 30
0.0
 10
-69.84219048072035
 20
-100.4719540634813
 30
0.0
 10
-69.85120068041485
 20
-100.7887756457101
 30
0.0
 10
-69.85873687890984
 20
-101.1395423556265
 30
0.0
 10
-69.85893861273915
 20
-101.3847657849047
 30
0.0
 10
-69.85904414042548
 20
-101.5130430362352
 30
0.0
  0
LINE
  5
129
330
1F
100
AcDbEntity
  8
0
  6
Continuous
 62
     7
370
    25
100
AcDbLine
 10
-69.8590441404
 20
-101.5130430362
 30
0.0
 11
-69.8590441404
 21
-103.6005831003
 31
0.0
  0
SPLINE
  5
12A
330
1F
100
AcDbEntity
  8
0
  6
Continuous
 62
     7
370
    25
100
AcDbSpline
210
0.0
220
0.0
230
1.0
 70
     8
 71
     3
 72
    31
 73
    27
 74
     0
 42
0.00000001
 43
0.00000001
 40
0.0
 40
0.0
 40
0.0
 40
0.0
 40
0.0650632896172821
 40
0.1267731664665242
 40
0.18551576322608
 40
0.240764679167716
 40
0.2929797960236
 40
0.3422503727797668
 40
0.3889192861856635
 40
0.4327756640583108
 40
0.4746284326311204
 40
0.5147746906379541
 40
0.5536058934984468
 40
0.5914264064311706
 40
0.6280281199460698
 40
0.6638036341103202
 40
0.6989843361316647
 40
0.7335914893067081
 40
0.7676284691511448
 40
0.8012083477865946
 40
0.8342638397266261
 40
0.8669806947287766
 40
0.8997197415181618
 40
0.9327019124985417
 40
0.9661758834327542
 40
1.0
 40
1.0
 40
1.0
 40
1.0
 10
94.9855118939562
 20
-103.440980312185
 30
0.0
 10
94.98486030941227
 20
-103.4945042201259
 30
0.0
 10
94.98359072350078
 20
-103.5987933719847
 30
0.0
 10
94.97701201673304
 20
-103.7513243473045
 30
0.0
 10
94.96405338555434
 20
-103.8953223906031
 30
0.0
 10
94.94784339724556
 20
-104.0311328530618
 30
0.0
 10
94.92539243427215
 20
-104.1581904718948
 30
0.0
 10
94.89778726802085
 20
-104.2769349203627
 30
0.0
 10
94.86713694519908
 20
-104.3878789920281
 30
0.0
 10
94.82930215108928
 20
-104.4901138036381
 30
0.0
 10
94.78789144074203
 20
-104.5850655265028
 30
0.0
 10
94.74283624456666
 20
-104.6737326748325
 30
0.0
 10
94.69456641848102
 20
-104.7568989675122
 30
0.0
 10
94.641977673478
 20
-104.8338987144433
 30
0.0
 10
94.58592426028153
 20
-104.9052773715162
 30
0.0
 10
94.52520647148853
 20
-104.9697749941677
 30
0.0
 10
94.46153588638657
 20
-105.0289456661309
 30
0.0
 10
94.39412347055261
 20
-105.081597293593
 30
0.0
 10
94.32371191932043
 20
-105.1276820982294
 30
0.0
 10
94.25175284239556
 20
-105.1688959486172
 30
0.0
 10
94.17696945904828
 20
-105.202128643667
 30
0.0
 10
94.10105650631878
 20
-105.2306636846448
 30
0.0
 10
94.02292814020383
 20
-105.252464136531
 30
0.0
 10
93.94268174951435
 20
-105.2675379920515
 30
0.0
 10
93.86072551358569
 20
-105.2781098405063
 30
0.0
 10
93.80532394850444
 20
-105.2789163203816
 30
0.0
 10
93.7774790413921
 20
-105.2793216583388
 30
0.0
  0
SPLINE
  5
12B
330
1F
100
AcDbEntity
  8
0
  6
Continuous
 62
     7
370
    25
100
AcDbSpline
210
0.0
220
0.0
230
1.0
 70
     8
 71
     3
 72
    31
 73
    27
 74
     0
 42
0.00000001
 43
0.00000001
 40
0.0
 40
0.0
 40
0.0
 40
0.0
 40
0.0337871463469922
 40
0.0666216577242964
 40
0.0992848780959715
 40
0.131361165042651
 40
0.1635851875953464
 40
0.1961039269870666
 40
0.2289022543238181
 40
0.2621580559050065
 40
0.2959912222583175
 40
0.3302178457248026
 40
0.3650598258919541
 40
0.4009507373401084
 40
0.4376203820767368
 40
0.475707529437095
 40
0.5153806916250495
 40
0.5564135414931657
 40
0.5997648298727318
 40
0.6464241555840863
 40
0.6964314445175673
 40
0.7497815178015598
 40
0.8065733069755342
 40
0.8674355315653999
 40
0.931886753250872
 40
1.0
 40
1.0
 40
1.0
 40
1.0
 10
93.7774790413921
 20
-105.2793216583388
 30
0.0
 10
93.74987492740684
 20
-105.27885530288
 30
0.0
 10
93.69544500264134
 20
-105.2779357409426
 30
0.0
 10
93.6147925772019
 20
-105.2684220094545
 30
0.0
 10
93.53651013376194
 20
-105.253126506242
 30
0.0
 10
93.46021137972431
 20
-105.231709902151
 30
0.0
 10
93.38550486464065
 20
-105.2054950658355
 30
0.0
 10
93.31340857798487
 20
-105.1713413822326
 30
0.0
 10
93.24312089429414
 20
-105.1320073132766
 30
0.0
 10
93.17482933827611
 20
-105.0872118918383
 30
0.0
 10
93.10981717723621
 20
-105.0358902087099
 30
0.0
 10
93.04771857192245
 20
-104.9791259200234
 30
0.0
 10
92.99009355282544
 20
-104.915502508726
 30
0.0
 10
92.93645945720809
 20
-104.8460245856183
 30
0.0
 10
92.8854853690124
 20
-104.7713313432855
 30
0.0
 10
92.83859599569314
 20
-104.6904029702401
 30
0.0
 10
92.7952251416251
 20
-104.6035603597505
 30
0.0
 10
92.75558165095653
 20
-104.5102424490754
 30
0.0
 10
92.72043298744165
 20
-104.4090875212156
 30
0.0
 10
92.68938527932818
 20
-104.2989383427131
 30
0.0
 10
92.66487112185813
 20
-104.1788227065991
 30
0.0
 10
92.64388816652529
 20
-104.0497053394937
 30
0.0
 10
92.62696378348174
 20
-103.9110314091078
 30
0.0
 10
92.61540945816341
 20
-103.762725630921
 30
0.0
 10
92.60826814312763
 20
-103.6048804219948
 30
0.0
 10
92.60763307270751
 20
-103.4966106476782
 30
0.0
 10
92.60730676575108
 20
-103.440980312185
 30
0.0
  0
SPLINE
  5
12C
330
1F
100
AcDbEntity
  8
0
  6
Continuous
 62
     7
370
    25
100
AcDbSpline
210
0.0
220
0.0
230
1.0
 70
     8
 71
     3
 72
    31
 73
    27
 74
     0
 42
0.00000001
 43
0.00000001
 40
0.0
 40
0.0
 40
0.0
 40
0.0
 40
0.0685946222587445
 40
0.1332460424433004
 40
0.1943125864682542
 40
0.251279223116964
 40
0.3045134392563462
 40
0.3542349066533259
 40
0.4004805887739885
 40
0.4434107549384891
 40
0.4840148686163449
 40
0.5232523007732013
 40
0.5610423727283625
 40
0.597900239364396
 40
0.6335184888561967
 40
0.6683143511696501
 40
0.702495671286378
 40
0.7366853535134569
 40
0.7702931693607883
 40
0.8034372550192482
 40
0.8359129516660257
 40
0.8684602457892907
 40
0.9008465382431836
 40
0.9334665246307045
 40
0.9662575752981217
 40
1.0
 40
1.0
 40
1.0
 40
1.0
 10
92.60730676575108
 20
-103.440980312185
 30
0.0
 10
92.60763478390852
 20
-103.3848829244507
 30
0.0
 10
92.60827196390736
 20
-103.2759129402032
 30
0.0
 10
92.61536038484964
 20
-103.1171282981365
 30
0.0
 10
92.6271357271628
 20
-102.9681680091413
 30
0.0
 10
92.64327310001305
 20
-102.8290249431029
 30
0.0
 10
92.66291108023668
 20
-102.6996631785851
 30
0.0
 10
92.68912656683796
 20
-102.5804284214489
 30
0.0
 10
92.71893936945295
 20
-102.4707688148358
 30
0.0
 10
92.75349181526342
 20
-102.3703267663598
 30
0.0
 10
92.79247960428181
 20
-102.2777490633376
 30
0.0
 10
92.83491386500388
 20
-102.1913238620439
 30
0.0
 10
92.88247865942743
 20
-102.1111819297041
 30
0.0
 10
92.93245557235454
 20
-102.0360441392841
 30
0.0
 10
92.98686764398234
 20
-101.9671404444918
 30
0.0
 10
93.04416643444956
 20
-101.9034977819732
 30
0.0
 10
93.10658831071675
 20
-101.8465870315095
 30
0.0
 10
93.17201131899016
 20
-101.7947407291244
 30
0.0
 10
93.24102778338191
 20
-101.7492912574524
 30
0.0
 10
93.3116704495251
 20
-101.7092585188367
 30
0.0
 10
93.38442555538104
 20
-101.6750586515791
 30
0.0
 10
93.45949173827894
 20
-101.6481682157195
 30
0.0
 10
93.53619429616867
 20
-101.6259573689469
 30
0.0
 10
93.61480136285995
 20
-101.6107684213004
 30
0.0
 10
93.69544272679627
 20
-101.601211512811
 30
0.0
 10
93.74987416159439
 20
-101.6002978450707
 30
0.0
 10
93.7774790413921
 20
-101.5998344788516
 30
0.0
  0
SPLINE
  5
12D
330
1F
100
AcDbEntity
  8
0
  6
Continuous
 62
     7
370
    25
100
AcDbSpline
210
0.0
220
0.0
230
1.0
 70
     8
 71
     3
 72
    31
 73
    27
 74
     0
 42
0.00000001
 43
0.00000001
 40
0.0
 40
0.0
 40
0.0
 40
0.0
 40
0.0337881161627059
 40
0.0671939323738774
 40
0.0998624108568238
 40
0.1325666121262579
 40
0.1651511732547835
 40
0.197913187355792
 40
0.2313190035669566
 40
0.2650832782673736
 40
0.2992553087581172
 40
0.3343985665049785
 40
0.369942823509305
 40
0.4062835607000596
 40
0.4440638196985034
 40
0.4829977068727744
 40
0.5233544466133013
 40
0.5655365896041482
 40
0.609612924065816
 40
0.6563908113764175
 40
0.705885494936455
 40
0.7583245002617299
 40
0.813831782941149
 40
0.8727945590393885
 40
0.9347222295400766
 40
1.0
 40
1.0
 40
1.0
 40
1.0
 10
93.7774790413921
 20
-101.5998344788516
 30
0.0
 10
93.80531451987643
 20
-101.6003222940273
 30
0.0
 10
93.86067052877212
 20
-101.6012924049316
 30
0.0
 10
93.94251090401798
 20
-101.6106163474661
 30
0.0
 10
94.02246058573269
 20
-101.6260874705632
 30
0.0
 10
94.1001787244361
 20
-101.6480084451457
 30
0.0
 10
94.17630371090391
 20
-101.6752041218052
 30
0.0
 10
94.25024011854951
 20
-101.7092912389144
 30
0.0
 10
94.3224472001916
 20
-101.7489701062588
 30
0.0
 10
94.39177748771147
 20
-101.7955939835655
 30
0.0
 10
94.45899210305754
 20
-101.8475762597622
 30
0.0
 10
94.52244006602969
 20
-101.9063389285656
 30
0.0
 10
94.58212715192711
 20
-101.9712886478342
 30
0.0
 10
94.63880245731333
 20
-102.0417305117208
 30
0.0
 10
94.69085805451259
 20
-102.1190155965544
 30
0.0
 10
94.74043148674804
 20
-102.2017997063686
 30
0.0
 10
94.7848035226497
 20
-102.2915305711624
 30
0.0
 10
94.82753819782832
 20
-102.3867110390034
 30
0.0
 10
94.86442518456751
 20
-102.4899746978101
 30
0.0
 10
94.8976914298399
 20
-102.6007394583282
 30
0.0
 10
94.92457039841477
 20
-102.7203136451815
 30
0.0
 10
94.9469596707529
 20
-102.8480698904766
 30
0.0
 10
94.96430456669853
 20
-102.9844773737168
 30
0.0
 10
94.97693720877709
 20
-103.1292436892285
 30
0.0
 10
94.98361029381846
 20
-103.2824640798693
 30
0.0
 10
94.98486699502507
 20
-103.3872219290465
 30
0.0
 10
94.9855118939562
 20
-103.440980312185
 30
0.0
  0
SPLINE
  5
12E
330
1F
100
AcDbEntity
  8
0
  6
Continuous
 62
     7
370
    25
100
AcDbSpline
210
0.0
220
0.0
230
1.0
 70
     8
 71
     3
 72
    15
 73
    11
 74
     0
 42
0.00000001
 43
0.00000001
 40
0.0
 40
0.0
 40
0.0
 40
0.0
 40
0.1277566033101235
 40
0.2494143553365195
 40
0.3727964764553928
 40
0.500111332515859
 40
0.6286099407651178
 40
0.7506433738258083
 40
0.8737683791425208
 40
1.0
 40
1.0
 40
1.0
 40
1.0
 10
91.86692215036645
 20
-105.234449863467
 30
0.0
 10
91.84739624471455
 20
-105.2334062662915
 30
0.0
 10
91.80927656209666
 20
-105.231368891236
 30
0.0
 10
91.75449056786647
 20
-105.2142060849578
 30
0.0
 10
91.70408359928774
 20
-105.187382624714
 30
0.0
 10
91.65929588755077
 20
-105.1501157152314
 30
0.0
 10
91.6227574159626
 20
-105.1051155718357
 30
0.0
 10
91.59513203310966
 20
-105.0549137754038
 30
0.0
 10
91.57854188415669
 20
-105.0001323379889
 30
0.0
 10
91.57636001148983
 20
-104.9620576951485
 30
0.0
 10
91.57525548369978
 20
-104.9427831968004
 30
0.0
  0
SPLINE
  5
12F
330
1F
100
AcDbEntity
  8
0
  6
Continuous
 62
     7
370
    25
100
AcDbSpline
210
0.0
220
0.0
230
1.0
 70
     8
 71
     3
 72
    15
 73
    11
 74
     0
 42
0.00000001
 43
0.00000001
 40
0.0
 40
0.0
 40
0.0
 40
0.0
 40
0.1290969581672456
 40
0.2520459672600005
 40
0.3739049644020079
 40
0.5010378352202178
 40
0.6281707060384278
 40
0.7513764634092005
 40
0.8724260133704639
 40
1.0
 40
1.0
 40
1.0
 40
1.0
 10
91.57525548369978
 20
-104.9427831968004
 30
0.0
 10
91.57631758295526
 20
-104.9230338171526
 30
0.0
 10
91.5783912014043
 20
-104.8844755771539
 30
0.0
 10
91.59516686165612
 20
-104.8292764696765
 30
0.0
 10
91.62254307356086
 20
-104.7791080304264
 30
0.0
 10
91.65954846855306
 20
-104.7347114503028
 30
0.0
 10
91.70407276444155
 20
-104.6975241476371
 30
0.0
 10
91.7543689696195
 20
-104.6704593544975
 30
0.0
 10
91.80940850992354
 20
-104.6544189423118
 30
0.0
 10
91.84741844833759
 20
-104.6522364255637
 30
0.0
 10
91.86692215036645
 20
-104.6511165301337
 30
0.0
  0
SPLINE
  5
130
330
1F
100
AcDbEntity
  8
0
  6
Continuous
 62
     7
370
    25
100
AcDbSpline
210
0.0
220
0.0
230
1.0
 70
     8
 71
     3
 72
    15
 73
    11
 74
     0
 42
0.00000001
 43
0.00000001
 40
0.0
 40
0.0
 40
0.0
 40
0.0
 40
0.1275189266999311
 40
0.2499859477488196
 40
0.3717923515057519
 40
0.4988703527764728
 40
0.6259483540471938
 40
0.7484917380160416
 40
0.8709587590649011
 40
1.0
 40
1.0
 40
1.0
 40
1.0
 10
91.86692215036645
 20
-104.6511165301337
 30
0.0
 10
91.88641236253942
 20
-104.6522746968201
 30
0.0
 10
91.92462064493307
 20
-104.6545451472094
 30
0.0
 10
91.97985977324898
 20
-104.6701218209693
 30
0.0
 10
92.0298544329625
 20
-104.697780481441
 30
0.0
 10
92.07438667774922
 20
-104.7346432598028
 30
0.0
 10
92.11109315427345
 20
-104.7793389229333
 30
0.0
 10
92.13973750640125
 20
-104.8289348316694
 30
0.0
 10
92.15517849161323
 20
-104.8846364242484
 30
0.0
 10
92.15743240342385
 20
-104.9230660992114
 30
0.0
 10
92.15858881703312
 20
-104.9427831968004
 30
0.0
  0
SPLINE
  5
131
330
1F
100
AcDbEntity
  8
0
  6
Continuous
 62
     7
370
    25
100
AcDbSpline
210
0.0
220
0.0
230
1.0
 70
     8
 71
     3
 72
    15
 73
    11
 74
     0
 42
0.00000001
 43
0.00000001
 40
0.0
 40
0.0
 40
0.0
 40
0.0
 40
0.1261777183169947
 40
0.248820607485785
 40
0.3715399692351324
 40
0.4999837069108667
 40
0.6272441978753572
 40
0.7492255210762556
 40
0.8722979504176612
 40
0.9999999999999999
 40
0.9999999999999999
 40
0.9999999999999999
 40
0.9999999999999999
 10
92.15858881703312
 20
-104.9427831968004
 30
0.0
 10
92.15739321628766
 20
-104.9620265265629
 30
0.0
 10
92.15503550917607
 20
-104.9999740902486
 30
0.0
 10
92.13977290104704
 20
-105.0552555528725
 30
0.0
 10
92.11087485081703
 20
-105.1048824573425
 30
0.0
 10
92.07463985789471
 20
-105.1501845954709
 30
0.0
 10
92.02984342433646
 20
-105.187125466079
 30
0.0
 10
91.97974157791377
 20
-105.2145488108114
 30
0.0
 10
91.9247503197567
 20
-105.2312407907208
 30
0.0
 10
91.88643399640846
 20
-105.2333670878229
 30
0.0
 10
91.86692215036645
 20
-105.234449863467
 30
0.0
  0
LINE
  5
132
330
1F
100
AcDbEntity
  8
0
  6
Continuous
 62
     7
370
    25
100
AcDbLine
 10
89.6906400991
 20
-102.0485524276
 30
0.0
 11
89.1521785606
 21
-102.0485524276
 31
0.0
  0
LINE
  5
133
330
1F
100
AcDbEntity
  8
0
  6
Continuous
 62
     7
370
    25
100
AcDbLine
 10
89.1521785606
 20
-102.0485524276
 30
0.0
 11
89.3576072465
 21
-101.6895780686
 31
0.0
  0
LINE
  5
134
330
1F
100
AcDbEntity
  8
0
  6
Continuous
 62
     7
370
    25
100
AcDbLine
 10
89.3576072465
 20
-101.6895780686
 30
0.0
 11
90.0047426632
 21
-101.6895780686
 31
0.0
  0
LINE
  5
135
330
1F
100
AcDbEntity
  8
0
  6
Continuous
 62
     7
370
    25
100
AcDbLine
 10
90.0047426632
 20
-101.6895780686
 30
0.0
 11
90.0047426632
 21
-105.1895780686
 31
0.0
  0
LINE
  5
136
330
1F
100
AcDbEntity
  8
0
  6
Continuous
 62
     7
370
    25
100
AcDbLine
 10
90.0047426632
 20
-105.1895780686
 30
0.0
 11
89.6906400991
 21
-105.1895780686
 31
0.0
  0
LINE
  5
137
330
1F
100
AcDbEntity
  8
0
  6
Continuous
 62
     7
370
    25
100
AcDbLine
 10
89.6906400991
 20
-105.1895780686
 30
0.0
 11
89.6906400991
 21
-102.0485524276
 31
0.0
  0
LINE
  5
138
330
1F
100
AcDbEntity
  8
0
  6
Continuous
 62
     7
370
    25
100
AcDbLine
 10
87.1329477914
 20
-105.1895780686
 30
0.0
 11
87.0880759965
 21
-105.1895780686
 31
0.0
  0
LINE
  5
139
330
1F
100
AcDbEntity
  8
0
  6
Continuous
 62
     7
370
    25
100
AcDbLine
 10
87.0880759965
 20
-105.1895780686
 30
0.0
 11
85.9214093299
 21
-102.6318857609
 31
0.0
  0
LINE
  5
13A
330
1F
100
AcDbEntity
  8
0
  6
Continuous
 62
     7
370
    25
100
AcDbLine
 10
85.9214093299
 20
-102.6318857609
 30
0.0
 11
86.2614534004
 21
-102.6318857609
 31
0.0
  0
LINE
  5
13B
330
1F
100
AcDbEntity
  8
0
  6
Continuous
 62
     7
370
    25
100
AcDbLine
 10
86.2614534004
 20
-102.6318857609
 30
0.0
 11
87.110511894
 21
-104.4940652481
 31
0.0
  0
LINE
  5
13C
330
1F
100
AcDbEntity
  8
0
  6
Continuous
 62
     7
370
    25
100
AcDbLine
 10
87.110511894
 20
-104.4940652481
 30
0.0
 11
87.9595703875
 21
-102.6318857609
 31
0.0
  0
LINE
  5
13D
330
1F
100
AcDbEntity
  8
0
  6
Continuous
 62
     7
370
    25
100
AcDbLine
 10
87.9595703875
 20
-102.6318857609
 30
0.0
 11
88.2996144581
 21
-102.6318857609
 31
0.0
  0
LINE
  5
13E
330
1F
100
AcDbEntity
  8
0
  6
Continuous
 62
     7
370
    25
100
AcDbLine
 10
88.2996144581
 20
-102.6318857609
 30
0.0
 11
87.1329477914
 21
-105.1895780686
 31
0.0
  0
SPLINE
  5
13F
330
1F
100
AcDbEntity
  8
0
  6
Continuous
 62
     7
370
    25
100
AcDbSpline
210
0.0
220
0.0
230
1.0
 70
     8
 71
     3
 72
    23
 73
    19
 74
     0
 42
0.00000001
 43
0.00000001
 40
0.0
 40
0.0
 40
0.0
 40
0.0
 40
0.0683846151037668
 40
0.1344755875434482
 40
0.1983910577839526
 40
0.2607534774484847
 40
0.3218292228076497
 40
0.3830372384795198
 40
0.4446531231064235
 40
0.5073980112039965
 40
0.5698252379730242
 40
0.630777640631307
 40
0.6909286865237135
 40
0.7509451326917355
 40
0.8110494767293268
 40
0.8723308525469945
 40
0.9350040935894061
 40
0.9999999999999999
 40
0.9999999999999999
 40
0.9999999999999999
 40
0.9999999999999999
 10
70.44064009908439
 20
-103.9780396070568
 30
0.0
 10
70.44217970551354
 20
-104.0117400713039
 30
0.0
 10
70.44520727946175
 20
-104.0780106750536
 30
0.0
 10
70.45932242262822
 20
-104.1749814581361
 30
0.0
 10
70.4815711964024
 20
-104.2673548002997
 30
0.0
 10
70.51284025904093
 20
-104.3544378422731
 30
0.0
 10
70.55070710429581
 20
-104.4373679697884
 30
0.0
 10
70.59709282108177
 20
-104.5155300067571
 30
0.0
 10
70.65243237503424
 20
-104.588567936807
 30
0.0
 10
70.7141580744186
 20
-104.6571350744001
 30
0.0
 10
70.78286516975425
 20
-104.7181958355678
 30
0.0
 10
70.8551479169754
 20
-104.772847611802
 30
0.0
 10
70.93204148196462
 20
-104.8186532085315
 30
0.0
 10
71.01293956545855
 20
-104.8558330982849
 30
0.0
 10
71.09771135060275
 20
-104.884939414344
 30
0.0
 10
71.18638354571847
 20
-104.9048072350269
 30
0.0
 10
71.27878166207324
 20
-104.9181143419018
 30
0.0
 10
71.34176739610601
 20
-104.9195940071023
 30
0.0
 10
71.37383320805876
 20
-104.9203472993645
 30
0.0
  0
SPLINE
  5
140
330
1F
100
AcDbEntity
  8
0
  6
Continuous
 62
     7
370
    25
100
AcDbSpline
210
0.0
220
0.0
230
1.0
 70
     8
 71
     3
 72
    19
 73
    15
 74
     0
 42
0.00000001
 43
0.00000001
 40
0.0
 40
0.0
 40
0.0
 40
0.0
 40
0.0825922633314368
 40
0.1638788940984979
 40
0.245658739629507
 40
0.3277256953541257
 40
0.4086099609103147
 40
0.4857490859539311
 40
0.5591690561972845
 40
0.6302684758575487
 40
0.705306028432078
 40
0.7920649660966077
 40
0.8897964374100874
 40
1.0
 40
1.0
 40
1.0
 40
1.0
 10
71.37383320805876
 20
-104.9203472993645
 30
0.0
 10
71.40518435566278
 20
-104.9197392427046
 30
0.0
 10
71.46739104659035
 20
-104.9185327416481
 30
0.0
 10
71.56003190393338
 20
-104.906800830737
 30
0.0
 10
71.65117143133295
 20
-104.8878305551159
 30
0.0
 10
71.74043241460015
 20
-104.8619405650323
 30
0.0
 10
71.82600326051686
 20
-104.8303637129255
 30
0.0
 10
71.9052488105781
 20
-104.7922608552765
 30
0.0
 10
71.97812902620419
 20
-104.7501111085335
 30
0.0
 10
72.0462459927905
 20
-104.701901433485
 30
0.0
 10
72.11231698614255
 20
-104.6428932464821
 30
0.0
 10
72.17785947255729
 20
-104.5692575254935
 30
0.0
 10
72.24813612592054
 20
-104.4821699977099
 30
0.0
 10
72.29212571866432
 20
-104.416624331732
 30
0.0
 10
72.31543977857157
 20
-104.3818857609029
 30
0.0
  0
LINE
  5
141
330
1F
100
AcDbEntity
  8
0
  6
Continuous
 62
     7
370
    25
100
AcDbLine
 10
72.3154397786
 20
-104.3818857609
 30
0.0
 11
72.5944862529
 21
-104.528420216
 31
0.0
  0
SPLINE
  5
142
330
1F
100
AcDbEntity
  8
0
  6
Continuous
 62
     7
370
    25
100
AcDbSpline
210
0.0
220
0.0
230
1.0
 70
     8
 71
     3
 72
    19
 73
    15
 74
     0
 42
0.00000001
 43
0.00000001
 40
0.0
 40
0.0
 40
0.0
 40
0.0
 40
0.0933698567361883
 40
0.1816607660709975
 40
0.2658742270426204
 40
0.3463547840343056
 40
0.4245998617178873
 40
0.5019031838373763
 40
0.5799920909873448
 40
0.658443430529426
 40
0.7386722364878259
 40
0.8218941484362404
 40
0.9088007920466139
 40
0.9999999999999999
 40
0.9999999999999999
 40
0.9999999999999999
 40
0.9999999999999999
 10
72.59448625293055
 20
-104.5284202160311
 30
0.0
 10
72.5722496576906
 20
-104.5678635473065
 30
0.0
 10
72.52898604920593
 20
-104.6446046501242
 30
0.0
 10
72.45458530131512
 20
-104.7500365105962
 30
0.0
 10
72.37659322873697
 20
-104.844884226435
 30
0.0
 10
72.29148926073336
 20
-104.9266138807188
 30
0.0
 10
72.20181958177938
 20
-104.9978652656931
 30
0.0
 10
72.10708692699366
 20
-105.060203090412
 30
0.0
 10
72.00679810925833
 20
-105.1133216107578
 30
0.0
 10
71.90094838448006
 20
-105.1580741386306
 30
0.0
 10
71.78864883333857
 20
-105.1924836327385
 30
0.0
 10
71.66962731692851
 20
-105.2167878536595
 30
0.0
 10
71.54365582154978
 20
-105.23181112231
 30
0.0
 10
71.457309641682
 20
-105.2335562630871
 30
0.0
 10
71.41309602857157
 20
-105.234449863467
 30
0.0
  0
SPLINE
  5
143
330
1F
100
AcDbEntity
  8
0
  6
Continuous
 62
     7
370
    25
100
AcDbSpline
210
0.0
220
0.0
230
1.0
 70
     8
 71
     3
 72
    23
 73
    19
 74
     0
 42
0.00000001
 43
0.00000001
 40
0.0
 40
0.0
 40
0.0
 40
0.0
 40
0.0715786576891405
 40
0.139629224692847
 40
0.2047966973966649
 40
0.2681349633966768
 40
0.3298137469867278
 40
0.3913013977745576
 40
0.4534335150970519
 40
0.5165516903197648
 40
0.5796312707049213
 40
0.6411189214927473
 40
0.7012940466987748
 40
0.7608103356761313
 40
0.8199317217781431
 40
0.8789195754993785
 40
0.9389828222504448
 40
1.0
 40
1.0
 40
1.0
 40
1.0
 10
71.41309602857157
 20
-105.234449863467
 30
0.0
 10
71.36395405103613
 20
-105.2333026881374
 30
0.0
 10
71.26809228937881
 20
-105.2310648814081
 30
0.0
 10
71.12855254226594
 20
-105.2117724169736
 30
0.0
 10
70.99717312386845
 20
-105.18030005828
 30
0.0
 10
70.87396142051483
 20
-105.1363345167887
 30
0.0
 10
70.7592191679373
 20
-105.0789071926984
 30
0.0
 10
70.65271831312536
 20
-105.0089477108947
 30
0.0
 10
70.55389878725639
 20
-104.9268154562061
 30
0.0
 10
70.46587457807125
 20
-104.8317990127192
 30
0.0
 10
70.3866306953608
 20
-104.7301170554238
 30
0.0
 10
70.3167048753851
 20
-104.6241611709378
 30
0.0
 10
70.25824744433568
 20
-104.5141979464639
 30
0.0
 10
70.21069483413991
 20
-104.4009274224203
 30
0.0
 10
70.17228996917017
 20
-104.2850635288772
 30
0.0
 10
70.14552326540104
 20
-104.165552061308
 30
0.0
 10
70.13009351741894
 20
-104.0427164770678
 30
0.0
 10
70.1277290718816
 20
-103.95961914135
 30
0.0
 10
70.12653753498184
 20
-103.9177431326978
 30
0.0
  0
SPLINE
  5
144
330
1F
100
AcDbEntity
  8
0
  6
Continuous
 62
     7
370
    25
100
AcDbSpline
210
0.0
220
0.0
230
1.0
 70
     8
 71
     3
 72
    15
 73
    11
 74
     0
 42
0.00000001
 43
0.00000001
 40
0.0
 40
0.0
 40
0.0
 40
0.0
 40
0.1280448079611125
 40
0.25376790002449
 40
0.3774284265812946
 40
0.5005508414825229
 40
0.6232958832424779
 40
0.7465783319335066
 40
0.8723475406047121
 40
0.9999999999999999
 40
0.9999999999999999
 40
0.9999999999999999
 40
0.9999999999999999
 10
70.12653753498184
 20
-103.9177431326978
 30
0.0
 10
70.12759667631242
 20
-103.8784483022802
 30
0.0
 10
70.1296957545615
 20
-103.8005711375934
 30
0.0
 10
70.14292654195516
 20
-103.685305593063
 30
0.0
 10
70.16637483502318
 20
-103.5732771405345
 30
0.0
 10
70.19855115897234
 20
-103.4643926925657
 30
0.0
 10
70.24010240515554
 20
-103.3588345585815
 30
0.0
 10
70.29093462437177
 20
-103.2565384949584
 30
0.0
 10
70.35112700216054
 20
-103.1576133550979
 30
0.0
 10
70.39759967591701
 20
-103.0952102213901
 30
0.0
 10
70.42100868882798
 20
-103.063776786544
 30
0.0
  0
SPLINE
  5
145
330
1F
100
AcDbEntity
  8
0
  6
Continuous
 62
     7
370
    25
100
AcDbSpline
210
0.0
220
0.0
230
1.0
 70
     8
 71
     3
 72
    15
 73
    11
 74
     0
 42
0.00000001
 43
0.00000001
 40
0.0
 40
0.0
 40
0.0
 40
0.0
 40
0.1288352544875492
 40
0.2535893349864751
 40
0.3746432573141679
 40
0.4953400422377859
 40
0.6163247746357856
 40
0.7397593354405098
 40
0.8668423203805383
 40
1.0
 40
1.0
 40
1.0
 40
1.0
 10
70.42100868882798
 20
-103.063776786544
 30
0.0
 10
70.45271637160381
 20
-103.0259079164559
 30
0.0
 10
70.51512731821208
 20
-102.9513697660054
 30
0.0
 10
70.62068367356596
 20
-102.8534314402238
 30
0.0
 10
70.73498386990835
 20
-102.7713876650468
 30
0.0
 10
70.85659549600847
 20
-102.7033805289085
 30
0.0
 10
70.98693197006908
 20
-102.6517068819158
 30
0.0
 10
71.12424126110669
 20
-102.6131992996835
 30
0.0
 10
71.27008684733326
 20
-102.5916212886502
 30
0.0
 10
71.36979206817145
 20
-102.5885734550282
 30
0.0
 10
71.42080836831518
 20
-102.5870139660311
 30
0.0
  0
SPLINE
  5
146
330
1F
100
AcDbEntity
  8
0
  6
Continuous
 62
     7
370
    25
100
AcDbSpline
210
0.0
220
0.0
230
1.0
 70
     8
 71
     3
 72
    15
 73
    11
 74
     0
 42
0.00000001
 43
0.00000001
 40
0.0
 40
0.0
 40
0.0
 40
0.0
 40
0.1320402344259768
 40
0.2590328407793613
 40
0.3818798239250081
 40
0.5022584437149774
 40
0.6227521895274767
 40
0.7447426318589951
 40
0.870108927341816
 40
0.9999999999999999
 40
0.9999999999999999
 40
0.9999999999999999
 40
0.9999999999999999
 10
71.42080836831518
 20
-102.5870139660311
 30
0.0
 10
71.47325597361885
 20
-102.5883680149236
 30
0.0
 10
71.5761462195575
 20
-102.5910243501892
 30
0.0
 10
71.72617834059432
 20
-102.6156506835982
 30
0.0
 10
71.86813905713494
 20
-102.6547032381617
 30
0.0
 10
72.0019715614437
 20
-102.7098570286622
 30
0.0
 10
72.12768942219658
 20
-102.7810165804526
 30
0.0
 10
72.24447547177122
 20
-102.8691584219335
 30
0.0
 10
72.35432698432001
 20
-102.9715765091586
 30
0.0
 10
72.41823556317222
 20
-103.0503397185859
 30
0.0
 10
72.45075628498184
 20
-103.0904194147491
 30
0.0
  0
SPLINE
  5
147
330
1F
100
AcDbEntity
  8
0
  6
Continuous
 62
     7
370
    25
100
AcDbSpline
210
0.0
220
0.0
230
1.0
 70
     8
 71
     3
 72
    15
 73
    11
 74
     0
 42
0.00000001
 43
0.00000001
 40
0.0
 40
0.0
 40
0.0
 40
0.0
 40
0.1185218400132578
 40
0.2362547631617485
 40
0.3561744339909303
 40
0.4772496548985484
 40
0.601539870821702
 40
0.7296183821680355
 40
0.8621582661414359
 40
1.0
 40
1.0
 40
1.0
 40
1.0
 10
72.45075628498185
 20
-103.0904194147491
 30
0.0
 10
72.47288322329432
 20
-103.1206229961354
 30
0.0
 10
72.51698981639082
 20
-103.1808291148242
 30
0.0
 10
72.57223691642596
 20
-103.2790002719249
 30
0.0
 10
72.62019431140962
 20
-103.381710866275
 30
0.0
 10
72.65852727242437
 20
-103.490621163362
 30
0.0
 10
72.68956677362095
 20
-103.604440743535
 30
0.0
 10
72.71202359236112
 20
-103.7239832882493
 30
0.0
 10
72.72519321094296
 20
-103.8492131996101
 30
0.0
 10
72.72778190829139
 20
-103.9345397550868
 30
0.0
 10
72.72910163754594
 20
-103.9780396070568
 30
0.0
  0
LINE
  5
148
330
1F
100
AcDbEntity
  8
0
  6
Continuous
 62
     7
370
    25
100
AcDbLine
 10
72.7291016375
 20
-103.9780396071
 30
0.0
 11
70.4406400991
 21
-103.9780396071
 31
0.0
  0
LINE
  5
149
330
1F
100
AcDbEntity
  8
0
  6
Continuous
 62
     7
370
    25
100
AcDbLine
 10
68.6906400991
 20
-105.1895780686
 30
0.0
 11
68.6906400991
 21
-102.0485524276
 31
0.0
  0
LINE
  5
14A
330
1F
100
AcDbEntity
  8
0
  6
Continuous
 62
     7
370
    25
100
AcDbLine
 10
68.6906400991
 20
-102.0485524276
 30
0.0
 11
67.9278195863
 21
-102.0485524276
 31
0.0
  0
LINE
  5
14B
330
1F
100
AcDbEntity
  8
0
  6
Continuous
 62
     7
370
    25
100
AcDbLine
 10
67.9278195863
 20
-102.0485524276
 30
0.0
 11
67.9278195863
 21
-101.6895780686
 31
0.0
  0
LINE
  5
14C
330
1F
100
AcDbEntity
  8
0
  6
Continuous
 62
     7
370
    25
100
AcDbLine
 10
67.9278195863
 20
-101.6895780686
 30
0.0
 11
69.767563176
 21
-101.6895780686
 31
0.0
  0
LINE
  5
14D
330
1F
100
AcDbEntity
  8
0
  6
Continuous
 62
     7
370
    25
100
AcDbLine
 10
69.767563176
 20
-101.6895780686
 30
0.0
 11
69.767563176
 21
-102.0485524276
 31
0.0
  0
LINE
  5
14E
330
1F
100
AcDbEntity
  8
0
  6
Continuous
 62
     7
370
    25
100
AcDbLine
 10
69.767563176
 20
-102.0485524276
 30
0.0
 11
69.0047426632
 21
-102.0485524276
 31
0.0
  0
LINE
  5
14F
330
1F
100
AcDbEntity
  8
0
  6
Continuous
 62
     7
370
    25
100
AcDbLine
 10
69.0047426632
 20
-102.0485524276
 30
0.0
 11
69.0047426632
 21
-105.1895780686
 31
0.0
  0
LINE
  5
150
330
1F
100
AcDbEntity
  8
0
  6
Continuous
 62
     7
370
    25
100
AcDbLine
 10
69.0047426632
 20
-105.1895780686
 30
0.0
 11
68.6906400991
 21
-105.1895780686
 31
0.0
  0
MTEXT
  5
152
330
1F
100
AcDbEntity
  8
0
  6
Continuous
 62
     7
100
AcDbMText
 10
-110.0
 20
-111.0195663917
 30
0.0
 40
4.83362
 41
0.0
 71
     1
 72
     1
  1
SOLIDWORKS Educational Product.
  7
SLDTEXTSTYLE0
 73
     1
 44
1.0
  0
MTEXT
  5
153
330
1F
100
AcDbEntity
  8
0
  6
Continuous
 62
     7
100
AcDbMText
 10
-110.0
 20
-118.2699963917
 30
0.0
 40
4.83362
 41
0.0
 71
     1
 72
     1
  1
For Instructional Use Only.
  7
SLDTEXTSTYLE0
 73
     1
 44
1.0
  0
ENDSEC
  0
SECTION
  2
OBJECTS
  0
DICTIONARY
  5
C
330
0
100
AcDbDictionary
281
     1
  3
ACAD_GROUP
350
D
  3
ACAD_LAYOUT
350
1A
  3
ACAD_MLINESTYLE
350
17
  3
ACAD_PLOTSETTINGS
350
19
  3
ACAD_PLOTSTYLENAME
350
E
  3
ACAD_SCALELIST
350
47
  3
DWGPROPS
350
154
  0
DICTIONARY
  5
D
102
{ACAD_REACTORS
330
C
102
}
330
C
100
AcDbDictionary
281
     1
  0
DICTIONARY
  5
1A
102
{ACAD_REACTORS
330
C
102
}
330
C
100
AcDbDictionary
281
     1
  3
Layout1
350
1E
  3
Layout2
350
26
  3
Model
350
22
  0
DICTIONARY
  5
17
102
{ACAD_REACTORS
330
C
102
}
330
C
100
AcDbDictionary
281
     1
  3
Standard
350
18
  0
DICTIONARY
  5
19
102
{ACAD_REACTORS
330
C
102
}
330
C
100
AcDbDictionary
281
     1
  0
ACDBDICTIONARYWDFLT
  5
E
102
{ACAD_REACTORS
330
C
102
}
330
C
100
AcDbDictionary
281
     1
  3
Normal
350
F
100
AcDbDictionaryWithDefault
340
F
  0
DICTIONARY
  5
47
102
{ACAD_REACTORS
330
C
102
}
330
C
100
AcDbDictionary
281
     1
  3
A0
350
48
  3
A1
350
49
  3
A2
350
4A
  3
A3
350
4B
  3
A4
350
4C
  3
A5
350
4D
  3
A6
350
4E
  3
A7
350
4F
  3
A8
350
50
  3
A9
350
51
  3
B0
350
52
  3
B1
350
53
  3
B2
350
54
  3
B3
350
55
  3
B4
350
56
  3
B5
350
57
  3
B6
350
58
  3
B7
350
59
  3
B8
350
5A
  3
B9
350
5B
  3
C0
350
5C
  3
C1
350
5D
  3
C2
350
5E
  3
C3
350
5F
  3
C4
350
60
  3
C5
350
61
  3
C6
350
62
  3
C7
350
63
  3
C8
350
64
  3
C9
350
65
  3
D0
350
66
  3
D1
350
67
  3
D2
350
68
  0
XRECORD
  5
154
102
{ACAD_REACTORS
330
C
102
}
330
C
100
AcDbXrecord
280
     1
  1
DWGPROPS COOKIE
  2

  3

  4

  6

  7

  8
casto
  9

300
=
301
=
302
=
303
=
304
=
305
=
306
=
307
=
308
=
309
=
 40
0.0
 41
2459454.649534525
 42
2459454.649559757
  1

 90
        0
  0
LAYOUT
  5
1E
102
{ACAD_REACTORS
330
1A
102
}
330
1A
100
AcDbPlotSettings
  1

  2
none_device
  4

  6

 40
0.0
 41
0.0
 42
0.0
 43
0.0
 44
0.0
 45
0.0
 46
0.0
 47
0.0
 48
0.0
 49
0.0
140
0.0
141
0.0
142
1.0
143
1.0
 70
   688
 72
     1
 73
     0
 74
     5
  7

 75
    16
147
1.0
148
0.0
149
0.0
100
AcDbLayout
  1
Layout1
 70
     1
 71
     1
 10
0.0
 20
0.0
 11
420.0
 21
297.0
 12
0.0
 22
0.0
 32
0.0
 14
1.0000000000E+20
 24
1.0000000000E+20
 34
1.0000000000E+20
 15
-1.0000000000E+20
 25
-1.0000000000E+20
 35
-1.0000000000E+20
146
0.0
 13
0.0
 23
0.0
 33
0.0
 16
1.0
 26
0.0
 36
0.0
 17
0.0
 27
1.0
 37
0.0
 76
     0
330
1B
  0
LAYOUT
  5
26
102
{ACAD_REACTORS
330
1A
102
}
330
1A
100
AcDbPlotSettings
  1

  2
none_device
  4

  6

 40
0.0
 41
0.0
 42
0.0
 43
0.0
 44
0.0
 45
0.0
 46
0.0
 47
0.0
 48
0.0
 49
0.0
140
0.0
141
0.0
142
1.0
143
1.0
 70
   688
 72
     1
 73
     0
 74
     5
  7

 75
    16
147
1.0
148
0.0
149
0.0
100
AcDbLayout
  1
Layout2
 70
     1
 71
     2
 10
0.0
 20
0.0
 11
0.0
 21
0.0
 12
0.0
 22
0.0
 32
0.0
 14
0.0
 24
0.0
 34
0.0
 15
0.0
 25
0.0
 35
0.0
146
0.0
 13
0.0
 23
0.0
 33
0.0
 16
1.0
 26
0.0
 36
0.0
 17
0.0
 27
1.0
 37
0.0
 76
     0
330
23
  0
LAYOUT
  5
22
102
{ACAD_REACTORS
330
1A
102
}
330
1A
100
AcDbPlotSettings
  1

  2
none_device
  4
ANSI_A_(11.00_x_8.50_Inches)
  6

 40
6.35
 41
19.05
 42
6.35000508
 43
19.05000254
 44
279.4
 45
215.9
 46
133.34999746
 47
88.89999873
 48
0.0
 49
0.0
140
0.0
141
0.0
142
0.03825
143
1.0
 70
  1696
 72
     0
 73
     0
 74
     0
  7

 75
     0
147
0.0179189148
148
-1300.4909072572
149
0.0
100
AcDbLayout
  1
Model
 70
     1
 71
     0
 10
0.0
 20
0.0
 11
420.0
 21
297.0
 12
0.0
 22
0.0
 32
0.0
 14
-110.0
 24
-110.0
 34
0.0
 15
110.0
 25
110.0
 35
0.0
146
0.0
 13
0.0
 23
0.0
 33
0.0
 16
1.0
 26
0.0
 36
0.0
 17
0.0
 27
1.0
 37
0.0
 76
     0
330
1F
331
29
  0
MLINESTYLE
  5
18
102
{ACAD_REACTORS
330
17
102
}
330
17
100
AcDbMlineStyle
  2
Standard
 70
     0
  3

 62
   256
 51
90.0
 52
90.0
 71
     2
 49
0.5
 62
   256
  6
BYLAYER
 49
-0.5
 62
   256
  6
BYLAYER
  0
ACDBPLACEHOLDER
  5
F
102
{ACAD_REACTORS
330
E
102
}
330
E
  0
SCALE
  5
48
102
{ACAD_REACTORS
330
47
102
}
330
47
100
AcDbScale
 70
     0
300
1:1
140
1.0
141
1.0
290
     1
  0
SCALE
  5
49
102
{ACAD_REACTORS
330
47
102
}
330
47
100
AcDbScale
 70
     0
300
1:2
140
1.0
141
2.0
290
     0
  0
SCALE
  5
4A
102
{ACAD_REACTORS
330
47
102
}
330
47
100
AcDbScale
 70
     0
300
1:4
140
1.0
141
4.0
290
     0
  0
SCALE
  5
4B
102
{ACAD_REACTORS
330
47
102
}
330
47
100
AcDbScale
 70
     0
300
1:5
140
1.0
141
5.0
290
     0
  0
SCALE
  5
4C
102
{ACAD_REACTORS
330
47
102
}
330
47
100
AcDbScale
 70
     0
300
1:8
140
1.0
141
8.0
290
     0
  0
SCALE
  5
4D
102
{ACAD_REACTORS
330
47
102
}
330
47
100
AcDbScale
 70
     0
300
1:10
140
1.0
141
10.0
290
     0
  0
SCALE
  5
4E
102
{ACAD_REACTORS
330
47
102
}
330
47
100
AcDbScale
 70
     0
300
1:16
140
1.0
141
16.0
290
     0
  0
SCALE
  5
4F
102
{ACAD_REACTORS
330
47
102
}
330
47
100
AcDbScale
 70
     0
300
1:20
140
1.0
141
20.0
290
     0
  0
SCALE
  5
50
102
{ACAD_REACTORS
330
47
102
}
330
47
100
AcDbScale
 70
     0
300
1:30
140
1.0
141
30.0
290
     0
  0
SCALE
  5
51
102
{ACAD_REACTORS
330
47
102
}
330
47
100
AcDbScale
 70
     0
300
1:40
140
1.0
141
40.0
290
     0
  0
SCALE
  5
52
102
{ACAD_REACTORS
330
47
102
}
330
47
100
AcDbScale
 70
     0
300
1:50
140
1.0
141
50.0
290
     0
  0
SCALE
  5
53
102
{ACAD_REACTORS
330
47
102
}
330
47
100
AcDbScale
 70
     0
300
1:100
140
1.0
141
100.0
290
     0
  0
SCALE
  5
54
102
{ACAD_REACTORS
330
47
102
}
330
47
100
AcDbScale
 70
     0
300
2:1
140
2.0
141
1.0
290
     0
  0
SCALE
  5
55
102
{ACAD_REACTORS
330
47
102
}
330
47
100
AcDbScale
 70
     0
300
4:1
140
4.0
141
1.0
290
     0
  0
SCALE
  5
56
102
{ACAD_REACTORS
330
47
102
}
330
47
100
AcDbScale
 70
     0
300
8:1
140
8.0
141
1.0
290
     0
  0
SCALE
  5
57
102
{ACAD_REACTORS
330
47
102
}
330
47
100
AcDbScale
 70
     0
300
10:1
140
10.0
141
1.0
290
     0
  0
SCALE
  5
58
102
{ACAD_REACTORS
330
47
102
}
330
47
100
AcDbScale
 70
     0
300
100:1
140
100.0
141
1.0
290
     0
  0
SCALE
  5
59
102
{ACAD_REACTORS
330
47
102
}
330
47
100
AcDbScale
 70
     0
300
1/128" = 1'-0"
140
0.0078125
141
12.0
290
     0
  0
SCALE
  5
5A
102
{ACAD_REACTORS
330
47
102
}
330
47
100
AcDbScale
 70
     0
300
1/64" = 1'-0"
140
0.015625
141
12.0
290
     0
  0
SCALE
  5
5B
102
{ACAD_REACTORS
330
47
102
}
330
47
100
AcDbScale
 70
     0
300
1/32" = 1'-0"
140
0.03125
141
12.0
290
     0
  0
SCALE
  5
5C
102
{ACAD_REACTORS
330
47
102
}
330
47
100
AcDbScale
 70
     0
300
1/16" = 1'-0"
140
0.0625
141
12.0
290
     0
  0
SCALE
  5
5D
102
{ACAD_REACTORS
330
47
102
}
330
47
100
AcDbScale
 70
     0
300
3/32" = 1'-0"
140
0.09375
141
12.0
290
     0
  0
SCALE
  5
5E
102
{ACAD_REACTORS
330
47
102
}
330
47
100
AcDbScale
 70
     0
300
1/8" = 1'-0"
140
0.125
141
12.0
290
     0
  0
SCALE
  5
5F
102
{ACAD_REACTORS
330
47
102
}
330
47
100
AcDbScale
 70
     0
300
3/16" = 1'-0"
140
0.1875
141
12.0
290
     0
  0
SCALE
  5
60
102
{ACAD_REACTORS
330
47
102
}
330
47
100
AcDbScale
 70
     0
300
1/4" = 1'-0"
140
0.25
141
12.0
290
     0
  0
SCALE
  5
61
102
{ACAD_REACTORS
330
47
102
}
330
47
100
AcDbScale
 70
     0
300
3/8" = 1'-0"
140
0.375
141
12.0
290
     0
  0
SCALE
  5
62
102
{ACAD_REACTORS
330
47
102
}
330
47
100
AcDbScale
 70
     0
300
1/2" = 1'-0"
140
0.5
141
12.0
290
     0
  0
SCALE
  5
63
102
{ACAD_REACTORS
330
47
102
}
330
47
100
AcDbScale
 70
     0
300
3/4" = 1'-0"
140
0.75
141
12.0
290
     0
  0
SCALE
  5
64
102
{ACAD_REACTORS
330
47
102
}
330
47
100
AcDbScale
 70
     0
300
1" = 1'-0"
140
1.0
141
12.0
290
     0
  0
SCALE
  5
65
102
{ACAD_REACTORS
330
47
102
}
330
47
100
AcDbScale
 70
     0
300
1-1/2" = 1'-0"
140
1.5
141
12.0
290
     0
  0
SCALE
  5
66
102
{ACAD_REACTORS
330
47
102
}
330
47
100
AcDbScale
 70
     0
300
3" = 1'-0"
140
3.0
141
12.0
290
     0
  0
SCALE
  5
67
102
{ACAD_REACTORS
330
47
102
}
330
47
100
AcDbScale
 70
     0
300
6" = 1'-0"
140
6.0
141
12.0
290
     0
  0
SCALE
  5
68
102
{ACAD_REACTORS
330
47
102
}
330
47
100
AcDbScale
 70
     0
300
1'-0" = 1'-0"
140
12.0
141
12.0
290
     0
  0
ENDSEC
  0
EOF
