<?xml version="1.0" encoding="UTF-8" standalone="no"?>
<!-- Created with Inkscape (http://www.inkscape.org/) -->

<svg
   width="32in"
   height="18in"
   viewBox="0 0 812.80001 457.20001"
   version="1.1"
   id="svg5"
   sodipodi:docname="motor_plate_2.svg"
   inkscape:version="1.1 (c68e22c387, 2021-05-23)"
   xmlns:inkscape="http://www.inkscape.org/namespaces/inkscape"
   xmlns:sodipodi="http://sodipodi.sourceforge.net/DTD/sodipodi-0.dtd"
   xmlns="http://www.w3.org/2000/svg"
   xmlns:svg="http://www.w3.org/2000/svg">
  <sodipodi:namedview
     id="namedview7"
     pagecolor="#505050"
     bordercolor="#ffffff"
     borderopacity="1"
     inkscape:pageshadow="0"
     inkscape:pageopacity="0"
     inkscape:pagecheckerboard="1"
     inkscape:document-units="mm"
     showgrid="false"
     inkscape:zoom="0.7500982"
     inkscape:cx="843.22292"
     inkscape:cy="511.26639"
     inkscape:window-width="2560"
     inkscape:window-height="1027"
     inkscape:window-x="-8"
     inkscape:window-y="-8"
     inkscape:window-maximized="1"
     inkscape:current-layer="layer1"
     showguides="false"
     units="in" />
  <defs
     id="defs2">
    <marker
       id="DistanceX"
       orient="auto"
       refX="0.0"
       refY="0.0"
       style="overflow:visible">
      <path
         d="M 3,-3 L -3,3 M 0,-5 L  0,5"
         style="stroke:#000000; stroke-width:0.5"
         id="path4819" />
    </marker>
    <pattern
       id="Hatch"
       patternUnits="userSpaceOnUse"
       width="8"
       height="8"
       x="0"
       y="0">
      <path
         d="M8 4 l-4,4"
         stroke="#000000"
         stroke-width="0.25"
         linecap="square"
         id="path4822" />
      <path
         d="M6 2 l-4,4"
         stroke="#000000"
         stroke-width="0.25"
         linecap="square"
         id="path4824" />
      <path
         d="M4 0 l-4,4"
         stroke="#000000"
         stroke-width="0.25"
         linecap="square"
         id="path4826" />
    </pattern>
    <symbol
       id="*Model_Space" />
    <symbol
       id="*Paper_Space" />
    <symbol
       id="*Paper_Space0" />
  </defs>
  <g
     inkscape:label="Layer 1"
     inkscape:groupmode="layer"
     id="layer1">
    <g
       id="g8905"
       transform="translate(-530.318,-184.28977)">
      <g
         id="g8641">
        <g
           id="g8416">
          <path
             d="m 723.70461,407.66673 c 5.3e-4,-0.0236 10e-4,-0.0473 0.003,-0.0708 0.002,-0.0225 0.004,-0.0451 0.008,-0.0673 0.004,-0.0217 0.009,-0.0432 0.0147,-0.0645 0.006,-0.0209 0.012,-0.0415 0.0196,-0.0617 0.008,-0.0198 0.0163,-0.0393 0.026,-0.0582 0.01,-0.019 0.0202,-0.0374 0.0315,-0.0554 0.0115,-0.0183 0.0239,-0.0357 0.0372,-0.0526 0.0134,-0.0172 0.0277,-0.0334 0.0428,-0.0491 0.0151,-0.0159 0.031,-0.0308 0.0477,-0.0449 0.0162,-0.0138 0.033,-0.0266 0.0505,-0.0386 0.0172,-0.0119 0.035,-0.0228 0.0533,-0.0329 0.0182,-0.0101 0.0369,-0.0193 0.0561,-0.0274 0.0194,-0.008 0.0394,-0.0151 0.0596,-0.0212 0.0205,-0.006 0.0414,-0.0108 0.0624,-0.0148 0.0216,-0.004 0.0433,-0.007 0.0652,-0.009 0.0228,-0.003 0.0458,-0.003 0.0687,-0.003"
             style="fill:none;stroke:#666666;stroke-width:0.238125;stroke-linecap:round"
             id="path4834" />
          <path
             d="m 724.35105,406.99574 c 0.0272,0 0.0544,0.003 0.0813,0.006 0.0275,0.003 0.0546,0.009 0.0813,0.0169 0.0279,0.008 0.0553,0.0175 0.082,0.0288 0.0281,0.0116 0.0555,0.0251 0.082,0.04 0.028,0.0156 0.055,0.0329 0.0813,0.0512 0.0282,0.0196 0.0555,0.0406 0.082,0.0624 0.0285,0.0236 0.0563,0.0479 0.0827,0.0736 0.0283,0.0275 0.0552,0.0565 0.082,0.0855"
             style="fill:none;stroke:#666666;stroke-width:0.238125;stroke-linecap:round"
             id="path4836" />
          <path
             style="fill:none;stroke:#666666;stroke-width:0.238125;stroke-linecap:round"
             d="m 725.00589,407.36084 -0.21325,0.21696"
             id="path4838" />
          <path
             d="m 724.79275,407.5791 c -0.0184,-0.0214 -0.0368,-0.0427 -0.0561,-0.0631 -0.0179,-0.019 -0.0366,-0.0373 -0.0561,-0.0547 -0.0181,-0.0161 -0.0368,-0.0316 -0.0561,-0.0463 -0.0177,-0.0135 -0.0358,-0.0262 -0.0547,-0.0379 -0.0178,-0.0109 -0.0364,-0.0209 -0.0554,-0.0294 -0.0178,-0.008 -0.036,-0.0153 -0.0547,-0.0212 -0.0179,-0.006 -0.0362,-0.01 -0.0547,-0.0127 -0.0179,-0.003 -0.0359,-0.003 -0.054,-0.004"
             style="fill:none;stroke:#666666;stroke-width:0.238125;stroke-linecap:round"
             id="path4840" />
          <path
             d="m 724.35105,407.30986 c -0.0222,0 -0.0443,0.003 -0.0659,0.006 -0.0209,0.004 -0.0414,0.0108 -0.061,0.0196 -0.02,0.009 -0.0391,0.0196 -0.0568,0.0323 -0.0186,0.0132 -0.0355,0.0289 -0.0512,0.0456 -0.0158,0.0167 -0.0302,0.0347 -0.0428,0.054 -0.0118,0.0183 -0.022,0.0374 -0.0302,0.0575 -0.008,0.0201 -0.0145,0.0411 -0.0182,0.0624 -0.004,0.022 -0.005,0.0443 -0.006,0.0666"
             style="fill:none;stroke:#666666;stroke-width:0.238125;stroke-linecap:round"
             id="path4842" />
          <path
             d="m 724.01871,407.6541 c 10e-4,0.0201 0.002,0.0404 0.006,0.0603 0.003,0.0198 0.009,0.0393 0.0161,0.0582 0.007,0.0199 0.0166,0.0392 0.0273,0.0575 0.0114,0.0196 0.0246,0.0378 0.0379,0.0561"
             style="fill:none;stroke:#666666;stroke-width:0.238125;stroke-linecap:round"
             id="path4844" />
          <path
             d="m 724.10565,407.88617 c 0.008,0.01 0.0159,0.0196 0.0245,0.0288 0.01,0.0103 0.0203,0.0198 0.0308,0.0294 0.012,0.0108 0.024,0.0214 0.0365,0.0315 0.0138,0.0114 0.0282,0.022 0.0428,0.0323 0.0161,0.0116 0.0325,0.0227 0.0491,0.0336 0.018,0.0117 0.0363,0.023 0.0547,0.0344 0.02,0.0124 0.04,0.0246 0.0603,0.0365 0.022,0.0127 0.0443,0.0249 0.0666,0.0372"
             style="fill:none;stroke:#666666;stroke-width:0.238125;stroke-linecap:round"
             id="path4846" />
          <path
             d="m 724.47094,408.1498 c 0.0272,0.0153 0.0544,0.0305 0.0813,0.0463 0.025,0.0148 0.0499,0.0299 0.0743,0.0456 0.023,0.0148 0.0456,0.0299 0.068,0.0456 0.0207,0.0145 0.0411,0.0293 0.061,0.0449 0.0185,0.0143 0.0364,0.0294 0.054,0.0449 0.0163,0.0143 0.0323,0.0289 0.0477,0.0442 0.0142,0.014 0.0279,0.0288 0.0407,0.0442 0.0117,0.014 0.0227,0.0288 0.0337,0.0435"
             style="fill:none;stroke:#666666;stroke-width:0.238125;stroke-linecap:round"
             id="path4848" />
          <path
             d="m 724.93158,408.50876 c 0.0182,0.0297 0.0364,0.0593 0.0519,0.0905 0.0153,0.0308 0.0279,0.063 0.0379,0.096 0.01,0.0333 0.0173,0.0673 0.0217,0.10165 0.005,0.0356 0.006,0.0714 0.008,0.10729"
             style="fill:none;stroke:#666666;stroke-width:0.238125;stroke-linecap:round"
             id="path4850" />
          <path
             d="m 725.05077,408.90421 c -8e-4,0.0254 -0.001,0.0505 -0.004,0.0757 -0.002,0.0243 -0.005,0.0488 -0.01,0.0729 -0.004,0.0236 -0.0101,0.047 -0.0168,0.0701 -0.007,0.0225 -0.0142,0.0449 -0.0231,0.0666 -0.009,0.022 -0.0196,0.0435 -0.0308,0.0645 -0.0113,0.0209 -0.0233,0.0413 -0.0365,0.061 -0.0135,0.0201 -0.028,0.0396 -0.0435,0.0582 -0.0159,0.0193 -0.0328,0.0377 -0.0505,0.0554 -0.0177,0.0177 -0.0361,0.0345 -0.0554,0.0505 -0.0187,0.0153 -0.038,0.03 -0.0582,0.0435 -0.0199,0.0132 -0.0405,0.0254 -0.0617,0.0365 -0.0212,0.0111 -0.043,0.0212 -0.0652,0.0301 -0.0225,0.009 -0.0454,0.0172 -0.0687,0.0238 -0.0238,0.007 -0.0479,0.0124 -0.0722,0.0169 -0.0249,0.005 -0.0499,0.008 -0.075,0.01 -0.0261,0.003 -0.0523,0.003 -0.0785,0.003"
             style="fill:none;stroke:#666666;stroke-width:0.238125;stroke-linecap:round"
             id="path4852" />
          <path
             d="m 724.30127,409.64319 c -0.0354,0 -0.0707,-0.003 -0.10587,-0.006 -0.0346,-0.003 -0.0691,-0.01 -0.10307,-0.0175 -0.0341,-0.008 -0.0678,-0.0175 -0.10096,-0.0287 -0.0336,-0.0114 -0.0667,-0.0249 -0.0989,-0.04 -0.032,-0.0151 -0.0632,-0.0319 -0.0933,-0.0505 -0.0294,-0.0182 -0.0577,-0.0382 -0.0848,-0.0596 -0.0268,-0.0212 -0.0525,-0.0437 -0.0764,-0.068 -0.0239,-0.0243 -0.046,-0.0504 -0.068,-0.0764"
             style="fill:none;stroke:#666666;stroke-width:0.238125;stroke-linecap:round"
             id="path4854" />
          <path
             style="fill:none;stroke:#666666;stroke-width:0.238125;stroke-linecap:round"
             d="m 723.57,409.29759 0.20823,-0.23812"
             id="path4856" />
          <path
             d="m 723.77823,409.05986 c 0.0198,0.0214 0.0395,0.0427 0.0603,0.0631 0.0195,0.019 0.0398,0.0374 0.061,0.0547 0.0201,0.0164 0.0409,0.0318 0.0624,0.0463 0.0202,0.0138 0.041,0.0265 0.0624,0.0379 0.0207,0.0111 0.042,0.0209 0.0638,0.0294 0.0213,0.008 0.0431,0.0154 0.0652,0.0212 0.0215,0.006 0.0432,0.01 0.0652,0.0127 0.0221,0.003 0.0443,0.003 0.0666,0.004"
             style="fill:none;stroke:#666666;stroke-width:0.238125;stroke-linecap:round"
             id="path4858" />
          <path
             d="m 724.28514,409.32908 c 0.0303,-0.003 0.0606,-0.003 0.0905,-0.008 0.0284,-0.005 0.0564,-0.0127 0.0834,-0.0233 0.0266,-0.0103 0.0523,-0.0227 0.0764,-0.0379 0.0248,-0.0156 0.0479,-0.034 0.0694,-0.054 0.021,-0.0196 0.0405,-0.0408 0.0575,-0.0638 0.0161,-0.022 0.03,-0.0453 0.0414,-0.0701 0.0109,-0.0238 0.0195,-0.0488 0.0245,-0.0743 0.005,-0.0265 0.007,-0.0536 0.008,-0.0806"
             style="fill:none;stroke:#666666;stroke-width:0.238125;stroke-linecap:round"
             id="path4860" />
          <path
             d="m 724.73666,408.91752 c -10e-4,-0.0222 -0.002,-0.0446 -0.006,-0.0666 -0.003,-0.0214 -0.009,-0.0425 -0.0161,-0.0631 -0.007,-0.0204 -0.0159,-0.0403 -0.0266,-0.0589 -0.0112,-0.0193 -0.0245,-0.0374 -0.0379,-0.0554"
             style="fill:none;stroke:#666666;stroke-width:0.238125;stroke-linecap:round"
             id="path4862" />
          <path
             d="m 724.65043,408.67354 c -0.008,-0.009 -0.016,-0.018 -0.0245,-0.0266 -0.01,-0.0101 -0.0207,-0.0196 -0.0316,-0.0288 -0.0126,-0.0106 -0.0254,-0.0209 -0.0386,-0.0308 -0.0147,-0.0111 -0.0297,-0.022 -0.0449,-0.0322 -0.017,-0.0116 -0.0344,-0.0228 -0.0519,-0.0337 -0.0194,-0.0119 -0.0391,-0.0236 -0.0589,-0.0351 -0.0216,-0.0124 -0.0433,-0.0251 -0.0652,-0.0371 -0.0239,-0.0132 -0.0481,-0.0262 -0.0722,-0.0393"
             style="fill:none;stroke:#666666;stroke-width:0.238125;stroke-linecap:round"
             id="path4864" />
          <path
             d="m 724.2627,408.40991 c -0.026,-0.0146 -0.0521,-0.0291 -0.0778,-0.0442 -0.0242,-0.0143 -0.0481,-0.0289 -0.0715,-0.0442 -0.0218,-0.0143 -0.0433,-0.0291 -0.0645,-0.0442 -0.0199,-0.014 -0.0396,-0.0285 -0.0589,-0.0435 -0.0178,-0.014 -0.0352,-0.0283 -0.0519,-0.0435 -0.0154,-0.014 -0.0303,-0.0285 -0.0449,-0.0435 -0.0136,-0.014 -0.0269,-0.0284 -0.0393,-0.0435 -0.0113,-0.0138 -0.0218,-0.0283 -0.0323,-0.0428"
             style="fill:none;stroke:#666666;stroke-width:0.238125;stroke-linecap:round"
             id="path4866" />
          <path
             d="m 723.8217,408.06074 c -0.0181,-0.0291 -0.0363,-0.0583 -0.0512,-0.089 -0.0149,-0.0308 -0.0266,-0.0631 -0.0365,-0.096 -0.01,-0.0332 -0.0179,-0.0669 -0.0224,-0.10097 -0.005,-0.0357 -0.006,-0.0718 -0.007,-0.10797"
             style="fill:none;stroke:#666666;stroke-width:0.238125;stroke-linecap:round"
             id="path4868" />
          <path
             style="fill:none;stroke:#666666;stroke-width:0.238125;stroke-linecap:round"
             d="m 725.54432,407.04069 h 0.44873"
             id="path4870" />
          <path
             style="fill:none;stroke:#666666;stroke-width:0.238125;stroke-linecap:round"
             d="m 725.99305,407.04069 v -1.03187"
             id="path4872" />
          <path
             style="fill:none;stroke:#666666;stroke-width:0.238125;stroke-linecap:round"
             d="m 725.99305,406.00882 h 0.31406"
             id="path4874" />
          <path
             style="fill:none;stroke:#666666;stroke-width:0.238125;stroke-linecap:round"
             d="m 726.30711,406.00882 v 1.03187"
             id="path4876" />
          <path
             style="fill:none;stroke:#666666;stroke-width:0.238125;stroke-linecap:round"
             d="m 726.30711,407.04069 h 0.44874"
             id="path4878" />
          <path
             style="fill:none;stroke:#666666;stroke-width:0.238125;stroke-linecap:round"
             d="m 726.75585,407.04069 v 0.31486"
             id="path4880" />
          <path
             style="fill:none;stroke:#666666;stroke-width:0.238125;stroke-linecap:round"
             d="m 726.75585,407.35555 h -0.44874"
             id="path4882" />
          <path
             style="fill:none;stroke:#666666;stroke-width:0.238125;stroke-linecap:round"
             d="m 726.30711,407.35555 v 2.24367"
             id="path4884" />
          <path
             style="fill:none;stroke:#666666;stroke-width:0.238125;stroke-linecap:round"
             d="m 726.30711,409.59922 h -0.31406"
             id="path4886" />
          <path
             style="fill:none;stroke:#666666;stroke-width:0.238125;stroke-linecap:round"
             d="m 725.99305,409.59922 v -2.24367"
             id="path4888" />
          <path
             style="fill:none;stroke:#666666;stroke-width:0.238125;stroke-linecap:round"
             d="m 725.99305,407.35555 h -0.44873"
             id="path4890" />
          <path
             style="fill:none;stroke:#666666;stroke-width:0.238125;stroke-linecap:round"
             d="m 725.54432,407.35555 v -0.31486"
             id="path4892" />
          <path
             d="m 729.36757,409.32908 c 0.0242,0 0.0484,-0.003 0.0722,-0.006 0.0233,-0.003 0.0463,-0.009 0.0687,-0.0169 0.0224,-0.007 0.0443,-0.0164 0.0652,-0.0273 0.0216,-0.0114 0.0421,-0.0246 0.0617,-0.0393 0.0199,-0.0148 0.0388,-0.0307 0.0561,-0.0484 0.017,-0.0172 0.0323,-0.0362 0.0463,-0.0561 0.0142,-0.0201 0.027,-0.0411 0.0379,-0.0631 0.0113,-0.0227 0.0205,-0.0466 0.028,-0.0708 0.004,-0.0138 0.008,-0.0274 0.0112,-0.0414 0.004,-0.0167 0.007,-0.0336 0.01,-0.0505 0.003,-0.0196 0.006,-0.0392 0.008,-0.0589 0.003,-0.0225 0.005,-0.0448 0.007,-0.0673 0.002,-0.0254 0.003,-0.0509 0.005,-0.0764 0.002,-0.0283 0.003,-0.0566 0.004,-0.0849 10e-4,-0.0311 0.002,-0.0622 0.002,-0.0932 5.3e-4,-0.0341 5.3e-4,-0.0682 8e-4,-0.10237"
             style="fill:none;stroke:#666666;stroke-width:0.238125;stroke-linecap:round"
             id="path4894" />
          <path
             style="fill:none;stroke:#666666;stroke-width:0.238125;stroke-linecap:round"
             d="m 729.852,408.42711 v -2.32833"
             id="path4896" />
          <path
             style="fill:none;stroke:#666666;stroke-width:0.238125;stroke-linecap:round"
             d="m 729.852,406.09878 h 0.31406"
             id="path4898" />
          <path
             style="fill:none;stroke:#666666;stroke-width:0.238125;stroke-linecap:round"
             d="m 730.16606,406.09878 v 2.36273"
             id="path4900" />
          <path
             d="m 730.16615,408.4618 c -2.6e-4,0.0437 -5.3e-4,0.0874 -10e-4,0.1311 -8e-4,0.0402 -0.002,0.0804 -0.003,0.1206 -0.002,0.037 -0.004,0.0739 -0.006,0.11078 -0.002,0.0332 -0.005,0.0664 -0.009,0.0996 -0.003,0.03 -0.007,0.0599 -0.0119,0.0898 -0.004,0.0265 -0.009,0.0529 -0.014,0.0792 -0.005,0.0233 -0.0104,0.0465 -0.0168,0.0694 -0.006,0.0196 -0.0118,0.0391 -0.019,0.0582 -0.0131,0.0349 -0.0292,0.0686 -0.0477,0.10097 -0.0181,0.0316 -0.0383,0.062 -0.061,0.0904 -0.0228,0.0286 -0.048,0.0552 -0.075,0.0799 -0.0276,0.0254 -0.0571,0.0487 -0.0883,0.0694 -0.0318,0.0212 -0.0654,0.0397 -0.10026,0.0554 -0.0358,0.0161 -0.0729,0.0294 -0.11078,0.0399 -0.0395,0.0111 -0.0799,0.019 -0.12059,0.0238 -0.0432,0.005 -0.0868,0.006 -0.13041,0.008"
             style="fill:none;stroke:#666666;stroke-width:0.238125;stroke-linecap:round"
             id="path4902" />
          <path
             d="m 729.35004,409.68806 c -0.034,0 -0.0679,-0.003 -0.10166,-0.006 -0.0341,-0.003 -0.0681,-0.01 -0.10166,-0.0169 -0.0339,-0.007 -0.0673,-0.0164 -0.10026,-0.0274 -0.0341,-0.0111 -0.0676,-0.0243 -0.10026,-0.0393 -0.035,-0.0159 -0.0692,-0.0338 -0.10236,-0.0533 -0.0369,-0.0217 -0.0725,-0.0452 -0.10728,-0.0701 -0.0388,-0.0278 -0.0764,-0.0571 -0.11288,-0.0877 -0.0401,-0.0336 -0.079,-0.0687 -0.11779,-0.10377"
             style="fill:none;stroke:#666666;stroke-width:0.238125;stroke-linecap:round"
             id="path4904" />
          <path
             style="fill:none;stroke:#666666;stroke-width:0.238125;stroke-linecap:round"
             d="m 728.5058,409.28436 0.18521,-0.26987"
             id="path4906" />
          <path
             d="m 728.69099,409.01499 c 0.0427,0.0294 0.0854,0.0589 0.12901,0.0869 0.0387,0.0249 0.0781,0.0487 0.11779,0.0722 0.0348,0.0206 0.0699,0.0411 0.10586,0.0596 0.0311,0.0159 0.0629,0.0304 0.0947,0.0449"
             style="fill:none;stroke:#666666;stroke-width:0.238125;stroke-linecap:round"
             id="path4908" />
          <path
             d="m 729.13831,409.27859 c 0.0193,0.008 0.0386,0.0151 0.0582,0.0217 0.0189,0.006 0.038,0.0119 0.0575,0.0161 0.019,0.004 0.0382,0.007 0.0575,0.009 0.0187,0.003 0.0374,0.003 0.0561,0.003"
             style="fill:none;stroke:#666666;stroke-width:0.238125;stroke-linecap:round"
             id="path4910" />
          <path
             d="m 731.08462,406.50216 c -0.0193,0 -0.0385,-0.003 -0.0575,-0.005 -0.0179,-0.003 -0.0356,-0.008 -0.0526,-0.0148 -0.0174,-0.007 -0.034,-0.0154 -0.0498,-0.0251 -0.0159,-0.01 -0.031,-0.0217 -0.0449,-0.0343 -0.0137,-0.0127 -0.0262,-0.0265 -0.0372,-0.0414 -0.0104,-0.0143 -0.0193,-0.0295 -0.0266,-0.0456 -0.007,-0.0156 -0.0127,-0.0322 -0.0161,-0.0491 -0.003,-0.0172 -0.005,-0.0349 -0.006,-0.0526"
             style="fill:none;stroke:#666666;stroke-width:0.238125;stroke-linecap:round"
             id="path4912" />
          <path
             d="m 730.79435,406.23432 c 10e-4,-0.0183 0.002,-0.0362 0.006,-0.054 0.003,-0.0172 0.009,-0.0338 0.0161,-0.0498 0.007,-0.0164 0.0162,-0.0319 0.0266,-0.0463 0.0109,-0.0151 0.0235,-0.0288 0.0372,-0.0414 0.0139,-0.0127 0.0289,-0.0243 0.0449,-0.0343 0.0157,-0.01 0.0324,-0.0185 0.0498,-0.0251 0.017,-0.007 0.0347,-0.0117 0.0526,-0.0148 0.019,-0.003 0.0382,-0.004 0.0575,-0.005"
             style="fill:none;stroke:#666666;stroke-width:0.238125;stroke-linecap:round"
             id="path4914" />
          <path
             d="m 731.08462,405.96371 c 0.0195,0 0.039,0.003 0.0582,0.005 0.0184,0.003 0.0366,0.008 0.054,0.0148 0.0174,0.007 0.034,0.0153 0.0498,0.0251 0.0159,0.0101 0.0309,0.0217 0.0449,0.0344 0.0139,0.0127 0.0268,0.0262 0.0379,0.0413 0.0105,0.0143 0.0194,0.03 0.0266,0.0463 0.007,0.0161 0.0128,0.0327 0.0161,0.0498 0.003,0.0177 0.005,0.0359 0.006,0.054"
             style="fill:none;stroke:#666666;stroke-width:0.238125;stroke-linecap:round"
             id="path4916" />
          <path
             d="m 731.37769,406.23432 c -10e-4,0.0177 -0.002,0.0353 -0.006,0.0526 -0.003,0.0169 -0.009,0.0333 -0.0161,0.0491 -0.007,0.0161 -0.0162,0.0314 -0.0266,0.0456 -0.0111,0.0151 -0.024,0.0288 -0.0379,0.0414 -0.014,0.0127 -0.0289,0.0243 -0.0449,0.0343 -0.0157,0.01 -0.0324,0.0185 -0.0498,0.0251 -0.0174,0.007 -0.0356,0.0117 -0.054,0.0148 -0.0192,0.003 -0.0387,0.004 -0.0582,0.005"
             style="fill:none;stroke:#666666;stroke-width:0.238125;stroke-linecap:round"
             id="path4918" />
          <path
             style="fill:none;stroke:#666666;stroke-width:0.238125;stroke-linecap:round"
             d="m 731.24318,409.59922 h -0.31432"
             id="path4920" />
          <path
             style="fill:none;stroke:#666666;stroke-width:0.238125;stroke-linecap:round"
             d="m 730.92886,409.59922 v -2.55853"
             id="path4922" />
          <path
             style="fill:none;stroke:#666666;stroke-width:0.238125;stroke-linecap:round"
             d="m 730.92886,407.04069 h 0.31432"
             id="path4924" />
          <path
             style="fill:none;stroke:#666666;stroke-width:0.238125;stroke-linecap:round"
             d="m 731.24318,407.04069 v 2.55853"
             id="path4926" />
          <path
             d="m 733.23706,406.99574 c 0.0471,0.003 0.0941,0.003 0.14093,0.007 0.0456,0.004 0.0911,0.0111 0.13602,0.0204 0.0443,0.009 0.088,0.0201 0.13111,0.0337 0.0429,0.0135 0.0851,0.0293 0.1262,0.0477 0.0422,0.0188 0.0832,0.0404 0.12269,0.0645 0.0422,0.0257 0.0827,0.0545 0.1213,0.0855 0.0413,0.0332 0.0806,0.0689 0.11779,0.10657 0.0404,0.0408 0.0784,0.0839 0.11638,0.12692"
             style="fill:none;stroke:#666666;stroke-width:0.238125;stroke-linecap:round"
             id="path4928" />
          <path
             style="fill:none;stroke:#666666;stroke-width:0.238125;stroke-linecap:round"
             d="m 734.24938,407.48784 v -0.44715"
             id="path4930" />
          <path
             style="fill:none;stroke:#666666;stroke-width:0.238125;stroke-linecap:round"
             d="m 734.24938,407.04069 h 0.31432"
             id="path4932" />
          <path
             style="fill:none;stroke:#666666;stroke-width:0.238125;stroke-linecap:round"
             d="m 734.5637,407.04069 v 2.02936"
             id="path4934" />
          <path
             d="m 734.56359,409.07037 c -2.7e-4,0.0432 -5.3e-4,0.0865 -10e-4,0.12969 -7.9e-4,0.0402 -0.002,0.0804 -0.004,0.1206 -0.002,0.0372 -0.005,0.0744 -0.008,0.1115 -0.003,0.0342 -0.006,0.0683 -0.01,0.10236 -0.004,0.0314 -0.008,0.0627 -0.0133,0.0939 -0.005,0.0282 -0.0101,0.0562 -0.0161,0.0841 -0.006,0.0254 -0.0116,0.0508 -0.0189,0.0757 -0.007,0.0225 -0.0142,0.0445 -0.0217,0.0666"
             style="fill:none;stroke:#666666;stroke-width:0.238125;stroke-linecap:round"
             id="path4936" />
          <path
             d="m 734.47034,409.85493 c -0.0112,0.0287 -0.0224,0.0574 -0.0351,0.0855 -0.0123,0.0272 -0.026,0.0539 -0.0407,0.0799 -0.0144,0.0257 -0.0298,0.0507 -0.0463,0.075 -0.0164,0.0241 -0.034,0.0476 -0.0526,0.0701 -0.0187,0.0225 -0.0384,0.0443 -0.0589,0.0652 -0.0205,0.0209 -0.0417,0.0411 -0.0638,0.0603 -0.0225,0.0196 -0.0459,0.038 -0.0701,0.0554 -0.0247,0.0177 -0.0503,0.0342 -0.0764,0.0498 -0.0263,0.0156 -0.0532,0.0305 -0.0806,0.0442 -0.0278,0.014 -0.0561,0.0267 -0.0848,0.0386 -0.0293,0.0122 -0.0589,0.0233 -0.089,0.0329 -0.0307,0.01 -0.0619,0.0183 -0.0933,0.0259 -0.0321,0.008 -0.0643,0.0151 -0.0968,0.0212 -0.0335,0.006 -0.0672,0.0109 -0.10095,0.0148 -0.035,0.004 -0.07,0.007 -0.10517,0.009 -0.0362,0.003 -0.0724,0.003 -0.10868,0.003"
             style="fill:none;stroke:#666666;stroke-width:0.238125;stroke-linecap:round"
             id="path4938" />
          <path
             d="m 733.26721,410.5855 c -0.0529,0 -0.10577,-0.003 -0.15845,-0.006 -0.0502,-0.004 -0.10026,-0.0101 -0.15004,-0.0183 -0.0478,-0.008 -0.0954,-0.0169 -0.14233,-0.0288 -0.0453,-0.0114 -0.09,-0.0254 -0.13391,-0.0414 -0.0419,-0.0154 -0.0831,-0.0323 -0.1234,-0.0512 -0.0381,-0.0177 -0.0754,-0.0373 -0.11148,-0.0589 -0.0341,-0.0204 -0.0672,-0.0426 -0.0989,-0.0666 -0.0307,-0.0233 -0.0601,-0.0482 -0.0876,-0.075 -0.0285,-0.0277 -0.055,-0.0574 -0.0799,-0.0884 -0.0273,-0.0339 -0.0526,-0.0694 -0.0764,-0.10588 -0.0264,-0.0405 -0.051,-0.0821 -0.0736,-0.12478 -0.0249,-0.0469 -0.0475,-0.095 -0.0701,-0.14303"
             style="fill:none;stroke:#666666;stroke-width:0.238125;stroke-linecap:round"
             id="path4940" />
          <path
             style="fill:none;stroke:#666666;stroke-width:0.238125;stroke-linecap:round"
             d="m 731.96099,409.77649 h 0.31407"
             id="path4942" />
          <path
             d="m 732.27512,409.77781 c 0.0253,0.0401 0.0505,0.0802 0.0792,0.11779 0.0274,0.0359 0.058,0.0695 0.0905,0.10094 0.0317,0.0308 0.0653,0.0596 0.10096,0.0855 0.0353,0.0257 0.0726,0.0487 0.11148,0.0687 0.04,0.0206 0.0816,0.0379 0.1241,0.0526 0.0452,0.0156 0.0914,0.0281 0.13812,0.0379 0.05,0.0106 0.10061,0.018 0.15144,0.0225 0.0552,0.005 0.1107,0.006 0.16616,0.008"
             style="fill:none;stroke:#666666;stroke-width:0.238125;stroke-linecap:round"
             id="path4944" />
          <path
             d="m 733.23706,410.27139 c 0.0548,-0.003 0.10954,-0.003 0.16407,-0.008 0.0506,-0.004 0.10099,-0.0119 0.15074,-0.0225 0.0465,-0.01 0.0925,-0.0222 0.13742,-0.0379 0.0425,-0.0148 0.084,-0.0323 0.1241,-0.0526 0.0378,-0.0191 0.0743,-0.0407 0.10937,-0.0645 0.0324,-0.022 0.0636,-0.0458 0.0925,-0.0722 0.027,-0.0246 0.0521,-0.0514 0.075,-0.0799 0.022,-0.0275 0.042,-0.0567 0.0589,-0.0876 0.009,-0.0161 0.0168,-0.0328 0.0238,-0.0498 0.008,-0.0185 0.0145,-0.0375 0.0203,-0.0568 0.006,-0.0212 0.012,-0.0428 0.0168,-0.0645 0.005,-0.0238 0.01,-0.048 0.014,-0.0722 0.004,-0.0262 0.008,-0.0527 0.0112,-0.0792 0.003,-0.0289 0.006,-0.0579 0.008,-0.0869 0.002,-0.0315 0.004,-0.0631 0.005,-0.0947 0.001,-0.0339 0.001,-0.0678 0.001,-0.10168"
             style="fill:none;stroke:#666666;stroke-width:0.238125;stroke-linecap:round"
             id="path4946" />
          <path
             style="fill:none;stroke:#666666;stroke-width:0.238125;stroke-linecap:round"
             d="m 734.24938,409.24203 v -0.13494"
             id="path4948" />
          <path
             d="m 734.24948,409.10823 c -0.0319,0.0379 -0.0638,0.0759 -0.0981,0.11147 -0.0338,0.035 -0.07,0.0677 -0.10798,0.0982 -0.0378,0.0304 -0.0774,0.0585 -0.11849,0.0841 -0.0415,0.0259 -0.0847,0.0492 -0.129,0.0701 -0.0443,0.0209 -0.0897,0.0396 -0.13602,0.0554 -0.0459,0.0156 -0.0928,0.0286 -0.14022,0.0392 -0.0474,0.0106 -0.0954,0.019 -0.14373,0.0238 -0.0493,0.005 -0.099,0.006 -0.14864,0.008"
             style="fill:none;stroke:#666666;stroke-width:0.238125;stroke-linecap:round"
             id="path4950" />
          <path
             d="m 733.22725,409.59832 c -0.0292,0 -0.0585,0 -0.0876,-0.003 -0.0288,-0.003 -0.0576,-0.005 -0.0862,-0.008 -0.0284,-0.004 -0.0567,-0.008 -0.0848,-0.0132 -0.028,-0.005 -0.0558,-0.0116 -0.0834,-0.019 -0.0276,-0.007 -0.055,-0.0154 -0.082,-0.0246 -0.0272,-0.009 -0.054,-0.0193 -0.0806,-0.0302 -0.027,-0.0109 -0.0537,-0.0225 -0.0799,-0.0351 -0.0264,-0.0127 -0.0523,-0.0262 -0.0778,-0.0407 -0.0255,-0.0143 -0.0505,-0.0296 -0.075,-0.0456 -0.0241,-0.0156 -0.0477,-0.032 -0.0708,-0.0491 -0.0227,-0.0169 -0.045,-0.0343 -0.0666,-0.0526 -0.0215,-0.0183 -0.0423,-0.0371 -0.0624,-0.0568 -0.0199,-0.0193 -0.039,-0.0396 -0.0575,-0.0603 -0.0185,-0.0206 -0.0363,-0.0419 -0.0533,-0.0638 -0.0171,-0.022 -0.0334,-0.0448 -0.0491,-0.068 -0.0157,-0.0233 -0.0308,-0.0471 -0.0449,-0.0715 -0.014,-0.0244 -0.027,-0.0491 -0.0393,-0.0743 -0.0122,-0.0251 -0.0237,-0.0506 -0.0344,-0.0764 -0.0106,-0.0257 -0.0205,-0.0516 -0.0294,-0.0778 -0.009,-0.0265 -0.0169,-0.053 -0.0238,-0.0799 -0.007,-0.0269 -0.013,-0.0541 -0.0182,-0.0813 -0.005,-0.0277 -0.01,-0.0555 -0.0133,-0.0835 -0.004,-0.0284 -0.006,-0.0569 -0.008,-0.0855 -0.002,-0.029 -0.002,-0.058 -0.003,-0.0869"
             style="fill:none;stroke:#666666;stroke-width:0.238125;stroke-linecap:round"
             id="path4952" />
          <path
             d="m 731.91615,408.31106 c 5.3e-4,-0.029 10e-4,-0.058 0.003,-0.0869 0.002,-0.0288 0.005,-0.0576 0.008,-0.0863 0.004,-0.0282 0.008,-0.0563 0.0133,-0.0841 0.005,-0.0278 0.0122,-0.0553 0.0196,-0.0827 0.007,-0.0274 0.0155,-0.0545 0.0245,-0.0813 0.009,-0.027 0.0192,-0.0537 0.0301,-0.0799 0.011,-0.0265 0.023,-0.0523 0.0358,-0.0778 0.013,-0.0262 0.0268,-0.0519 0.0414,-0.0771 0.0146,-0.0251 0.03,-0.0501 0.0463,-0.0743 0.016,-0.0241 0.0328,-0.0474 0.0505,-0.0701 0.0175,-0.0225 0.0358,-0.0445 0.0547,-0.0659 0.019,-0.0214 0.0386,-0.0423 0.0589,-0.0624 0.0204,-0.0201 0.0414,-0.0396 0.0631,-0.0582 0.0218,-0.0188 0.0443,-0.0367 0.0673,-0.054 0.0233,-0.0175 0.0472,-0.0344 0.0715,-0.0505 0.0247,-0.0164 0.05,-0.0317 0.0757,-0.0463 0.0258,-0.0145 0.052,-0.0282 0.0785,-0.0414 0.0261,-0.013 0.0524,-0.0254 0.0792,-0.0365 0.0265,-0.0111 0.0535,-0.0209 0.0806,-0.0301 0.0269,-0.009 0.0539,-0.018 0.0813,-0.0251 0.0273,-0.007 0.055,-0.0135 0.0827,-0.019 0.0279,-0.006 0.0559,-0.0101 0.0841,-0.014 0.0282,-0.004 0.0565,-0.007 0.0848,-0.008 0.0285,-0.003 0.057,-0.003 0.0855,-0.003"
             style="fill:none;stroke:#666666;stroke-width:0.238125;stroke-linecap:round"
             id="path4954" />
          <path
             d="m 560.85365,405.92688 c -0.002,0.0762 -0.003,0.15242 -0.0102,0.22817 -0.007,0.0743 -0.019,0.14814 -0.0341,0.22136 -0.0148,0.0718 -0.0324,0.14303 -0.0545,0.21283 -0.0222,0.07 -0.0489,0.13864 -0.0783,0.20603 -0.0297,0.068 -0.0622,0.13472 -0.0988,0.19923 -0.0372,0.0657 -0.0786,0.12917 -0.1226,0.19071 -0.0449,0.0628 -0.0926,0.12372 -0.14303,0.18219 -0.0527,0.0611 -0.10859,0.11951 -0.16686,0.17537 -0.0584,0.056 -0.1192,0.10935 -0.18219,0.16007 -0.0614,0.0494 -0.12487,0.0963 -0.19071,0.13962 -0.0648,0.0426 -0.13197,0.0818 -0.20092,0.11748 -0.0682,0.0353 -0.13811,0.0671 -0.20943,0.0953 -0.0719,0.0285 -0.1453,0.0535 -0.21966,0.0749 -0.0757,0.0217 -0.15242,0.0399 -0.22986,0.0545 -0.0789,0.0148 -0.15848,0.0259 -0.23839,0.0324 -0.0826,0.007 -0.16562,0.008 -0.24859,0.0103"
             style="fill:none;stroke:#666666;stroke-width:0.238125;stroke-linecap:round"
             id="path4956" />
          <path
             d="m 558.42556,408.22727 c -0.0642,0 -0.1284,-0.003 -0.19241,-0.007 -0.0632,-0.004 -0.12621,-0.0116 -0.189,-0.0204 -0.0617,-0.009 -0.12312,-0.019 -0.18389,-0.0324 -0.0602,-0.0132 -0.11979,-0.0296 -0.17879,-0.0477 -0.0585,-0.018 -0.11653,-0.0377 -0.17368,-0.0596 -0.0577,-0.0222 -0.11452,-0.0466 -0.17027,-0.0732 -0.0561,-0.0268 -0.11116,-0.0559 -0.16516,-0.0868 -0.0551,-0.0315 -0.10915,-0.0649 -0.16176,-0.10046 -0.0538,-0.0364 -0.10616,-0.075 -0.15665,-0.11578 -0.0529,-0.0428 -0.10368,-0.088 -0.15325,-0.13452 -0.0521,-0.0489 -0.1028,-0.0993 -0.15154,-0.15155 -0.0513,-0.055 -0.10048,-0.11202 -0.14814,-0.17026 -0.05,-0.0611 -0.0983,-0.12351 -0.14473,-0.18732 -0.049,-0.0673 -0.0959,-0.13618 -0.14132,-0.20601 -0.0477,-0.0733 -0.0937,-0.14766 -0.13792,-0.22307 -0.0468,-0.0798 -0.0915,-0.16079 -0.13622,-0.24177"
             style="fill:none;stroke:#666666;stroke-width:0.238125;stroke-linecap:round"
             id="path4958" />
          <path
             style="fill:none;stroke:#666666;stroke-width:0.238125;stroke-linecap:round"
             d="m 555.84084,406.36865 0.7186,-0.42862"
             id="path4960" />
          <path
             d="m 556.55938,405.93881 c 0.0668,0.11187 0.13366,0.22373 0.20603,0.33203 0.0663,0.0992 0.13722,0.19536 0.21284,0.28776 0.0695,0.0849 0.143,0.16666 0.22135,0.24349 0.0724,0.071 0.14903,0.13785 0.22987,0.19921 0.0752,0.0571 0.15404,0.10946 0.23668,0.15496 0.0786,0.0433 0.16058,0.0803 0.24519,0.11068 0.0825,0.0296 0.16745,0.0527 0.25371,0.0664 0.086,0.0138 0.17325,0.018 0.26051,0.0222"
             style="fill:none;stroke:#666666;stroke-width:0.238125;stroke-linecap:round"
             id="path4962" />
          <path
             d="m 558.42556,407.35547 c 0.0745,-0.003 0.14905,-0.004 0.22306,-0.0119 0.0727,-0.008 0.14492,-0.0206 0.21625,-0.0375 0.0709,-0.0167 0.14096,-0.0368 0.20943,-0.0613 0.0692,-0.0249 0.13675,-0.0541 0.20262,-0.0868 0.0645,-0.032 0.12739,-0.0674 0.18731,-0.10726 0.0573,-0.0381 0.11186,-0.0804 0.16346,-0.12603 0.0497,-0.0439 0.0966,-0.0909 0.13962,-0.14131 0.0425,-0.0497 0.0813,-0.10276 0.11579,-0.15835 0.0339,-0.0546 0.0637,-0.11171 0.0902,-0.17029 0.0258,-0.057 0.0487,-0.11538 0.0664,-0.17536 0.0173,-0.0584 0.0298,-0.11838 0.0375,-0.17878 0.008,-0.0615 0.0108,-0.12359 0.0136,-0.18561"
             style="fill:none;stroke:#666666;stroke-width:0.238125;stroke-linecap:round"
             id="path4964" />
          <path
             d="m 560.09083,405.91497 c -0.004,-0.0708 -0.007,-0.14155 -0.0187,-0.21114 -0.012,-0.0719 -0.0324,-0.1425 -0.0579,-0.21113 -0.0264,-0.0712 -0.0582,-0.14018 -0.0953,-0.20603 -0.0401,-0.0711 -0.0865,-0.13859 -0.13281,-0.20604"
             style="fill:none;stroke:#666666;stroke-width:0.238125;stroke-linecap:round"
             id="path4966" />
          <path
             d="m 559.78604,405.08063 c -0.0381,-0.0487 -0.0761,-0.0974 -0.11579,-0.14472 -0.0436,-0.0521 -0.0892,-0.10255 -0.13621,-0.15156 -0.052,-0.0541 -0.10577,-0.10652 -0.16006,-0.15835 -0.0593,-0.0566 -0.11916,-0.11255 -0.18049,-0.16687 -0.0663,-0.0587 -0.13431,-0.11555 -0.20262,-0.17195 -0.0738,-0.0609 -0.14785,-0.12142 -0.22306,-0.1805 -0.0812,-0.0638 -0.16375,-0.126 -0.2469,-0.1873 -0.0886,-0.0653 -0.17798,-0.12973 -0.26732,-0.19413"
             style="fill:none;stroke:#666666;stroke-width:0.238125;stroke-linecap:round"
             id="path4968" />
          <path
             d="m 558.25359,403.72525 c -0.0894,-0.0637 -0.17886,-0.12739 -0.26733,-0.1924 -0.0807,-0.0593 -0.16055,-0.11965 -0.24008,-0.18047 -0.0713,-0.0546 -0.1424,-0.10949 -0.21284,-0.16518 -0.063,-0.0498 -0.12552,-0.10023 -0.1873,-0.15153 -0.0545,-0.0453 -0.10845,-0.0912 -0.16176,-0.13793 -0.0456,-0.04 -0.0908,-0.0805 -0.13452,-0.12261 -0.037,-0.0356 -0.0729,-0.0724 -0.10727,-0.11067 -0.028,-0.0311 -0.0548,-0.0632 -0.0817,-0.0954"
             style="fill:none;stroke:#666666;stroke-width:0.238125;stroke-linecap:round"
             id="path4970" />
          <path
             d="m 556.86076,402.5691 c -0.0376,-0.05 -0.0752,-0.10004 -0.11068,-0.15152 -0.0343,-0.0498 -0.0668,-0.10089 -0.0971,-0.15325 -0.0295,-0.051 -0.057,-0.10321 -0.0817,-0.15666 -0.0245,-0.0529 -0.0463,-0.10702 -0.0664,-0.16174 -0.0196,-0.0533 -0.0377,-0.1071 -0.0528,-0.16177 -0.0152,-0.0549 -0.0275,-0.1107 -0.0375,-0.16687 -0.01,-0.0564 -0.0177,-0.11321 -0.0222,-0.17026 -0.004,-0.0572 -0.006,-0.11459 -0.007,-0.17198"
             style="fill:none;stroke:#666666;stroke-width:0.238125;stroke-linecap:round"
             id="path4972" />
          <path
             d="m 556.3857,401.27505 c 0.003,-0.0899 0.006,-0.17986 0.017,-0.26903 0.0104,-0.0873 0.0281,-0.1738 0.0511,-0.25881 0.0225,-0.0835 0.0502,-0.16544 0.0834,-0.24519 0.0335,-0.0804 0.0727,-0.15859 0.11749,-0.23328 0.0449,-0.0748 0.0954,-0.14624 0.14984,-0.21455 0.0542,-0.068 0.11221,-0.13293 0.17538,-0.19241 0.0638,-0.06 0.13273,-0.11451 0.20433,-0.16515 0.0738,-0.0522 0.15034,-0.10036 0.22986,-0.14304 0.0808,-0.0434 0.16466,-0.0811 0.25031,-0.11408 0.0857,-0.033 0.17313,-0.0613 0.26222,-0.0834 0.089,-0.022 0.17961,-0.038 0.27073,-0.0477 0.0939,-0.0101 0.18826,-0.0135 0.28265,-0.0169"
             style="fill:none;stroke:#666666;stroke-width:0.238125;stroke-linecap:round"
             id="path4974" />
          <path
             d="m 558.48005,399.29137 c 0.10016,0.003 0.20033,0.007 0.29968,0.0188 0.0982,0.0116 0.19566,0.0316 0.29117,0.0579 0.0951,0.0262 0.18831,0.0589 0.27924,0.097 0.093,0.039 0.1836,0.0838 0.27074,0.13452 0.0459,0.0267 0.0908,0.055 0.13451,0.0851 0.0461,0.0317 0.0908,0.0655 0.13452,0.10046 0.0471,0.0378 0.093,0.0771 0.13792,0.1175 0.0477,0.043 0.0943,0.0873 0.13962,0.1328 0.0484,0.0487 0.0954,0.0988 0.14133,0.14986 0.0487,0.0541 0.0963,0.10927 0.14302,0.16515 0.05,0.0598 0.099,0.12041 0.14644,0.18219 0.0499,0.065 0.0982,0.13126 0.14643,0.19751"
             style="fill:none;stroke:#666666;stroke-width:0.238125;stroke-linecap:round"
             id="path4976" />
          <path
             style="fill:none;stroke:#666666;stroke-width:0.238125;stroke-linecap:round"
             d="m 560.74462,400.73038 -0.6895,0.52123"
             id="path4978" />
          <path
             d="m 560.05507,401.25291 c -0.0416,-0.0536 -0.0833,-0.10729 -0.126,-0.16005 -0.0396,-0.0489 -0.08,-0.097 -0.12089,-0.14473 -0.0379,-0.0443 -0.0761,-0.0884 -0.11579,-0.13112 -0.0366,-0.0394 -0.0743,-0.0778 -0.11238,-0.11579 -0.0347,-0.0346 -0.0696,-0.069 -0.10557,-0.10215 -0.0331,-0.0306 -0.0672,-0.0601 -0.10216,-0.0886 -0.0321,-0.0262 -0.0649,-0.0512 -0.0988,-0.0749 -0.0299,-0.0209 -0.0606,-0.0408 -0.0919,-0.0596 -0.0591,-0.0353 -0.12053,-0.0667 -0.18389,-0.0936 -0.0625,-0.0265 -0.12682,-0.0487 -0.19241,-0.0664 -0.066,-0.0177 -0.13318,-0.0311 -0.20092,-0.0392 -0.0694,-0.008 -0.13944,-0.0108 -0.20943,-0.0135"
             style="fill:none;stroke:#666666;stroke-width:0.238125;stroke-linecap:round"
             id="path4980" />
          <path
             d="m 558.39492,400.16317 c -0.0878,0.003 -0.17562,0.006 -0.26223,0.0188 -0.0804,0.0119 -0.15976,0.0324 -0.23667,0.0596 -0.0732,0.0259 -0.14425,0.0579 -0.21114,0.0971 -0.0667,0.039 -0.12925,0.085 -0.1873,0.13623 -0.0562,0.0495 -0.10809,0.10388 -0.15325,0.16346 -0.0428,0.0564 -0.0795,0.11758 -0.10897,0.18219 -0.0293,0.0642 -0.0515,0.13187 -0.0647,0.20093 -0.0138,0.0716 -0.0179,0.1448 -0.0222,0.21793"
             style="fill:none;stroke:#666666;stroke-width:0.238125;stroke-linecap:round"
             id="path4982" />
          <path
             d="m 557.14852,401.23928 c 0.001,0.0455 0.002,0.0911 0.007,0.13624 0.005,0.0452 0.0138,0.09 0.0238,0.13451 0.0101,0.0448 0.0215,0.0892 0.0358,0.13279 0.0147,0.0448 0.0325,0.0886 0.0528,0.13113 0.0218,0.0457 0.0464,0.0899 0.0732,0.1328 0.0299,0.0477 0.0625,0.0936 0.0971,0.13792 0.0386,0.0495 0.0797,0.0971 0.12259,0.14304 0.0479,0.0514 0.098,0.10059 0.14814,0.14983"
             style="fill:none;stroke:#666666;stroke-width:0.238125;stroke-linecap:round"
             id="path4984" />
          <path
             d="m 557.70872,402.33754 c 0.0186,0.0167 0.0372,0.0332 0.0562,0.0494 0.0261,0.0222 0.0529,0.0437 0.08,0.0647 0.0349,0.0271 0.0703,0.0535 0.10557,0.08 0.0437,0.0329 0.0873,0.066 0.13111,0.0987 0.0514,0.0384 0.10301,0.0765 0.15495,0.11409 0.0599,0.0434 0.12028,0.0863 0.18049,0.1294 0.0681,0.0487 0.13616,0.0977 0.20433,0.14642 0.0765,0.0547 0.15317,0.10909 0.22986,0.16349"
             style="fill:none;stroke:#666666;stroke-width:0.238125;stroke-linecap:round"
             id="path4986" />
          <path
             d="m 558.85124,403.18381 c 0.0923,0.0671 0.18451,0.13425 0.27585,0.20262 0.0855,0.064 0.17025,0.12911 0.2537,0.19582 0.0778,0.0622 0.15445,0.1257 0.22987,0.19068 0.0703,0.0606 0.13959,0.12253 0.20773,0.18561 0.063,0.0584 0.12514,0.11776 0.1856,0.17878 0.0559,0.0565 0.11049,0.11438 0.16346,0.17369 0.0489,0.0547 0.0964,0.11065 0.14133,0.16857 0.0411,0.053 0.0801,0.10766 0.11748,0.16346 0.0688,0.10279 0.13212,0.20944 0.1873,0.32009 0.0516,0.10343 0.096,0.21037 0.13282,0.32012 0.0352,0.10504 0.0633,0.21267 0.08,0.32182 0.0163,0.1063 0.0218,0.21407 0.0272,0.32181"
             style="fill:none;stroke:#666666;stroke-width:0.238125;stroke-linecap:round"
             id="path4988" />
          <path
             style="fill:none;stroke:#666666;stroke-width:0.238125;stroke-linecap:round"
             d="m 564.22151,408.00907 h -0.14128"
             id="path4990" />
          <path
             style="fill:none;stroke:#666666;stroke-width:0.238125;stroke-linecap:round"
             d="m 564.08023,408.00907 -2.57281,-6.21242"
             id="path4992" />
          <path
             style="fill:none;stroke:#666666;stroke-width:0.238125;stroke-linecap:round"
             d="m 561.50742,401.79665 h 0.81915"
             id="path4994" />
          <path
             style="fill:none;stroke:#666666;stroke-width:0.238125;stroke-linecap:round"
             d="m 562.32657,401.79665 1.85076,4.46882"
             id="path4996" />
          <path
             style="fill:none;stroke:#666666;stroke-width:0.238125;stroke-linecap:round"
             d="m 564.17733,406.26547 2.02803,-4.46882"
             id="path4998" />
          <path
             style="fill:none;stroke:#666666;stroke-width:0.238125;stroke-linecap:round"
             d="m 566.20536,401.79665 h 0.12938"
             id="path5000" />
          <path
             style="fill:none;stroke:#666666;stroke-width:0.238125;stroke-linecap:round"
             d="m 566.33474,401.79665 1.98358,4.46882"
             id="path5002" />
          <path
             style="fill:none;stroke:#666666;stroke-width:0.238125;stroke-linecap:round"
             d="m 568.31832,406.26547 1.86796,-4.46882"
             id="path5004" />
          <path
             style="fill:none;stroke:#666666;stroke-width:0.238125;stroke-linecap:round"
             d="m 570.18628,401.79665 h 0.80195"
             id="path5006" />
          <path
             style="fill:none;stroke:#666666;stroke-width:0.238125;stroke-linecap:round"
             d="m 570.98823,401.79665 -2.59662,6.21242"
             id="path5008" />
          <path
             style="fill:none;stroke:#666666;stroke-width:0.238125;stroke-linecap:round"
             d="m 568.39161,408.00907 h -0.15848"
             id="path5010" />
          <path
             style="fill:none;stroke:#666666;stroke-width:0.238125;stroke-linecap:round"
             d="m 568.23313,408.00907 -1.98517,-4.46881"
             id="path5012" />
          <path
             style="fill:none;stroke:#666666;stroke-width:0.238125;stroke-linecap:round"
             d="m 566.24796,403.54026 -2.02645,4.46881"
             id="path5014" />
          <path
             style="fill:none;stroke:#666666;stroke-width:0.238125;stroke-linecap:round"
             d="m 577.52662,402.94759 v -1.15094"
             id="path5016" />
          <path
             style="fill:none;stroke:#666666;stroke-width:0.238125;stroke-linecap:round"
             d="m 577.52662,401.79665 h 0.76305"
             id="path5018" />
          <path
             style="fill:none;stroke:#666666;stroke-width:0.238125;stroke-linecap:round"
             d="m 578.28967,401.79665 v 6.21242"
             id="path5020" />
          <path
             style="fill:none;stroke:#666666;stroke-width:0.238125;stroke-linecap:round"
             d="m 578.28967,408.00907 h -0.76305"
             id="path5022" />
          <path
             style="fill:none;stroke:#666666;stroke-width:0.238125;stroke-linecap:round"
             d="m 577.52662,408.00907 v -1.07421"
             id="path5024" />
          <path
             d="m 577.52672,406.93489 c -0.086,0.0973 -0.17203,0.19449 -0.26392,0.28607 -0.0874,0.0872 -0.18018,0.16914 -0.27754,0.24518 -0.0946,0.0739 -0.1936,0.14217 -0.29628,0.20434 -0.1,0.0605 -0.20342,0.11531 -0.30989,0.16346 -0.10581,0.0478 -0.21458,0.0891 -0.32522,0.1243 -0.11129,0.0354 -0.22447,0.0646 -0.33884,0.0885 -0.11758,0.0246 -0.23642,0.0435 -0.35587,0.0545 -0.12273,0.0114 -0.24611,0.014 -0.36949,0.0169"
             style="fill:none;stroke:#666666;stroke-width:0.238125;stroke-linecap:round"
             id="path5026" />
          <path
             d="m 574.98967,408.11829 c -0.1097,-0.003 -0.21939,-0.006 -0.32863,-0.0154 -0.10618,-0.009 -0.21194,-0.0243 -0.31671,-0.0443 -0.10269,-0.0196 -0.20444,-0.0439 -0.30479,-0.0732 -0.0993,-0.029 -0.19722,-0.0628 -0.29286,-0.10215 -0.0953,-0.0392 -0.18842,-0.084 -0.27925,-0.13282 -0.0922,-0.0496 -0.1821,-0.10346 -0.26903,-0.16174 -0.0883,-0.0592 -0.17349,-0.12298 -0.25541,-0.19072 -0.0846,-0.0699 -0.16563,-0.14403 -0.24349,-0.22135 -0.0778,-0.0773 -0.15248,-0.15779 -0.22306,-0.2418 -0.0683,-0.0813 -0.13281,-0.16581 -0.1924,-0.25368 -0.0585,-0.0862 -0.11223,-0.17566 -0.16176,-0.26734 -0.0494,-0.0914 -0.0946,-0.18507 -0.13452,-0.28096 -0.0399,-0.0956 -0.0745,-0.19349 -0.10386,-0.29286 -0.0296,-0.10026 -0.0537,-0.20207 -0.0732,-0.30478 -0.02,-0.10536 -0.0352,-0.21166 -0.0443,-0.31842 -0.009,-0.10981 -0.0124,-0.22006 -0.0153,-0.33034"
             style="fill:none;stroke:#666666;stroke-width:0.238125;stroke-linecap:round"
             id="path5028" />
          <path
             d="m 571.75108,404.88651 c 0.003,-0.10798 0.006,-0.21595 0.0153,-0.32351 0.009,-0.10506 0.024,-0.20973 0.0443,-0.31329 0.0198,-0.10112 0.0448,-0.20119 0.0749,-0.29969 0.0301,-0.0982 0.0653,-0.19489 0.10557,-0.28946 0.0401,-0.0942 0.085,-0.18626 0.13452,-0.27585 0.0501,-0.0906 0.10472,-0.17865 0.16346,-0.26392 0.0604,-0.0877 0.12519,-0.17251 0.19411,-0.25369 0.071,-0.0836 0.14633,-0.1634 0.22476,-0.24011 0.0785,-0.0768 0.16007,-0.15038 0.24519,-0.21963 0.0831,-0.0676 0.16967,-0.1311 0.25882,-0.19071 0.087,-0.0582 0.17658,-0.11271 0.26903,-0.16176 0.0918,-0.0487 0.18636,-0.092 0.28265,-0.1311 0.0965,-0.0392 0.19472,-0.0743 0.29457,-0.10388 0.10073,-0.0298 0.20314,-0.0541 0.30649,-0.0732 0.10536,-0.0196 0.2117,-0.0338 0.31841,-0.0426 0.10985,-0.009 0.22009,-0.0122 0.33033,-0.0154"
             style="fill:none;stroke:#666666;stroke-width:0.238125;stroke-linecap:round"
             id="path5030" />
          <path
             d="m 575.0135,401.68881 c 0.12677,0.003 0.25354,0.007 0.37971,0.0188 0.12124,0.0114 0.24192,0.0302 0.36098,0.0562 0.11578,0.0251 0.23004,0.0572 0.34225,0.0953 0.11024,0.0374 0.21852,0.0808 0.32351,0.13113 0.10527,0.0504 0.20724,0.1079 0.30479,0.17198 0.10063,0.0661 0.19655,0.13925 0.28776,0.21793 0.094,0.0811 0.183,0.16807 0.26563,0.26051 0.0876,0.0981 0.16812,0.20228 0.24859,0.3065"
             style="fill:none;stroke:#666666;stroke-width:0.238125;stroke-linecap:round"
             id="path5032" />
          <g
             id="g9347">
            <path
               d="m 599.63705,358.60874 a 10,10 0 1 0 -20,0 10,10 0 1 0 20,0 z"
               style="fill:none;stroke:#ff0000;stroke-width:0.238125;stroke-linecap:round"
               id="path5034" />
            <path
               d="m 677.23705,373.80874 a 1.8000002,1.8000002 0 1 0 -3.6,0 1.8000002,1.8000002 0 1 0 3.6,0 z"
               style="fill:none;stroke:#ff0000;stroke-width:0.238125;stroke-linecap:round"
               id="path5036" />
            <path
               d="m 626.43705,358.60874 a 1.8000001,1.8000001 0 1 0 -3.6,0 1.8000001,1.8000001 0 1 0 3.6,0 z"
               style="fill:none;stroke:#ff0000;stroke-width:0.238125;stroke-linecap:round"
               id="path5038" />
            <path
               d="m 625.33705,406.40874 a 1.8000001,1.8000001 0 1 0 -3.6,0 1.8000001,1.8000001 0 1 0 3.6,0 z"
               style="fill:none;stroke:#ff0000;stroke-width:0.238125;stroke-linecap:round"
               id="path5040" />
            <path
               d="m 677.23705,401.70873 a 1.8000002,1.8000002 0 1 0 -3.6,0 1.8000002,1.8000002 0 1 0 3.6,0 z"
               style="fill:none;stroke:#ff0000;stroke-width:0.238125;stroke-linecap:round"
               id="path5042" />
            <path
               d="m 552.8945,204.40874 a 2.45745,2.45745 0 1 0 -4.9149,0 2.45745,2.45745 0 1 0 4.9149,0 z"
               style="fill:none;stroke:#ff0000;stroke-width:0.238125;stroke-linecap:round"
               id="path5044" />
            <path
               d="m 752.8945,204.40874 a 2.45745,2.45745 0 1 0 -4.9149,0 2.45745,2.45745 0 1 0 4.9149,0 z"
               style="fill:none;stroke:#ff0000;stroke-width:0.238125;stroke-linecap:round"
               id="path5046" />
            <path
               d="m 752.8945,404.40873 a 2.45745,2.45745 0 1 0 -4.9149,0 2.45745,2.45745 0 1 0 4.9149,0 z"
               style="fill:none;stroke:#ff0000;stroke-width:0.238125;stroke-linecap:round"
               id="path5048" />
            <path
               d="m 552.8945,404.40873 a 2.45745,2.45745 0 1 0 -4.9149,0 2.45745,2.45745 0 1 0 4.9149,0 z"
               style="fill:none;stroke:#ff0000;stroke-width:0.238125;stroke-linecap:round"
               id="path5050" />
            <path
               d="m 686.83705,270.40874 a 2.4,2.4 0 1 0 -4.8,0 2.4,2.4 0 1 0 4.8,0 z"
               style="fill:none;stroke:#ff0000;stroke-width:0.238125;stroke-linecap:round"
               id="path5052" />
            <path
               d="m 686.83705,338.40873 a 2.4,2.4 0 1 0 -4.8,0 2.4,2.4 0 1 0 4.8,0 z"
               style="fill:none;stroke:#ff0000;stroke-width:0.238125;stroke-linecap:round"
               id="path5054" />
            <path
               d="m 618.83705,338.40873 a 2.4,2.4 0 1 0 -4.8,0 2.4,2.4 0 1 0 4.8,0 z"
               style="fill:none;stroke:#ff0000;stroke-width:0.238125;stroke-linecap:round"
               id="path5056" />
            <path
               d="m 662.13654,294.50925 a 1.8000001,1.8000001 0 1 0 -3.6,0 1.8000001,1.8000001 0 1 0 3.6,0 z"
               style="fill:none;stroke:#ff0000;stroke-width:0.238125;stroke-linecap:round"
               id="path5058" />
            <path
               d="m 662.13654,314.30823 a 1.8000001,1.8000001 0 1 0 -3.6,0 1.8000001,1.8000001 0 1 0 3.6,0 z"
               style="fill:none;stroke:#ff0000;stroke-width:0.238125;stroke-linecap:round"
               id="path5060" />
            <path
               d="m 642.33756,314.30823 a 1.8000001,1.8000001 0 1 0 -3.6,0 1.8000001,1.8000001 0 1 0 3.6,0 z"
               style="fill:none;stroke:#ff0000;stroke-width:0.238125;stroke-linecap:round"
               id="path5062" />
            <path
               d="m 618.83705,270.40874 a 2.4,2.4 0 1 0 -4.8,0 2.4,2.4 0 1 0 4.8,0 z"
               style="fill:none;stroke:#ff0000;stroke-width:0.238125;stroke-linecap:round"
               id="path5064" />
            <path
               d="m 642.33756,294.50925 a 1.8000001,1.8000001 0 1 0 -3.6,0 1.8000001,1.8000001 0 1 0 3.6,0 z"
               style="fill:none;stroke:#ff0000;stroke-width:0.238125;stroke-linecap:round"
               id="path5066" />
            <path
               d="m 661.58705,304.40874 a 11.15,11.15 0 1 0 -22.3,0 11.15,11.15 0 1 0 22.3,0 z"
               style="fill:none;stroke:#ff0000;stroke-width:0.238125;stroke-linecap:round"
               id="path5068" />
            <path
               style="fill:none;stroke:#ff0000;stroke-width:0.238125;stroke-linecap:round"
               d="M 540.43706,194.40883 V 414.40934"
               id="path5070" />
            <path
               style="fill:#ff0000;stroke:#ff0000;stroke-width:0.238125;stroke-linecap:round"
               d="M 540.43706,414.40934 H 760.43704"
               id="path5072" />
            <path
               style="fill:none;stroke:#ff0000;stroke-width:0.238125;stroke-linecap:round"
               d="M 760.43704,414.40934 V 194.40883"
               id="path5074" />
            <path
               style="fill:none;stroke:#ff0000;stroke-width:0.238125;stroke-linecap:round"
               d="M 760.43704,194.40883 H 540.43706"
               id="path5076" />
          </g>
          <path
             d="m 606.5139,405.92688 c -0.002,0.0762 -0.003,0.15242 -0.0102,0.22817 -0.007,0.0743 -0.019,0.14814 -0.034,0.22136 -0.0148,0.0718 -0.0324,0.14303 -0.0545,0.21283 -0.0222,0.07 -0.0489,0.13864 -0.0783,0.20603 -0.0297,0.068 -0.0622,0.13472 -0.0988,0.19923 -0.0372,0.0657 -0.0786,0.12917 -0.1226,0.19071 -0.0449,0.0628 -0.0926,0.12372 -0.14303,0.18219 -0.0527,0.0611 -0.10859,0.11951 -0.16686,0.17537 -0.0584,0.056 -0.1192,0.10935 -0.1822,0.16007 -0.0614,0.0494 -0.12486,0.0963 -0.1907,0.13962 -0.0648,0.0426 -0.13197,0.0818 -0.20092,0.11748 -0.0682,0.0353 -0.13811,0.0671 -0.20944,0.0953 -0.0719,0.0285 -0.14529,0.0535 -0.21965,0.0749 -0.0757,0.0217 -0.15242,0.0399 -0.22987,0.0545 -0.0789,0.0148 -0.15847,0.0259 -0.23838,0.0324 -0.0827,0.007 -0.16562,0.008 -0.2486,0.0103"
             style="fill:none;stroke:#666666;stroke-width:0.238125;stroke-linecap:round"
             id="path5078" />
          <path
             d="m 604.08582,408.22727 c -0.0642,0 -0.1284,-0.003 -0.19241,-0.007 -0.0632,-0.004 -0.12621,-0.0116 -0.189,-0.0204 -0.0617,-0.009 -0.12312,-0.019 -0.1839,-0.0324 -0.0602,-0.0132 -0.11979,-0.0296 -0.17878,-0.0477 -0.0585,-0.018 -0.11653,-0.0377 -0.17368,-0.0596 -0.0577,-0.0222 -0.11452,-0.0466 -0.17027,-0.0732 -0.0561,-0.0268 -0.11116,-0.0559 -0.16517,-0.0868 -0.0551,-0.0315 -0.10914,-0.0649 -0.16175,-0.10046 -0.0538,-0.0364 -0.10617,-0.075 -0.15666,-0.11578 -0.0528,-0.0428 -0.10367,-0.088 -0.15324,-0.13452 -0.0521,-0.0489 -0.1028,-0.0993 -0.15154,-0.15155 -0.0513,-0.055 -0.10049,-0.11202 -0.14814,-0.17026 -0.05,-0.0611 -0.0983,-0.12351 -0.14473,-0.18732 -0.049,-0.0673 -0.0959,-0.13618 -0.14133,-0.20601 -0.0477,-0.0733 -0.0937,-0.14766 -0.13792,-0.22307 -0.0468,-0.0798 -0.0915,-0.16079 -0.13622,-0.24177"
             style="fill:none;stroke:#666666;stroke-width:0.238125;stroke-linecap:round"
             id="path5080" />
          <path
             style="fill:none;stroke:#666666;stroke-width:0.238125;stroke-linecap:round"
             d="m 601.50104,406.36865 0.71861,-0.42862"
             id="path5082" />
          <path
             d="m 602.21963,405.93881 c 0.0668,0.11187 0.13366,0.22373 0.20603,0.33203 0.0663,0.0992 0.13723,0.19536 0.21284,0.28776 0.0695,0.0849 0.143,0.16666 0.22136,0.24349 0.0724,0.071 0.14902,0.13785 0.22987,0.19921 0.0752,0.0571 0.15404,0.10946 0.23667,0.15496 0.0786,0.0433 0.16058,0.0803 0.2452,0.11068 0.0825,0.0296 0.16745,0.0527 0.2537,0.0664 0.086,0.0138 0.17326,0.018 0.26052,0.0222"
             style="fill:none;stroke:#666666;stroke-width:0.238125;stroke-linecap:round"
             id="path5084" />
          <path
             d="m 604.08582,407.35547 c 0.0745,-0.003 0.14905,-0.004 0.22306,-0.0119 0.0727,-0.008 0.14492,-0.0206 0.21624,-0.0375 0.0709,-0.0167 0.14096,-0.0368 0.20944,-0.0613 0.0692,-0.0249 0.13674,-0.0541 0.20262,-0.0868 0.0645,-0.032 0.12739,-0.0674 0.1873,-0.10726 0.0573,-0.0381 0.11187,-0.0804 0.16346,-0.12603 0.0497,-0.0439 0.0966,-0.0909 0.13963,-0.14131 0.0425,-0.0497 0.0813,-0.10276 0.11578,-0.15835 0.0339,-0.0546 0.0637,-0.11171 0.0902,-0.17029 0.0258,-0.057 0.0487,-0.11538 0.0664,-0.17536 0.0173,-0.0584 0.0298,-0.11838 0.0375,-0.17878 0.008,-0.0615 0.0107,-0.12359 0.0136,-0.18561"
             style="fill:none;stroke:#666666;stroke-width:0.238125;stroke-linecap:round"
             id="path5086" />
          <path
             d="m 605.75108,405.91497 c -0.004,-0.0708 -0.007,-0.14155 -0.0187,-0.21114 -0.012,-0.0719 -0.0324,-0.1425 -0.0579,-0.21113 -0.0264,-0.0712 -0.0582,-0.14018 -0.0953,-0.20603 -0.0401,-0.0711 -0.0865,-0.13859 -0.13282,-0.20604"
             style="fill:none;stroke:#666666;stroke-width:0.238125;stroke-linecap:round"
             id="path5088" />
          <path
             d="m 605.4463,405.08063 c -0.0381,-0.0487 -0.0761,-0.0974 -0.11579,-0.14472 -0.0436,-0.0521 -0.0892,-0.10255 -0.13622,-0.15156 -0.052,-0.0541 -0.10576,-0.10652 -0.16005,-0.15835 -0.0593,-0.0566 -0.11916,-0.11255 -0.18049,-0.16687 -0.0663,-0.0587 -0.13432,-0.11555 -0.20263,-0.17195 -0.0737,-0.0609 -0.14784,-0.12142 -0.22305,-0.1805 -0.0812,-0.0638 -0.16375,-0.126 -0.2469,-0.1873 -0.0886,-0.0653 -0.17798,-0.12973 -0.26733,-0.19413"
             style="fill:none;stroke:#666666;stroke-width:0.238125;stroke-linecap:round"
             id="path5090" />
          <path
             d="m 603.91384,403.72525 c -0.0894,-0.0637 -0.17886,-0.12739 -0.26732,-0.1924 -0.0807,-0.0593 -0.16056,-0.11965 -0.24009,-0.18047 -0.0713,-0.0546 -0.14239,-0.10949 -0.21284,-0.16518 -0.063,-0.0498 -0.12552,-0.10023 -0.1873,-0.15153 -0.0545,-0.0453 -0.10845,-0.0912 -0.16176,-0.13793 -0.0456,-0.04 -0.0908,-0.0805 -0.13451,-0.12261 -0.037,-0.0356 -0.0729,-0.0724 -0.10727,-0.11067 -0.028,-0.0311 -0.0548,-0.0632 -0.0817,-0.0954"
             style="fill:none;stroke:#666666;stroke-width:0.238125;stroke-linecap:round"
             id="path5092" />
          <path
             d="m 602.52101,402.5691 c -0.0376,-0.05 -0.0752,-0.10004 -0.11067,-0.15152 -0.0343,-0.0498 -0.0668,-0.10089 -0.0971,-0.15325 -0.0295,-0.051 -0.057,-0.10321 -0.0817,-0.15666 -0.0245,-0.0529 -0.0463,-0.10702 -0.0664,-0.16174 -0.0196,-0.0533 -0.0376,-0.1071 -0.0528,-0.16177 -0.0152,-0.0549 -0.0275,-0.1107 -0.0375,-0.16687 -0.01,-0.0564 -0.0177,-0.11321 -0.0221,-0.17026 -0.004,-0.0572 -0.006,-0.11459 -0.007,-0.17198"
             style="fill:none;stroke:#666666;stroke-width:0.238125;stroke-linecap:round"
             id="path5094" />
          <path
             d="m 602.04595,401.27505 c 0.003,-0.0899 0.006,-0.17986 0.017,-0.26903 0.0105,-0.0873 0.0281,-0.1738 0.0511,-0.25881 0.0226,-0.0835 0.0502,-0.16544 0.0834,-0.24519 0.0335,-0.0804 0.0727,-0.15859 0.11749,-0.23328 0.0449,-0.0748 0.0954,-0.14624 0.14984,-0.21455 0.0542,-0.068 0.1122,-0.13293 0.17538,-0.19241 0.0638,-0.06 0.13273,-0.11451 0.20432,-0.16515 0.0738,-0.0522 0.15035,-0.10036 0.22987,-0.14304 0.0808,-0.0434 0.16466,-0.0811 0.2503,-0.11408 0.0857,-0.033 0.17314,-0.0613 0.26222,-0.0834 0.089,-0.022 0.17961,-0.038 0.27074,-0.0477 0.0939,-0.0101 0.18825,-0.0135 0.28265,-0.0169"
             style="fill:none;stroke:#666666;stroke-width:0.238125;stroke-linecap:round"
             id="path5096" />
          <path
             d="m 604.14031,399.29137 c 0.10016,0.003 0.20033,0.007 0.29968,0.0188 0.0982,0.0116 0.19565,0.0316 0.29116,0.0579 0.0951,0.0262 0.18832,0.0589 0.27925,0.097 0.093,0.039 0.18359,0.0838 0.27073,0.13452 0.0459,0.0267 0.0908,0.055 0.13452,0.0851 0.0461,0.0317 0.0908,0.0655 0.13451,0.10046 0.0471,0.0378 0.093,0.0771 0.13792,0.1175 0.0477,0.043 0.0943,0.0873 0.13963,0.1328 0.0484,0.0487 0.0954,0.0988 0.14132,0.14986 0.0487,0.0541 0.0963,0.10927 0.14303,0.16515 0.05,0.0598 0.099,0.12041 0.14643,0.18219 0.0499,0.065 0.0982,0.13126 0.14644,0.19751"
             style="fill:none;stroke:#666666;stroke-width:0.238125;stroke-linecap:round"
             id="path5098" />
          <path
             style="fill:none;stroke:#666666;stroke-width:0.238125;stroke-linecap:round"
             d="m 606.40483,400.73038 -0.68951,0.52123"
             id="path5100" />
          <path
             d="m 605.71533,401.25291 c -0.0416,-0.0536 -0.0833,-0.10729 -0.12601,-0.16005 -0.0396,-0.0489 -0.08,-0.097 -0.12089,-0.14473 -0.0379,-0.0443 -0.0761,-0.0884 -0.11578,-0.13112 -0.0366,-0.0394 -0.0743,-0.0778 -0.11238,-0.11579 -0.0347,-0.0346 -0.0696,-0.069 -0.10557,-0.10215 -0.0331,-0.0306 -0.0672,-0.0601 -0.10217,-0.0886 -0.0321,-0.0262 -0.0649,-0.0512 -0.0987,-0.0749 -0.0299,-0.0209 -0.0606,-0.0408 -0.0919,-0.0596 -0.0591,-0.0353 -0.12054,-0.0667 -0.1839,-0.0936 -0.0625,-0.0265 -0.12682,-0.0487 -0.1924,-0.0664 -0.066,-0.0177 -0.13319,-0.0311 -0.20092,-0.0392 -0.0695,-0.008 -0.13945,-0.0108 -0.20944,-0.0135"
             style="fill:none;stroke:#666666;stroke-width:0.238125;stroke-linecap:round"
             id="path5102" />
          <path
             d="m 604.05517,400.16317 c -0.0878,0.003 -0.17562,0.006 -0.26222,0.0188 -0.0804,0.0119 -0.15976,0.0324 -0.23668,0.0596 -0.0732,0.0259 -0.14424,0.0579 -0.21114,0.0971 -0.0667,0.039 -0.12925,0.085 -0.1873,0.13623 -0.0562,0.0495 -0.10808,0.10388 -0.15324,0.16346 -0.0428,0.0564 -0.0795,0.11758 -0.10898,0.18219 -0.0293,0.0642 -0.0514,0.13187 -0.0647,0.20093 -0.0138,0.0716 -0.0179,0.1448 -0.0222,0.21793"
             style="fill:none;stroke:#666666;stroke-width:0.238125;stroke-linecap:round"
             id="path5104" />
          <path
             d="m 602.80878,401.23928 c 0.001,0.0455 0.002,0.0911 0.007,0.13624 0.005,0.0452 0.0138,0.09 0.0238,0.13451 0.0101,0.0448 0.0215,0.0892 0.0358,0.13279 0.0147,0.0448 0.0325,0.0886 0.0528,0.13113 0.0218,0.0457 0.0464,0.0899 0.0732,0.1328 0.0299,0.0477 0.0625,0.0936 0.0971,0.13792 0.0386,0.0495 0.0797,0.0971 0.12259,0.14304 0.0479,0.0514 0.098,0.10059 0.14814,0.14983"
             style="fill:none;stroke:#666666;stroke-width:0.238125;stroke-linecap:round"
             id="path5106" />
          <path
             d="m 603.36897,402.33754 c 0.0186,0.0167 0.0372,0.0332 0.0562,0.0494 0.0261,0.0222 0.0529,0.0437 0.08,0.0647 0.0349,0.0271 0.0703,0.0535 0.10557,0.08 0.0437,0.0329 0.0873,0.066 0.13111,0.0987 0.0514,0.0384 0.10301,0.0765 0.15495,0.11409 0.0599,0.0434 0.12027,0.0863 0.18049,0.1294 0.0681,0.0487 0.13615,0.0977 0.20432,0.14642 0.0765,0.0547 0.15318,0.10909 0.22987,0.16349"
             style="fill:none;stroke:#666666;stroke-width:0.238125;stroke-linecap:round"
             id="path5108" />
          <path
             d="m 604.5115,403.18381 c 0.0923,0.0671 0.1845,0.13425 0.27584,0.20262 0.0855,0.064 0.17025,0.12911 0.25371,0.19582 0.0778,0.0622 0.15445,0.1257 0.22987,0.19068 0.0703,0.0606 0.13958,0.12253 0.20773,0.18561 0.063,0.0584 0.12514,0.11776 0.1856,0.17878 0.0559,0.0565 0.11049,0.11438 0.16346,0.17369 0.0489,0.0547 0.0964,0.11065 0.14132,0.16857 0.0411,0.053 0.0801,0.10766 0.11749,0.16346 0.0688,0.10279 0.13212,0.20944 0.1873,0.32009 0.0516,0.10343 0.096,0.21037 0.13281,0.32012 0.0352,0.10504 0.0633,0.21267 0.08,0.32182 0.0163,0.1063 0.0218,0.21407 0.0272,0.32181"
             style="fill:none;stroke:#666666;stroke-width:0.238125;stroke-linecap:round"
             id="path5110" />
          <path
             d="m 594.89621,406.4343 c -0.0126,-0.0453 -0.0251,-0.0905 -0.0358,-0.13621 -0.0124,-0.0534 -0.0221,-0.10753 -0.0307,-0.16177 -0.01,-0.0623 -0.018,-0.12475 -0.0255,-0.1873 -0.008,-0.0702 -0.0162,-0.14062 -0.0221,-0.21113 -0.007,-0.0788 -0.0112,-0.15772 -0.0153,-0.23667 -0.005,-0.0868 -0.008,-0.17368 -0.0119,-0.26054 -0.004,-0.0953 -0.007,-0.19066 -0.009,-0.28604 -0.002,-0.10385 -0.002,-0.20772 -0.002,-0.3116"
             style="fill:none;stroke:#666666;stroke-width:0.238125;stroke-linecap:round"
             id="path5112" />
          <path
             style="fill:none;stroke:#666666;stroke-width:0.238125;stroke-linecap:round"
             d="m 594.74464,404.64357 v -5.13556"
             id="path5114" />
          <path
             style="fill:none;stroke:#666666;stroke-width:0.238125;stroke-linecap:round"
             d="m 594.74464,399.50801 h 0.76279"
             id="path5116" />
          <path
             style="fill:none;stroke:#666666;stroke-width:0.238125;stroke-linecap:round"
             d="m 595.50743,399.50801 v 5.09323"
             id="path5118" />
          <path
             d="m 595.50749,404.60216 c -1.1e-4,0.0721 -2.2e-4,0.14417 0,0.21625 2.1e-4,0.0647 8e-4,0.1294 0.002,0.19412 8e-4,0.0579 0.002,0.11578 0.003,0.17367 0.001,0.0505 0.002,0.10105 0.003,0.15156 10e-4,0.0437 0.003,0.0874 0.005,0.1311 0.002,0.0363 0.003,0.0727 0.005,0.10898 0.002,0.0296 0.004,0.0591 0.007,0.0885 0.002,0.0222 0.005,0.0443 0.009,0.0664"
             style="fill:none;stroke:#666666;stroke-width:0.238125;stroke-linecap:round"
             id="path5120" />
          <path
             d="m 595.54155,405.73278 c 0.0126,0.0798 0.0251,0.15954 0.0426,0.23839 0.0164,0.0744 0.0372,0.14795 0.063,0.21963 0.0243,0.0675 0.0531,0.1333 0.0851,0.19754 0.0308,0.0617 0.0647,0.12205 0.10387,0.17878 0.0392,0.0568 0.0836,0.10993 0.13111,0.16004 0.0504,0.0531 0.10438,0.10285 0.16176,0.14814 0.0615,0.0486 0.127,0.0921 0.19411,0.13282 0.0724,0.0439 0.14669,0.0845 0.22306,0.12089 0.0781,0.0372 0.15843,0.07 0.24008,0.0988 0.0788,0.0278 0.15883,0.0519 0.24008,0.0715 0.0796,0.0191 0.16044,0.034 0.24179,0.0426 0.0802,0.008 0.16102,0.0111 0.24179,0.0138"
             style="fill:none;stroke:#666666;stroke-width:0.238125;stroke-linecap:round"
             id="path5122" />
          <path
             d="m 597.5099,407.35547 c 0.0693,-0.003 0.13869,-0.005 0.20773,-0.0119 0.0686,-0.007 0.13699,-0.0175 0.20433,-0.0324 0.0674,-0.0151 0.13374,-0.0342 0.19922,-0.0562 0.0665,-0.0222 0.1321,-0.0474 0.19581,-0.0766 0.0637,-0.0292 0.12551,-0.0625 0.1856,-0.0987 0.0582,-0.0351 0.11473,-0.0728 0.16856,-0.11409 0.0536,-0.0411 0.10458,-0.0858 0.15325,-0.13282 0.0486,-0.0469 0.0949,-0.0962 0.13792,-0.14814 0.0435,-0.0525 0.0837,-0.1079 0.12089,-0.16515 0.0385,-0.0593 0.0739,-0.12068 0.10557,-0.18389 0.0321,-0.0641 0.0605,-0.1302 0.0851,-0.19753 0.026,-0.0711 0.0479,-0.14367 0.0698,-0.21625"
             style="fill:none;stroke:#666666;stroke-width:0.238125;stroke-linecap:round"
             id="path5124" />
          <path
             d="m 599.34373,405.92177 c 0.007,-0.03 0.0146,-0.06 0.0204,-0.0902 0.007,-0.0372 0.0122,-0.0748 0.017,-0.11237 0.006,-0.0448 0.011,-0.0896 0.0153,-0.13451 0.005,-0.051 0.009,-0.1021 0.0119,-0.15325 0.004,-0.0584 0.007,-0.11689 0.0102,-0.17536 0.003,-0.0658 0.005,-0.13166 0.007,-0.19754 0.002,-0.0726 0.003,-0.14528 0.003,-0.21794 8e-4,-0.0795 10e-4,-0.15893 0.002,-0.23839"
             style="fill:none;stroke:#666666;stroke-width:0.238125;stroke-linecap:round"
             id="path5126" />
          <path
             style="fill:none;stroke:#666666;stroke-width:0.238125;stroke-linecap:round"
             d="m 599.43068,404.60124 v -5.09323"
             id="path5128" />
          <path
             style="fill:none;stroke:#666666;stroke-width:0.238125;stroke-linecap:round"
             d="m 599.43068,399.50801 h 0.76279"
             id="path5130" />
          <path
             style="fill:none;stroke:#666666;stroke-width:0.238125;stroke-linecap:round"
             d="m 600.19347,399.50801 v 5.13556"
             id="path5132" />
          <path
             d="m 600.19339,404.64304 c -5.3e-4,0.0925 -10e-4,0.18505 -0.003,0.27755 -0.002,0.088 -0.006,0.176 -0.0102,0.26392 -0.004,0.0841 -0.01,0.16809 -0.017,0.25199 -0.007,0.079 -0.0144,0.15796 -0.0238,0.23667 -0.009,0.0745 -0.0193,0.14885 -0.0307,0.22307 -0.0107,0.07 -0.0222,0.13991 -0.0358,0.20944 -0.0129,0.0662 -0.0277,0.13208 -0.0443,0.19751 -0.0155,0.0612 -0.0325,0.1219 -0.0511,0.1822 -0.0179,0.058 -0.0373,0.11557 -0.0596,0.17198 -0.0225,0.0567 -0.0479,0.11215 -0.0749,0.16684 -0.0271,0.0549 -0.0558,0.10906 -0.0868,0.16177 -0.0313,0.053 -0.065,0.10461 -0.10046,0.15494 -0.0367,0.052 -0.0752,0.1026 -0.11579,0.15155 -0.0408,0.0492 -0.0836,0.0967 -0.1277,0.14304 -0.0457,0.048 -0.0927,0.0947 -0.14133,0.13962 -0.05,0.0462 -0.10167,0.0905 -0.15494,0.13282 -0.0534,0.0424 -0.10847,0.0829 -0.16517,0.12089 -0.0563,0.0377 -0.11425,0.073 -0.17368,0.10556 -0.0599,0.0328 -0.12129,0.0629 -0.18389,0.0903 -0.0624,0.0273 -0.12605,0.0518 -0.19071,0.0732 -0.0655,0.0217 -0.13207,0.0402 -0.19922,0.0562 -0.0687,0.0164 -0.13796,0.0301 -0.20773,0.0408 -0.0723,0.0111 -0.14502,0.019 -0.21795,0.0238 -0.0748,0.005 -0.14978,0.007 -0.22476,0.008"
             style="fill:none;stroke:#666666;stroke-width:0.238125;stroke-linecap:round"
             id="path5134" />
          <path
             d="m 597.55246,408.22727 c -0.0818,-0.003 -0.16353,-0.004 -0.24519,-0.008 -0.0786,-0.004 -0.157,-0.0116 -0.23497,-0.0222 -0.0759,-0.0103 -0.1514,-0.0236 -0.22647,-0.0392 -0.0732,-0.0151 -0.14609,-0.0322 -0.21794,-0.0528 -0.0707,-0.0204 -0.1405,-0.0439 -0.20944,-0.0698 -0.0674,-0.0254 -0.1341,-0.0527 -0.19922,-0.0834 -0.065,-0.0306 -0.12843,-0.0645 -0.1907,-0.10046 -0.0621,-0.0358 -0.12304,-0.0736 -0.18219,-0.11406 -0.0586,-0.0401 -0.11539,-0.0827 -0.17028,-0.12772 -0.0535,-0.0438 -0.10516,-0.0899 -0.15494,-0.13793 -0.0491,-0.0474 -0.0965,-0.0967 -0.14133,-0.14814 -0.0444,-0.0508 -0.0863,-0.10374 -0.126,-0.15835 -0.0393,-0.054 -0.0763,-0.10964 -0.11068,-0.16685 -0.035,-0.0581 -0.0672,-0.11784 -0.097,-0.1788 -0.0299,-0.0612 -0.0574,-0.12367 -0.0817,-0.1873 -0.0249,-0.065 -0.0465,-0.13126 -0.0681,-0.19751"
             style="fill:none;stroke:#666666;stroke-width:0.238125;stroke-linecap:round"
             id="path5136" />
          <path
             style="fill:none;stroke:#666666;stroke-width:0.238125;stroke-linecap:round"
             d="m 584.28302,408.00907 h -0.7628"
             id="path5138" />
          <path
             style="fill:none;stroke:#666666;stroke-width:0.238125;stroke-linecap:round"
             d="m 583.52022,408.00907 v -6.21242"
             id="path5140" />
          <path
             style="fill:none;stroke:#666666;stroke-width:0.238125;stroke-linecap:round"
             d="m 583.52022,401.79665 h 0.7628"
             id="path5142" />
          <path
             style="fill:none;stroke:#666666;stroke-width:0.238125;stroke-linecap:round"
             d="m 584.28302,401.79665 v 1.0795"
             id="path5144" />
          <path
             d="m 584.28313,402.87732 c 0.0687,-0.0945 0.13738,-0.18889 0.21114,-0.27927 0.0676,-0.0828 0.1394,-0.16214 0.21455,-0.23836 0.0686,-0.0696 0.14002,-0.13666 0.21624,-0.19752 0.0705,-0.0563 0.14506,-0.10734 0.21965,-0.15835"
             style="fill:none;stroke:#666666;stroke-width:0.238125;stroke-linecap:round"
             id="path5146" />
          <path
             d="m 585.14471,402.00382 c 0.10167,-0.0486 0.20335,-0.0972 0.3082,-0.13793 0.10302,-0.04 0.2091,-0.0725 0.3167,-0.0988 0.1066,-0.0259 0.21468,-0.0459 0.32352,-0.0579 0.11016,-0.0122 0.2211,-0.0164 0.33203,-0.0204"
             style="fill:none;stroke:#666666;stroke-width:0.238125;stroke-linecap:round"
             id="path5148" />
          <path
             d="m 586.42516,401.68881 c 0.075,0.003 0.15005,0.005 0.22476,0.0119 0.0731,0.007 0.14597,0.0175 0.21795,0.0324 0.0719,0.0148 0.14299,0.0337 0.21284,0.0562 0.0699,0.0225 0.13866,0.0489 0.20603,0.0783 0.0668,0.0292 0.13226,0.0614 0.19581,0.097 0.0603,0.0338 0.1189,0.0708 0.17538,0.11067 0.0551,0.039 0.10823,0.0808 0.15836,0.12602 0.0489,0.0441 0.095,0.0914 0.13792,0.14132 0.0447,0.0519 0.086,0.1067 0.1243,0.16346 0.0426,0.0631 0.0816,0.12864 0.11749,0.19581 0.0394,0.0737 0.0751,0.14939 0.10727,0.22646 0.0358,0.0857 0.0673,0.17312 0.0987,0.26054"
             style="fill:none;stroke:#666666;stroke-width:0.238125;stroke-linecap:round"
             id="path5150" />
          <path
             d="m 588.40202,403.18892 c 0.0333,-0.0601 0.0666,-0.1201 0.10217,-0.17881 0.0344,-0.0568 0.071,-0.11234 0.10897,-0.16684 0.0371,-0.0533 0.0757,-0.1056 0.11579,-0.15666 0.0388,-0.0495 0.0791,-0.0978 0.12089,-0.14473 0.0411,-0.0462 0.0837,-0.0911 0.12771,-0.13452 0.0429,-0.0423 0.0872,-0.0832 0.13281,-0.1226 0.0452,-0.0391 0.0917,-0.0767 0.13962,-0.11237 0.0475,-0.0353 0.0965,-0.0687 0.14644,-0.10046 0.0973,-0.062 0.19846,-0.11819 0.30308,-0.16688 0.1025,-0.0477 0.20836,-0.0882 0.31671,-0.12089 0.10643,-0.0322 0.21526,-0.0569 0.32522,-0.0715 0.11217,-0.0148 0.2255,-0.0193 0.33884,-0.0238"
             style="fill:none;stroke:#666666;stroke-width:0.238125;stroke-linecap:round"
             id="path5152" />
          <path
             d="m 590.68027,401.68881 c 0.10414,0.004 0.20828,0.008 0.3116,0.0204 0.0989,0.0119 0.19701,0.032 0.29287,0.0596 0.0938,0.027 0.18548,0.0613 0.27414,0.10216 0.0885,0.0407 0.17395,0.0879 0.2554,0.14131 0.081,0.0531 0.15795,0.11229 0.22987,0.17709 0.0716,0.0646 0.13826,0.1347 0.19922,0.20944 0.0617,0.0756 0.11753,0.15595 0.16687,0.24008 0.0515,0.0879 0.0959,0.17987 0.13451,0.27414 0.0206,0.0504 0.0395,0.10144 0.0562,0.15325 0.0182,0.0566 0.0336,0.11414 0.0477,0.17198 0.0152,0.0626 0.0288,0.12567 0.0409,0.18899 0.0131,0.0689 0.0245,0.13822 0.0341,0.20775 0.0103,0.0747 0.0185,0.14967 0.0255,0.22473 0.008,0.0811 0.0137,0.16225 0.0187,0.2435 0.005,0.0873 0.01,0.17476 0.0119,0.26223 0.002,0.0931 0.003,0.18613 0.003,0.27924"
             style="fill:none;stroke:#666666;stroke-width:0.238125;stroke-linecap:round"
             id="path5154" />
          <path
             style="fill:none;stroke:#666666;stroke-width:0.238125;stroke-linecap:round"
             d="m 592.78302,404.64357 v 3.3655"
             id="path5156" />
          <path
             style="fill:none;stroke:#666666;stroke-width:0.238125;stroke-linecap:round"
             d="m 592.78302,408.00907 h -0.76279"
             id="path5158" />
          <path
             style="fill:none;stroke:#666666;stroke-width:0.238125;stroke-linecap:round"
             d="m 592.02023,408.00907 v -3.36815"
             id="path5160" />
          <path
             d="m 592.02032,404.64132 c -1.9e-4,-0.0795 -2.7e-4,-0.15891 -0.002,-0.23836 -10e-4,-0.0733 -0.003,-0.14648 -0.007,-0.21966 -0.003,-0.0665 -0.007,-0.13287 -0.0119,-0.19923 -0.004,-0.0602 -0.009,-0.12041 -0.0153,-0.18047 -0.006,-0.0535 -0.0122,-0.10692 -0.0204,-0.16008 -0.007,-0.0473 -0.0159,-0.0944 -0.0255,-0.14131 -0.008,-0.0412 -0.0175,-0.0822 -0.029,-0.12261 -0.01,-0.0345 -0.0211,-0.0686 -0.034,-0.10215 -0.0236,-0.0611 -0.0522,-0.12034 -0.0851,-0.17709 -0.0326,-0.0562 -0.0694,-0.10999 -0.11067,-0.16005 -0.0414,-0.0502 -0.0873,-0.0966 -0.13622,-0.13962 -0.0509,-0.0448 -0.10491,-0.0858 -0.16176,-0.1226 -0.058,-0.0376 -0.11904,-0.0707 -0.18219,-0.0987 -0.065,-0.0289 -0.13229,-0.0526 -0.20092,-0.0715 -0.0709,-0.0196 -0.14331,-0.0341 -0.21625,-0.0426 -0.0779,-0.009 -0.15644,-0.0114 -0.23498,-0.0138"
             style="fill:none;stroke:#666666;stroke-width:0.238125;stroke-linecap:round"
             id="path5162" />
          <path
             d="m 590.54746,402.45163 c -0.0963,0.003 -0.19269,0.007 -0.28776,0.0204 -0.0928,0.0132 -0.18446,0.0361 -0.27414,0.0647 -0.0905,0.0288 -0.17902,0.0635 -0.26392,0.10557 -0.0871,0.0431 -0.17047,0.094 -0.2503,0.14983 -0.0802,0.056 -0.15687,0.11705 -0.22817,0.18389 -0.0701,0.0657 -0.13499,0.13708 -0.19411,0.21285 -0.0597,0.0765 -0.11351,0.15754 -0.16176,0.24178 -0.0495,0.0865 -0.0932,0.17632 -0.12941,0.26903 -0.0197,0.0503 -0.0372,0.10152 -0.0528,0.15325 -0.0177,0.0584 -0.0329,0.1175 -0.046,0.17708 -0.0146,0.0665 -0.0265,0.13367 -0.0375,0.20093 -0.0122,0.0747 -0.0234,0.14959 -0.0323,0.22476 -0.01,0.0826 -0.0172,0.1656 -0.0238,0.2486 -0.007,0.0907 -0.0139,0.18153 -0.0187,0.27242 -0.005,0.0987 -0.008,0.19748 -0.0102,0.29628 -0.002,0.1067 -0.003,0.21341 -0.003,0.32012"
             style="fill:none;stroke:#666666;stroke-width:0.238125;stroke-linecap:round"
             id="path5164" />
          <path
             style="fill:none;stroke:#666666;stroke-width:0.238125;stroke-linecap:round"
             d="m 588.53302,405.59342 v 2.41565"
             id="path5166" />
          <path
             style="fill:none;stroke:#666666;stroke-width:0.238125;stroke-linecap:round"
             d="m 588.53302,408.00907 h -0.7628"
             id="path5168" />
          <path
             style="fill:none;stroke:#666666;stroke-width:0.238125;stroke-linecap:round"
             d="m 587.77022,408.00907 v -3.15913"
             id="path5170" />
          <path
             d="m 587.77031,404.85076 c -1.9e-4,-0.0891 -2.6e-4,-0.17822 -0.002,-0.26733 -0.001,-0.0823 -0.003,-0.16462 -0.007,-0.24688 -0.003,-0.0744 -0.007,-0.14875 -0.0119,-0.22307 -0.004,-0.067 -0.009,-0.13404 -0.0153,-0.20093 -0.006,-0.0597 -0.0125,-0.1193 -0.0204,-0.17878 -0.007,-0.0518 -0.0146,-0.10348 -0.0238,-0.15494 -0.008,-0.0452 -0.0173,-0.0901 -0.029,-0.13451 -0.01,-0.0373 -0.0212,-0.0742 -0.034,-0.11068 -0.0231,-0.0655 -0.0506,-0.12951 -0.0834,-0.19071 -0.032,-0.0597 -0.0691,-0.11678 -0.11067,-0.17026 -0.0417,-0.0537 -0.088,-0.10371 -0.13792,-0.14986 -0.0511,-0.0472 -0.10589,-0.0904 -0.16347,-0.1294 -0.0586,-0.0397 -0.11999,-0.0752 -0.18389,-0.10557 -0.0653,-0.031 -0.13315,-0.0566 -0.20262,-0.0766 -0.0713,-0.0206 -0.14437,-0.0353 -0.21795,-0.0443 -0.0779,-0.01 -0.15645,-0.0124 -0.23498,-0.0154"
             style="fill:none;stroke:#666666;stroke-width:0.238125;stroke-linecap:round"
             id="path5172" />
          <path
             d="m 586.29235,402.45163 c -0.0923,0.004 -0.18465,0.007 -0.27584,0.0204 -0.0906,0.013 -0.17998,0.035 -0.26733,0.063 -0.0887,0.0285 -0.17523,0.0631 -0.25881,0.10387 -0.0862,0.0421 -0.16928,0.0907 -0.2486,0.14473 -0.0802,0.0547 -0.1566,0.11494 -0.22817,0.1805 -0.0708,0.0649 -0.13691,0.13491 -0.19751,0.20942 -0.0608,0.0747 -0.11598,0.15391 -0.16517,0.23669 -0.0509,0.0856 -0.0953,0.17513 -0.13281,0.26731 -0.02,0.0493 -0.0381,0.0993 -0.0545,0.14986 -0.0178,0.055 -0.0335,0.11076 -0.0477,0.16688 -0.0156,0.062 -0.0293,0.12443 -0.0409,0.18729 -0.0126,0.0684 -0.0227,0.13714 -0.0324,0.20601 -0.0104,0.0742 -0.0201,0.14854 -0.0272,0.22307 -0.008,0.081 -0.0125,0.16224 -0.017,0.24349 -0.005,0.0868 -0.009,0.17362 -0.0119,0.26051 -0.003,0.0936 -0.003,0.18728 -0.003,0.28096"
             style="fill:none;stroke:#666666;stroke-width:0.238125;stroke-linecap:round"
             id="path5174" />
          <path
             style="fill:none;stroke:#666666;stroke-width:0.238125;stroke-linecap:round"
             d="m 584.28302,405.39499 v 2.61408"
             id="path5176" />
          <path
             style="fill:none;stroke:#666666;stroke-width:0.238125;stroke-linecap:round"
             d="m 580.57806,408.00907 h -0.7628"
             id="path5178" />
          <path
             style="fill:none;stroke:#666666;stroke-width:0.238125;stroke-linecap:round"
             d="m 579.81526,408.00907 v -6.21242"
             id="path5180" />
          <path
             style="fill:none;stroke:#666666;stroke-width:0.238125;stroke-linecap:round"
             d="m 579.81526,401.79665 h 0.7628"
             id="path5182" />
          <path
             style="fill:none;stroke:#666666;stroke-width:0.238125;stroke-linecap:round"
             d="m 580.57806,401.79665 v 0.91546"
             id="path5184" />
          <path
             d="m 580.57801,402.71214 c 0.0563,-0.0851 0.11263,-0.17026 0.17368,-0.25199 0.0557,-0.0746 0.11534,-0.14634 0.17878,-0.21455 0.0575,-0.0618 0.118,-0.12065 0.18219,-0.17539 0.0593,-0.0505 0.12171,-0.0976 0.1873,-0.13963 0.0616,-0.0395 0.12605,-0.0746 0.19241,-0.10556 0.0641,-0.0299 0.12992,-0.0559 0.19752,-0.0766 0.0651,-0.0201 0.13183,-0.0351 0.19922,-0.0443 0.0677,-0.009 0.13599,-0.0122 0.20432,-0.0154"
             style="fill:none;stroke:#666666;stroke-width:0.238125;stroke-linecap:round"
             id="path5186" />
          <path
             d="m 582.09343,401.68881 c 0.053,0.003 0.10602,0.006 0.15836,0.0138 0.0553,0.008 0.10995,0.0222 0.16346,0.0392 0.0577,0.0182 0.11405,0.0405 0.16857,0.0664 0.0594,0.0282 0.11652,0.0609 0.17367,0.0936"
             style="fill:none;stroke:#666666;stroke-width:0.238125;stroke-linecap:round"
             id="path5188" />
          <path
             style="fill:none;stroke:#666666;stroke-width:0.238125;stroke-linecap:round"
             d="m 582.75743,401.90249 -0.41884,0.65881"
             id="path5190" />
          <path
             d="m 582.33862,402.5623 c -0.0367,-0.0164 -0.0734,-0.0327 -0.11067,-0.0477 -0.0335,-0.0135 -0.0675,-0.0257 -0.10217,-0.0358 -0.0307,-0.009 -0.062,-0.0161 -0.0936,-0.0204 -0.0276,-0.004 -0.0555,-0.005 -0.0834,-0.007"
             style="fill:none;stroke:#666666;stroke-width:0.238125;stroke-linecap:round"
             id="path5192" />
          <path
             d="m 581.9487,402.45163 c -0.0612,0.004 -0.12243,0.008 -0.18219,0.0204 -0.0621,0.0127 -0.12271,0.0344 -0.18049,0.0613 -0.0615,0.0287 -0.1199,0.0633 -0.17538,0.10215 -0.0615,0.043 -0.11947,0.0911 -0.17368,0.14304 -0.029,0.0278 -0.0569,0.0566 -0.0834,0.0868 -0.0277,0.0316 -0.0538,0.0646 -0.0783,0.0988 -0.0254,0.0353 -0.0489,0.0718 -0.0715,0.10896 -0.024,0.0396 -0.0468,0.0798 -0.0681,0.12091 -0.0225,0.0435 -0.0434,0.0879 -0.063,0.13279 -0.0206,0.0472 -0.0399,0.0949 -0.0579,0.14304 -0.0191,0.0511 -0.0367,0.10282 -0.0528,0.15494 -0.017,0.0547 -0.0323,0.10996 -0.0477,0.16518"
             style="fill:none;stroke:#666666;stroke-width:0.238125;stroke-linecap:round"
             id="path5194" />
          <path
             d="m 580.71423,403.78997 c -0.0115,0.0492 -0.023,0.0985 -0.0324,0.14814 -0.0114,0.0603 -0.0196,0.12123 -0.0272,0.18219 -0.009,0.072 -0.0172,0.14404 -0.0238,0.21625 -0.008,0.0833 -0.0135,0.16679 -0.0187,0.25029 -0.006,0.0942 -0.0113,0.18839 -0.0153,0.28266 -0.005,0.10551 -0.008,0.21111 -0.0102,0.3167 -0.003,0.11692 -0.005,0.23384 -0.007,0.35076 -0.002,0.12827 -0.002,0.25654 -0.002,0.38481"
             style="fill:none;stroke:#666666;stroke-width:0.238125;stroke-linecap:round"
             id="path5196" />
          <path
             style="fill:none;stroke:#666666;stroke-width:0.238125;stroke-linecap:round"
             d="m 580.57806,405.92151 v 2.08756"
             id="path5198" />
          <path
             d="m 745.42256,407.84971 c -5.3e-4,0.0535 -10e-4,0.10705 -0.003,0.16058 -0.001,0.0507 -0.004,0.10146 -0.007,0.15213 -0.003,0.0482 -0.008,0.0964 -0.0126,0.14444 -0.005,0.0452 -0.0101,0.0904 -0.0168,0.13531 -0.006,0.0425 -0.0138,0.0848 -0.0224,0.12689 -0.008,0.0397 -0.0173,0.0792 -0.0273,0.11851 -0.009,0.0372 -0.0197,0.0742 -0.0316,0.11075 -0.0111,0.0343 -0.0237,0.0682 -0.0372,0.10168 -0.0129,0.0319 -0.0267,0.0635 -0.0414,0.0946 -0.0141,0.0299 -0.0291,0.0593 -0.0449,0.0883 -0.0153,0.0281 -0.0313,0.0557 -0.0484,0.0827 -0.0166,0.0262 -0.0342,0.052 -0.0526,0.0771 -0.0178,0.0243 -0.0364,0.048 -0.0561,0.0708 -0.0192,0.0222 -0.0394,0.0438 -0.0603,0.0645 -0.0205,0.0204 -0.0418,0.0401 -0.0638,0.0589 -0.0217,0.0185 -0.0442,0.036 -0.0673,0.0526 -0.0228,0.0164 -0.0462,0.0316 -0.0701,0.0463 -0.0236,0.0143 -0.0476,0.0282 -0.0722,0.0406 -0.0243,0.0122 -0.0491,0.0233 -0.0743,0.0337 -0.0249,0.0103 -0.0501,0.0196 -0.0757,0.028 -0.0256,0.008 -0.0516,0.0156 -0.0778,0.0217 -0.0264,0.006 -0.0531,0.0111 -0.0799,0.0154 -0.0272,0.004 -0.0546,0.008 -0.082,0.01 -0.0277,0.003 -0.0556,0.003 -0.0834,0.003"
             style="fill:none;stroke:#666666;stroke-width:0.238125;stroke-linecap:round"
             id="path5200" />
          <path
             d="m 744.21453,409.68806 c -0.0276,0 -0.0552,0 -0.0827,-0.003 -0.0267,-0.003 -0.0534,-0.005 -0.0799,-0.009 -0.0264,-0.004 -0.0526,-0.009 -0.0785,-0.0153 -0.0255,-0.006 -0.0507,-0.0132 -0.0757,-0.0212 -0.0251,-0.008 -0.05,-0.0167 -0.0743,-0.0266 -0.0245,-0.01 -0.0486,-0.0214 -0.0722,-0.0337 -0.0238,-0.0122 -0.0472,-0.0254 -0.0701,-0.0392 -0.0232,-0.014 -0.046,-0.029 -0.068,-0.0449 -0.0224,-0.0161 -0.0441,-0.0333 -0.0652,-0.0512 -0.0213,-0.018 -0.042,-0.037 -0.0617,-0.0568 -0.0201,-0.0201 -0.0392,-0.0413 -0.0575,-0.0631 -0.0188,-0.0225 -0.0367,-0.0457 -0.054,-0.0694 -0.0176,-0.0241 -0.0345,-0.049 -0.0505,-0.0743 -0.0166,-0.0262 -0.0322,-0.0532 -0.047,-0.0806 -0.0154,-0.0285 -0.0299,-0.0575 -0.0435,-0.0869 -0.0141,-0.0304 -0.0272,-0.0613 -0.0393,-0.0926 -0.0128,-0.033 -0.0244,-0.0665 -0.0351,-0.10025 -0.0115,-0.0364 -0.0218,-0.0731 -0.0308,-0.11006 -0.01,-0.0397 -0.0179,-0.0797 -0.0252,-0.11991 -0.008,-0.0429 -0.0149,-0.0859 -0.021,-0.12901 -0.007,-0.0459 -0.0122,-0.092 -0.0168,-0.13812 -0.005,-0.0495 -0.009,-0.099 -0.0119,-0.14864 -0.003,-0.0525 -0.006,-0.10512 -0.007,-0.15774 -0.001,-0.0556 -0.002,-0.11123 -0.002,-0.16688"
             style="fill:none;stroke:#666666;stroke-width:0.238125;stroke-linecap:round"
             id="path5202" />
          <path
             d="m 743.04436,407.84971 c 2.6e-4,-0.0561 5.3e-4,-0.11218 0.002,-0.16827 10e-4,-0.0528 0.004,-0.10568 0.007,-0.15844 0.003,-0.0498 0.007,-0.0996 0.0119,-0.14935 0.005,-0.0464 0.01,-0.0926 0.0161,-0.1388 0.006,-0.0432 0.0123,-0.0862 0.0203,-0.12902 0.007,-0.04 0.0162,-0.0797 0.026,-0.11919 0.009,-0.0367 0.019,-0.0732 0.0301,-0.10938 0.0104,-0.0335 0.0218,-0.0668 0.0344,-0.0996 0.0119,-0.031 0.0248,-0.0616 0.0386,-0.0918 0.0133,-0.0292 0.0275,-0.058 0.0428,-0.0863 0.0147,-0.0272 0.0305,-0.0538 0.047,-0.0799 0.0161,-0.0254 0.0328,-0.0506 0.0505,-0.075 0.0171,-0.0236 0.0352,-0.0464 0.054,-0.0687 0.0184,-0.0217 0.0374,-0.0429 0.0575,-0.0631 0.0197,-0.0198 0.0404,-0.0387 0.0617,-0.0568 0.0213,-0.0183 0.0433,-0.0355 0.0659,-0.0519 0.0223,-0.0161 0.0453,-0.0312 0.0687,-0.0456 0.0231,-0.014 0.0467,-0.0275 0.0708,-0.0399 0.0236,-0.0122 0.0477,-0.0236 0.0722,-0.0337 0.0246,-0.01 0.0497,-0.019 0.075,-0.0273 0.0252,-0.008 0.0507,-0.0156 0.0764,-0.0217 0.0259,-0.006 0.0521,-0.0114 0.0785,-0.0154 0.0265,-0.004 0.0532,-0.007 0.0799,-0.009 0.0275,-0.003 0.0551,-0.003 0.0827,-0.003"
             style="fill:none;stroke:#666666;stroke-width:0.238125;stroke-linecap:round"
             id="path5204" />
          <path
             d="m 744.21453,406.00858 c 0.0278,0 0.0557,0 0.0834,0.003 0.0275,0.003 0.0548,0.005 0.082,0.009 0.0266,0.004 0.053,0.009 0.0792,0.0153 0.0262,0.006 0.0522,0.0135 0.0778,0.0217 0.0256,0.008 0.0509,0.0172 0.0757,0.0273 0.025,0.0101 0.0495,0.0214 0.0736,0.0337 0.0246,0.0124 0.0487,0.0257 0.0722,0.04 0.0238,0.0145 0.0468,0.03 0.0694,0.0463 0.0228,0.0164 0.0451,0.0337 0.0666,0.0519 0.0221,0.0188 0.0434,0.0384 0.0638,0.0589 0.0207,0.0206 0.0405,0.0423 0.0596,0.0645 0.0195,0.0228 0.0383,0.046 0.0561,0.0701 0.0185,0.0251 0.0359,0.0509 0.0526,0.0771 0.0172,0.0271 0.0337,0.0546 0.0491,0.0827 0.0159,0.0292 0.0307,0.059 0.0449,0.089 0.0148,0.0314 0.0291,0.0631 0.0421,0.0953 0.0136,0.0337 0.0258,0.0679 0.0372,0.10237 0.0121,0.0366 0.0231,0.0735 0.0329,0.11078 0.0104,0.0394 0.0193,0.0792 0.0273,0.1192 0.008,0.0423 0.016,0.0849 0.0224,0.12758 0.007,0.0452 0.0126,0.0906 0.0175,0.13602 0.005,0.0483 0.009,0.0967 0.0126,0.14515 0.003,0.0509 0.006,0.10184 0.007,0.15283 0.002,0.0538 0.002,0.1075 0.003,0.16126"
             style="fill:none;stroke:#666666;stroke-width:0.238125;stroke-linecap:round"
             id="path5206" />
          <path
             d="m 742.30397,409.64319 c -0.0195,0 -0.0391,-0.003 -0.0582,-0.006 -0.0182,-0.003 -0.0361,-0.009 -0.0533,-0.0161 -0.0174,-0.007 -0.0341,-0.0161 -0.0498,-0.0266 -0.0162,-0.0109 -0.0312,-0.0233 -0.0449,-0.0371 -0.0138,-0.014 -0.0263,-0.0293 -0.0372,-0.0456 -0.0104,-0.0156 -0.0194,-0.0319 -0.0266,-0.0491 -0.007,-0.0175 -0.0128,-0.0355 -0.0161,-0.054 -0.003,-0.019 -0.005,-0.0382 -0.006,-0.0575"
             style="fill:none;stroke:#666666;stroke-width:0.238125;stroke-linecap:round"
             id="path5208" />
          <path
             d="m 742.0123,409.35151 c 10e-4,-0.0198 0.002,-0.0395 0.006,-0.0589 0.003,-0.0185 0.009,-0.0366 0.0161,-0.054 0.007,-0.0172 0.0162,-0.0336 0.0266,-0.0491 0.0109,-0.0161 0.0234,-0.0311 0.0372,-0.0449 0.0138,-0.0138 0.0287,-0.0262 0.0449,-0.0372 0.0156,-0.0106 0.0323,-0.0196 0.0498,-0.0266 0.0172,-0.007 0.0351,-0.0122 0.0533,-0.0154 0.0192,-0.003 0.0387,-0.004 0.0582,-0.006"
             style="fill:none;stroke:#666666;stroke-width:0.238125;stroke-linecap:round"
             id="path5210" />
          <path
             d="m 742.30397,409.05986 c 0.0195,0 0.039,0.003 0.0582,0.006 0.0184,0.003 0.0366,0.008 0.054,0.0153 0.0172,0.007 0.0336,0.0161 0.0491,0.0267 0.0161,0.0109 0.0312,0.0233 0.0449,0.0371 0.0137,0.0137 0.0261,0.0288 0.0372,0.0449 0.0107,0.0153 0.0201,0.0318 0.0273,0.0491 0.007,0.0172 0.0123,0.0355 0.0154,0.054 0.003,0.0196 0.004,0.0392 0.006,0.0589"
             style="fill:none;stroke:#666666;stroke-width:0.238125;stroke-linecap:round"
             id="path5212" />
          <path
             d="m 742.59564,409.35151 c -10e-4,0.0193 -0.002,0.0385 -0.006,0.0575 -0.003,0.0185 -0.008,0.0367 -0.0154,0.054 -0.007,0.0172 -0.0167,0.0335 -0.0273,0.0491 -0.0111,0.0161 -0.0234,0.0316 -0.0372,0.0456 -0.0136,0.0138 -0.0287,0.0262 -0.0449,0.0371 -0.0154,0.0106 -0.0319,0.0193 -0.0491,0.0266 -0.0174,0.007 -0.0355,0.0127 -0.054,0.0161 -0.0192,0.003 -0.0387,0.005 -0.0582,0.006"
             style="fill:none;stroke:#666666;stroke-width:0.238125;stroke-linecap:round"
             id="path5214" />
          <path
             style="fill:none;stroke:#666666;stroke-width:0.238125;stroke-linecap:round"
             d="M 740.12762,406.45861 H 739.5892"
             id="path5216" />
          <path
             style="fill:none;stroke:#666666;stroke-width:0.238125;stroke-linecap:round"
             d="m 739.5892,406.45861 0.20558,-0.35983"
             id="path5218" />
          <path
             style="fill:none;stroke:#666666;stroke-width:0.238125;stroke-linecap:round"
             d="m 739.79478,406.09878 h 0.6469"
             id="path5220" />
          <path
             style="fill:none;stroke:#666666;stroke-width:0.238125;stroke-linecap:round"
             d="m 740.44168,406.09878 v 3.50044"
             id="path5222" />
          <path
             style="fill:none;stroke:#666666;stroke-width:0.238125;stroke-linecap:round"
             d="m 740.44168,409.59922 h -0.31406"
             id="path5224" />
          <path
             style="fill:none;stroke:#666666;stroke-width:0.238125;stroke-linecap:round"
             d="m 740.12762,409.59922 v -3.14061"
             id="path5226" />
          <path
             style="fill:none;stroke:#666666;stroke-width:0.238125;stroke-linecap:round"
             d="m 737.5699,409.59922 h -0.0447"
             id="path5228" />
          <path
             style="fill:none;stroke:#666666;stroke-width:0.238125;stroke-linecap:round"
             d="m 737.52518,409.59922 -1.16681,-2.55853"
             id="path5230" />
          <path
             style="fill:none;stroke:#666666;stroke-width:0.238125;stroke-linecap:round"
             d="m 736.35837,407.04069 h 0.34025"
             id="path5232" />
          <path
             style="fill:none;stroke:#666666;stroke-width:0.238125;stroke-linecap:round"
             d="m 736.69862,407.04069 0.84905,1.86267"
             id="path5234" />
          <path
             style="fill:none;stroke:#666666;stroke-width:0.238125;stroke-linecap:round"
             d="m 737.54767,408.90336 0.84905,-1.86267"
             id="path5236" />
          <path
             style="fill:none;stroke:#666666;stroke-width:0.238125;stroke-linecap:round"
             d="m 738.39672,407.04069 h 0.33999"
             id="path5238" />
          <path
             style="fill:none;stroke:#666666;stroke-width:0.238125;stroke-linecap:round"
             d="m 738.73671,407.04069 -1.16681,2.55853"
             id="path5240" />
          <path
             d="m 720.87769,408.38679 c 0.002,0.0337 0.003,0.0674 0.006,0.10094 0.003,0.0324 0.008,0.0647 0.014,0.0968 0.006,0.0309 0.0134,0.0616 0.0224,0.0919 0.009,0.0294 0.0192,0.0584 0.0308,0.0869 0.0114,0.0279 0.0239,0.0553 0.0379,0.082 0.014,0.0267 0.0294,0.0528 0.0463,0.0778 0.017,0.0251 0.0353,0.0495 0.0547,0.0729 0.0197,0.0238 0.0405,0.0469 0.0624,0.0687 0.0218,0.0217 0.0449,0.0422 0.0687,0.0617 0.0233,0.019 0.0473,0.0372 0.0722,0.054 0.0246,0.0167 0.0502,0.0318 0.0764,0.0456 0.0262,0.0138 0.0531,0.0262 0.0806,0.0371 0.0275,0.0111 0.0556,0.0206 0.0841,0.0288 0.0291,0.008 0.0586,0.0148 0.0883,0.0204 0.0304,0.006 0.0611,0.0101 0.0919,0.0127 0.0319,0.003 0.064,0.003 0.096,0.004"
             style="fill:none;stroke:#666666;stroke-width:0.238125;stroke-linecap:round"
             id="path5242" />
          <path
             d="m 721.81088,409.32908 c 0.0313,0 0.0627,0 0.0939,-0.003 0.0308,-0.003 0.0614,-0.006 0.0919,-0.0111 0.0306,-0.005 0.061,-0.0114 0.0911,-0.019 0.0302,-0.007 0.0602,-0.0161 0.0897,-0.0259 0.0292,-0.01 0.058,-0.0204 0.0862,-0.0323 0.0269,-0.0114 0.0533,-0.0241 0.0792,-0.0379 0.0246,-0.013 0.0488,-0.027 0.0722,-0.0421 0.0227,-0.0145 0.0448,-0.0302 0.0659,-0.047 0.0223,-0.0177 0.0436,-0.0367 0.0638,-0.0568 0.0234,-0.0233 0.0453,-0.0478 0.0666,-0.0729 0.024,-0.0283 0.0473,-0.0571 0.0694,-0.0869 0.0249,-0.0336 0.0482,-0.0683 0.0715,-0.10305"
             style="fill:none;stroke:#666666;stroke-width:0.238125;stroke-linecap:round"
             id="path5244" />
          <path
             style="fill:none;stroke:#666666;stroke-width:0.238125;stroke-linecap:round"
             d="m 722.75244,408.78959 0.27913,0.14817"
             id="path5246" />
          <path
             d="m 723.03153,408.93715 c -0.0222,0.0395 -0.0445,0.0789 -0.0687,0.1171 -0.0229,0.0361 -0.0476,0.0711 -0.0736,0.10517 -0.0248,0.0324 -0.0508,0.064 -0.0785,0.0939 -0.0265,0.0286 -0.0547,0.0557 -0.0841,0.0813 -0.0286,0.0249 -0.0583,0.0486 -0.089,0.0708 -0.0304,0.022 -0.0617,0.0426 -0.094,0.0617 -0.0326,0.0193 -0.0661,0.037 -0.10026,0.0533 -0.0344,0.0164 -0.0694,0.0311 -0.10516,0.0442 -0.0366,0.0132 -0.0738,0.0246 -0.11148,0.0343 -0.0391,0.0101 -0.0787,0.018 -0.11849,0.0246 -0.0416,0.007 -0.0835,0.0116 -0.1255,0.0148 -0.0441,0.003 -0.0883,0.004 -0.13252,0.005"
             style="fill:none;stroke:#666666;stroke-width:0.238125;stroke-linecap:round"
             id="path5248" />
          <path
             d="m 721.85014,409.64319 c -0.0491,0 -0.0983,-0.003 -0.14723,-0.006 -0.0465,-0.004 -0.0929,-0.0103 -0.13882,-0.0188 -0.044,-0.008 -0.0875,-0.0188 -0.13041,-0.0316 -0.0417,-0.0124 -0.0827,-0.0271 -0.1227,-0.0442 -0.0389,-0.0167 -0.0769,-0.0356 -0.11358,-0.0568 -0.0366,-0.0212 -0.0719,-0.0443 -0.10587,-0.0694 -0.0343,-0.0254 -0.0672,-0.0527 -0.0982,-0.082 -0.0315,-0.0298 -0.061,-0.0616 -0.0891,-0.0947 -0.0281,-0.033 -0.0547,-0.0672 -0.0799,-0.10234 -0.0246,-0.0343 -0.0479,-0.0696 -0.0694,-0.10588 -0.0211,-0.0355 -0.0405,-0.072 -0.0582,-0.10938 -0.0175,-0.0369 -0.0333,-0.0746 -0.0477,-0.11287 -0.0143,-0.038 -0.027,-0.0766 -0.0379,-0.11568 -0.0108,-0.039 -0.0197,-0.0786 -0.0266,-0.1185 -0.007,-0.0406 -0.0122,-0.0816 -0.0154,-0.12269 -0.003,-0.0417 -0.004,-0.0836 -0.006,-0.12549"
             style="fill:none;stroke:#666666;stroke-width:0.238125;stroke-linecap:round"
             id="path5250" />
          <path
             d="m 720.56359,408.32649 c 10e-4,-0.0393 0.002,-0.0786 0.005,-0.11779 0.003,-0.0385 0.007,-0.0769 0.0133,-0.11499 0.006,-0.0375 0.0139,-0.0747 0.0231,-0.11147 0.009,-0.0367 0.0199,-0.0729 0.0322,-0.10869 0.0122,-0.0356 0.0261,-0.0707 0.0414,-0.10517 0.0154,-0.0346 0.0322,-0.0685 0.0505,-0.10165 0.0186,-0.0338 0.0387,-0.0669 0.0603,-0.0988 0.0219,-0.0325 0.0453,-0.0639 0.0687,-0.0954"
             style="fill:none;stroke:#666666;stroke-width:0.238125;stroke-linecap:round"
             id="path5252" />
          <path
             d="m 720.85806,407.47252 c 0.0317,-0.0379 0.0634,-0.0757 0.0974,-0.11149 0.033,-0.0346 0.0681,-0.0672 0.10517,-0.0975 0.036,-0.0293 0.0737,-0.0564 0.11288,-0.0813 0.0391,-0.0249 0.0795,-0.0474 0.1213,-0.0673 0.0419,-0.0198 0.0851,-0.037 0.129,-0.0519 0.0448,-0.0151 0.0905,-0.0279 0.13672,-0.0379 0.0476,-0.0103 0.0959,-0.0175 0.14443,-0.0217 0.0508,-0.004 0.10183,-0.006 0.15285,-0.008"
             style="fill:none;stroke:#666666;stroke-width:0.238125;stroke-linecap:round"
             id="path5254" />
          <path
             d="m 721.85786,406.99574 c 0.0524,0.003 0.10489,0.003 0.15705,0.008 0.0502,0.005 0.10005,0.013 0.14934,0.0238 0.0477,0.0106 0.0948,0.0236 0.14092,0.0393 0.0452,0.0156 0.0895,0.0338 0.13252,0.0547 0.043,0.0209 0.0848,0.0446 0.12479,0.0708 0.0405,0.0266 0.0792,0.0558 0.11639,0.087 0.0382,0.032 0.0747,0.066 0.10867,0.10236 0.0352,0.0376 0.0677,0.0777 0.10027,0.1178"
             style="fill:none;stroke:#666666;stroke-width:0.238125;stroke-linecap:round"
             id="path5256" />
          <path
             d="m 722.88781,407.49916 c 0.0221,0.0302 0.0443,0.0604 0.0645,0.0918 0.0201,0.0312 0.0384,0.0637 0.0554,0.0968 0.0173,0.0337 0.0334,0.068 0.0477,0.10305 0.0145,0.0354 0.0272,0.0715 0.0386,0.10798 0.0117,0.0375 0.022,0.0753 0.0308,0.11359 0.009,0.0394 0.0166,0.0792 0.0224,0.11919 0.006,0.0414 0.0105,0.0831 0.0133,0.12481 0.003,0.0434 0.004,0.0869 0.006,0.13041"
             style="fill:none;stroke:#666666;stroke-width:0.238125;stroke-linecap:round"
             id="path5258" />
          <path
             style="fill:none;stroke:#666666;stroke-width:0.238125;stroke-linecap:round"
             d="M 723.16624,408.38742 H 720.8776"
             id="path5260" />
          <path
             style="fill:none;stroke:#666666;stroke-width:0.238125;stroke-linecap:round"
             d="m 719.12764,409.59922 v -3.14061"
             id="path5262" />
          <path
             style="fill:none;stroke:#666666;stroke-width:0.238125;stroke-linecap:round"
             d="m 719.12764,406.45861 h -0.76279"
             id="path5264" />
          <path
             style="fill:none;stroke:#666666;stroke-width:0.238125;stroke-linecap:round"
             d="m 718.36485,406.45861 v -0.35983"
             id="path5266" />
          <path
             style="fill:none;stroke:#666666;stroke-width:0.238125;stroke-linecap:round"
             d="m 718.36485,406.09878 h 1.83965"
             id="path5268" />
          <path
             style="fill:none;stroke:#666666;stroke-width:0.238125;stroke-linecap:round"
             d="m 720.2045,406.09878 v 0.35983"
             id="path5270" />
          <path
             style="fill:none;stroke:#666666;stroke-width:0.238125;stroke-linecap:round"
             d="m 720.2045,406.45861 h -0.76279"
             id="path5272" />
          <path
             style="fill:none;stroke:#666666;stroke-width:0.238125;stroke-linecap:round"
             d="m 719.44171,406.45861 v 3.14061"
             id="path5274" />
          <path
             style="fill:none;stroke:#666666;stroke-width:0.238125;stroke-linecap:round"
             d="m 719.44171,409.59922 h -0.31407"
             id="path5276" />
        </g>
      </g>
    </g>
  </g>
</svg>
