<?xml version="1.0" encoding="UTF-8" standalone="no"?>
<!-- Created with Inkscape (http://www.inkscape.org/) -->

<svg
   xmlns:dc="http://purl.org/dc/elements/1.1/"
   xmlns:cc="http://creativecommons.org/ns#"
   xmlns:rdf="http://www.w3.org/1999/02/22-rdf-syntax-ns#"
   xmlns:svg="http://www.w3.org/2000/svg"
   xmlns="http://www.w3.org/2000/svg"
   xmlns:sodipodi="http://sodipodi.sourceforge.net/DTD/sodipodi-0.dtd"
   xmlns:inkscape="http://www.inkscape.org/namespaces/inkscape"
   width="32in"
   height="18in"
   viewBox="0 0 812.80002 457.20001"
   version="1.1"
   id="svg8"
   inkscape:version="0.92.4 (5da689c313, 2019-01-14)"
   sodipodi:docname="plates.svg">
  <defs
     id="defs2">
    <marker
       style="overflow:visible"
       refY="0.0"
       refX="0.0"
       orient="auto"
       id="DistanceX">
      <path
         id="path5131"
         style="stroke:#000000; stroke-width:0.5"
         d="M 3,-3 L -3,3 M 0,-5 L  0,5" />
    </marker>
    <pattern
       y="0"
       x="0"
       width="8"
       patternUnits="userSpaceOnUse"
       id="Hatch"
       height="8">
      <path
         id="path5134"
         stroke-width="0.25"
         stroke="#000000"
         linecap="square"
         d="M8 4 l-4,4" />
      <path
         id="path5136"
         stroke-width="0.25"
         stroke="#000000"
         linecap="square"
         d="M6 2 l-4,4" />
      <path
         id="path5138"
         stroke-width="0.25"
         stroke="#000000"
         linecap="square"
         d="M4 0 l-4,4" />
    </pattern>
    <symbol
       id="*Model_Space" />
    <symbol
       id="*Paper_Space" />
    <symbol
       id="*Paper_Space0" />
    <marker
       style="overflow:visible"
       refY="0.0"
       refX="0.0"
       orient="auto"
       id="DistanceX-8">
      <path
         id="path5265"
         style="stroke:#000000; stroke-width:0.5"
         d="M 3,-3 L -3,3 M 0,-5 L  0,5" />
    </marker>
    <pattern
       y="0"
       x="0"
       width="8"
       patternUnits="userSpaceOnUse"
       id="Hatch-0"
       height="8">
      <path
         id="path5268"
         stroke-width="0.25"
         stroke="#000000"
         linecap="square"
         d="M8 4 l-4,4" />
      <path
         id="path5270"
         stroke-width="0.25"
         stroke="#000000"
         linecap="square"
         d="M6 2 l-4,4" />
      <path
         id="path5272"
         stroke-width="0.25"
         stroke="#000000"
         linecap="square"
         d="M4 0 l-4,4" />
    </pattern>
    <symbol
       id="*Model_Space-6" />
    <symbol
       id="*Paper_Space-6" />
    <symbol
       id="*Paper_Space0-4" />
    <marker
       style="overflow:visible"
       refY="0.0"
       refX="0.0"
       orient="auto"
       id="DistanceX-5">
      <path
         id="path5460"
         style="stroke:#000000; stroke-width:0.5"
         d="M 3,-3 L -3,3 M 0,-5 L  0,5" />
    </marker>
    <pattern
       y="0"
       x="0"
       width="8"
       patternUnits="userSpaceOnUse"
       id="Hatch-4"
       height="8">
      <path
         id="path5463"
         stroke-width="0.25"
         stroke="#000000"
         linecap="square"
         d="M8 4 l-4,4" />
      <path
         id="path5465"
         stroke-width="0.25"
         stroke="#000000"
         linecap="square"
         d="M6 2 l-4,4" />
      <path
         id="path5467"
         stroke-width="0.25"
         stroke="#000000"
         linecap="square"
         d="M4 0 l-4,4" />
    </pattern>
    <symbol
       id="*Model_Space-62" />
    <symbol
       id="*Paper_Space-2" />
    <symbol
       id="*Paper_Space0-5" />
  </defs>
  <sodipodi:namedview
     id="base"
     pagecolor="#ffffff"
     bordercolor="#666666"
     borderopacity="1.0"
     inkscape:pageopacity="0.0"
     inkscape:pageshadow="2"
     inkscape:zoom="0.7"
     inkscape:cx="489.8255"
     inkscape:cy="999.09498"
     inkscape:document-units="mm"
     inkscape:current-layer="layer1"
     showgrid="false"
     units="in"
     inkscape:window-width="1920"
     inkscape:window-height="1001"
     inkscape:window-x="-9"
     inkscape:window-y="-9"
     inkscape:window-maximized="1" />
  <metadata
     id="metadata5">
    <rdf:RDF>
      <cc:Work
         rdf:about="">
        <dc:format>image/svg+xml</dc:format>
        <dc:type
           rdf:resource="http://purl.org/dc/dcmitype/StillImage" />
        <dc:title></dc:title>
      </cc:Work>
    </rdf:RDF>
  </metadata>
  <g
     inkscape:label="Layer 1"
     inkscape:groupmode="layer"
     id="layer1"
     transform="translate(0,160.20003)">
    <g
       id="g5261"
       transform="translate(-37.417734,52.384827)"
       style="fill:none;stroke:#ff0000;stroke-width:0.0254;stroke-miterlimit:4;stroke-dasharray:none;stroke-opacity:1">
      <path
         id="path5146"
         style="fill:none;stroke:#ff0000;stroke-width:0.0254;stroke-linecap:round;stroke-miterlimit:4;stroke-dasharray:none;stroke-opacity:1"
         d="m 233.59765,42.605156 a 3.4417,3.4417 0 1 0 -6.8834,0 3.4417,3.4417 0 1 0 6.8834,0 z"
         inkscape:connector-curvature="0" />
      <path
         id="path5148"
         style="fill:none;stroke:#ff0000;stroke-width:0.0254;stroke-linecap:round;stroke-miterlimit:4;stroke-dasharray:none;stroke-opacity:1"
         d="m 92.297651,183.90515 a 3.4417,3.4417 0 1 0 -6.8834,0 3.4417,3.4417 0 1 0 6.8834,0 z"
         inkscape:connector-curvature="0" />
      <path
         id="path5150"
         style="fill:none;stroke:#ff0000;stroke-width:0.0254;stroke-linecap:round;stroke-miterlimit:4;stroke-dasharray:none;stroke-opacity:1"
         d="m 233.59765,183.90515 a 3.4417,3.4417 0 1 0 -6.8834,0 3.4417,3.4417 0 1 0 6.8834,0 z"
         inkscape:connector-curvature="0" />
      <path
         id="path5152"
         style="fill:none;stroke:#ff0000;stroke-width:0.0254;stroke-linecap:round;stroke-miterlimit:4;stroke-dasharray:none;stroke-opacity:1"
         d="m 92.297651,42.605156 a 3.4417,3.4417 0 1 0 -6.8834,0 3.4417,3.4417 0 1 0 6.8834,0 z"
         inkscape:connector-curvature="0" />
      <path
         id="path5154"
         style="fill:none;stroke:#ff0000;stroke-width:0.0254;stroke-linecap:round;stroke-miterlimit:4;stroke-dasharray:none;stroke-opacity:1"
         d="m 165.85595,113.25516 a 6.35,6.35 0 1 0 -12.7,0 6.35,6.35 0 1 0 12.7,0 z"
         inkscape:connector-curvature="0" />
      <path
         id="path5156"
         style="fill:none;stroke:#ff0000;stroke-width:0.0254;stroke-linecap:round;stroke-miterlimit:4;stroke-dasharray:none;stroke-opacity:1"
         d="m 127.90595,147.25515 a 2.4,2.4 0 1 0 -4.8,0 2.4,2.4 0 1 0 4.8,0 z"
         inkscape:connector-curvature="0" />
      <path
         id="path5158"
         style="fill:none;stroke:#ff0000;stroke-width:0.0254;stroke-linecap:round;stroke-miterlimit:4;stroke-dasharray:none;stroke-opacity:1"
         d="m 195.90595,147.25515 a 2.4,2.4 0 1 0 -4.8,0 2.4,2.4 0 1 0 4.8,0 z"
         inkscape:connector-curvature="0" />
      <path
         id="path5160"
         style="fill:none;stroke:#ff0000;stroke-width:0.0254;stroke-linecap:round;stroke-miterlimit:4;stroke-dasharray:none;stroke-opacity:1"
         d="m 195.90595,79.255157 a 2.4,2.4 0 1 0 -4.8,0 2.4,2.4 0 1 0 4.8,0 z"
         inkscape:connector-curvature="0" />
      <path
         id="path5162"
         style="fill:none;stroke:#ff0000;stroke-width:0.0254;stroke-linecap:round;stroke-miterlimit:4;stroke-dasharray:none;stroke-opacity:1"
         d="m 127.90595,79.255157 a 2.4,2.4 0 1 0 -4.8,0 2.4,2.4 0 1 0 4.8,0 z"
         inkscape:connector-curvature="0" />
      <path
         id="path5164"
         style="fill:none;stroke:#ff0000;stroke-width:0.0254;stroke-linecap:round;stroke-miterlimit:4;stroke-dasharray:none;stroke-opacity:1"
         d="m 145.09095,113.25516 a 1.8000001,1.8000001 0 1 0 -3.6,0 1.8000001,1.8000001 0 1 0 3.6,0 z"
         inkscape:connector-curvature="0" />
      <path
         id="path5166"
         style="fill:none;stroke:#ff0000;stroke-width:0.0254;stroke-linecap:round;stroke-miterlimit:4;stroke-dasharray:none;stroke-opacity:1"
         d="m 177.52095,113.25516 a 1.8000001,1.8000001 0 1 0 -3.6,0 1.8000001,1.8000001 0 1 0 3.6,0 z"
         inkscape:connector-curvature="0" />
      <path
         id="path5168"
         style="fill:none;stroke:#ff0000;stroke-width:0.0254;stroke-linecap:round;stroke-miterlimit:4;stroke-dasharray:none;stroke-opacity:1"
         d="m 82.00595,190.75516 h 155"
         inkscape:connector-curvature="0" />
      <path
         id="path5170"
         style="fill:none;stroke:#ff0000;stroke-width:0.0254;stroke-linecap:round;stroke-miterlimit:4;stroke-dasharray:none;stroke-opacity:1"
         d="M 237.00595,190.75516 V 35.755157"
         inkscape:connector-curvature="0" />
      <path
         id="path5172"
         style="fill:none;stroke:#ff0000;stroke-width:0.0254;stroke-linecap:round;stroke-miterlimit:4;stroke-dasharray:none;stroke-opacity:1"
         d="m 237.00595,35.755157 h -155"
         inkscape:connector-curvature="0" />
      <path
         id="path5174"
         style="fill:none;stroke:#ff0000;stroke-width:0.0254;stroke-linecap:round;stroke-miterlimit:4;stroke-dasharray:none;stroke-opacity:1"
         d="M 82.00595,35.755157 V 190.75516"
         inkscape:connector-curvature="0" />
    </g>
    <g
       id="g5637"
       style="fill:none;stroke:#ff0000;stroke-width:0.0254;stroke-miterlimit:4;stroke-dasharray:none;stroke-opacity:1">
      <path
         id="path5475"
         style="fill:none;stroke:#ff0000;stroke-width:0.0254;stroke-linecap:round;stroke-miterlimit:4;stroke-dasharray:none;stroke-opacity:1"
         d="m 166.70087,-33.11841 a 11.15,11.15 0 1 0 -22.3,0 11.15,11.15 0 1 0 22.3,0 z"
         inkscape:connector-curvature="0" />
      <path
         id="path5477"
         style="fill:none;stroke:#ff0000;stroke-width:0.0254;stroke-linecap:round;stroke-miterlimit:4;stroke-dasharray:none;stroke-opacity:1"
         d="m 147.45138,-43.017901 a 1.8000001,1.8000001 0 1 0 -3.6,0 1.8000001,1.8000001 0 1 0 3.6,0 z"
         inkscape:connector-curvature="0" />
      <path
         id="path5479"
         style="fill:none;stroke:#ff0000;stroke-width:0.0254;stroke-linecap:round;stroke-miterlimit:4;stroke-dasharray:none;stroke-opacity:1"
         d="m 123.95087,-67.118413 a 2.4,2.4 0 1 0 -4.8,0 2.4,2.4 0 1 0 4.8,0 z"
         inkscape:connector-curvature="0" />
      <path
         id="path5481"
         style="fill:none;stroke:#ff0000;stroke-width:0.0254;stroke-linecap:round;stroke-miterlimit:4;stroke-dasharray:none;stroke-opacity:1"
         d="m 147.45138,-23.218919 a 1.8000001,1.8000001 0 1 0 -3.6,0 1.8000001,1.8000001 0 1 0 3.6,0 z"
         inkscape:connector-curvature="0" />
      <path
         id="path5483"
         style="fill:none;stroke:#ff0000;stroke-width:0.0254;stroke-linecap:round;stroke-miterlimit:4;stroke-dasharray:none;stroke-opacity:1"
         d="m 167.25036,-23.218919 a 1.8000001,1.8000001 0 1 0 -3.6,0 1.8000001,1.8000001 0 1 0 3.6,0 z"
         inkscape:connector-curvature="0" />
      <path
         id="path5485"
         style="fill:none;stroke:#ff0000;stroke-width:0.0254;stroke-linecap:round;stroke-miterlimit:4;stroke-dasharray:none;stroke-opacity:1"
         d="m 167.25036,-43.017901 a 1.8000001,1.8000001 0 1 0 -3.6,0 1.8000001,1.8000001 0 1 0 3.6,0 z"
         inkscape:connector-curvature="0" />
      <path
         id="path5487"
         style="fill:none;stroke:#ff0000;stroke-width:0.0254;stroke-linecap:round;stroke-miterlimit:4;stroke-dasharray:none;stroke-opacity:1"
         d="m 123.95087,0.88158 a 2.4,2.4 0 1 0 -4.8,0 2.4,2.4 0 1 0 4.8,0 z"
         inkscape:connector-curvature="0" />
      <path
         id="path5489"
         style="fill:none;stroke:#ff0000;stroke-width:0.0254;stroke-linecap:round;stroke-miterlimit:4;stroke-dasharray:none;stroke-opacity:1"
         d="m 191.95087,0.88158 a 2.4,2.4 0 1 0 -4.8,0 2.4,2.4 0 1 0 4.8,0 z"
         inkscape:connector-curvature="0" />
      <path
         id="path5491"
         style="fill:none;stroke:#ff0000;stroke-width:0.0254;stroke-linecap:round;stroke-miterlimit:4;stroke-dasharray:none;stroke-opacity:1"
         d="m 191.95087,-67.118413 a 2.4,2.4 0 1 0 -4.8,0 2.4,2.4 0 1 0 4.8,0 z"
         inkscape:connector-curvature="0" />
      <path
         id="path5493"
         style="fill:none;stroke:#ff0000;stroke-width:0.0254;stroke-linecap:round;stroke-miterlimit:4;stroke-dasharray:none;stroke-opacity:1"
         d="m 58.00832,66.881574 a 2.45745,2.45745 0 1 0 -4.9149,0 2.45745,2.45745 0 1 0 4.9149,0 z"
         inkscape:connector-curvature="0" />
      <path
         id="path5495"
         style="fill:none;stroke:#ff0000;stroke-width:0.0254;stroke-linecap:round;stroke-miterlimit:4;stroke-dasharray:none;stroke-opacity:1"
         d="m 258.00832,66.881574 a 2.45745,2.45745 0 1 0 -4.9149,0 2.45745,2.45745 0 1 0 4.9149,0 z"
         inkscape:connector-curvature="0" />
      <path
         id="path5497"
         style="fill:none;stroke:#ff0000;stroke-width:0.0254;stroke-linecap:round;stroke-miterlimit:4;stroke-dasharray:none;stroke-opacity:1"
         d="m 258.00832,-133.11841 a 2.45745,2.45745 0 1 0 -4.9149,0 2.45745,2.45745 0 1 0 4.9149,0 z"
         inkscape:connector-curvature="0" />
      <path
         id="path5499"
         style="fill:none;stroke:#ff0000;stroke-width:0.0254;stroke-linecap:round;stroke-miterlimit:4;stroke-dasharray:none;stroke-opacity:1"
         d="m 58.00832,-133.11841 a 2.45745,2.45745 0 1 0 -4.9149,0 2.45745,2.45745 0 1 0 4.9149,0 z"
         inkscape:connector-curvature="0" />
      <path
         id="path5501"
         style="fill:none;stroke:#ff0000;stroke-width:0.0254;stroke-linecap:round;stroke-miterlimit:4;stroke-dasharray:none;stroke-opacity:1"
         d="m 182.35087,64.181581 a 1.8000002,1.8000002 0 1 0 -3.6,0 1.8000002,1.8000002 0 1 0 3.6,0 z"
         inkscape:connector-curvature="0" />
      <path
         id="path5503"
         style="fill:none;stroke:#ff0000;stroke-width:0.0254;stroke-linecap:round;stroke-miterlimit:4;stroke-dasharray:none;stroke-opacity:1"
         d="m 130.45087,68.881586 a 1.8000001,1.8000001 0 1 0 -3.6,0 1.8000001,1.8000001 0 1 0 3.6,0 z"
         inkscape:connector-curvature="0" />
      <path
         id="path5505"
         style="fill:none;stroke:#ff0000;stroke-width:0.0254;stroke-linecap:round;stroke-miterlimit:4;stroke-dasharray:none;stroke-opacity:1"
         d="m 131.55087,21.081591 a 1.8000001,1.8000001 0 1 0 -3.6,0 1.8000001,1.8000001 0 1 0 3.6,0 z"
         inkscape:connector-curvature="0" />
      <path
         id="path5507"
         style="fill:none;stroke:#ff0000;stroke-width:0.0254;stroke-linecap:round;stroke-miterlimit:4;stroke-dasharray:none;stroke-opacity:1"
         d="m 182.35087,36.281586 a 1.8000002,1.8000002 0 1 0 -3.6,0 1.8000002,1.8000002 0 1 0 3.6,0 z"
         inkscape:connector-curvature="0" />
      <path
         id="path5509"
         style="fill:none;stroke:#ff0000;stroke-width:0.0254;stroke-linecap:round;stroke-miterlimit:4;stroke-dasharray:none;stroke-opacity:1"
         d="m 104.75087,21.081591 a 10,10 0 1 0 -19.999999,0 10,10 0 1 0 19.999999,0 z"
         inkscape:connector-curvature="0" />
      <path
         id="path5511"
         style="fill:none;stroke:#ff0000;stroke-width:0.0254;stroke-linecap:round;stroke-miterlimit:4;stroke-dasharray:none;stroke-opacity:1"
         d="M 265.55087,-143.11841 H 45.550872"
         inkscape:connector-curvature="0" />
      <path
         id="path5513"
         style="fill:none;stroke:#ff0000;stroke-width:0.0254;stroke-linecap:round;stroke-miterlimit:4;stroke-dasharray:none;stroke-opacity:1"
         d="M 45.550872,76.88158 H 265.55087"
         inkscape:connector-curvature="0" />
      <path
         id="path5515"
         style="fill:none;stroke:#ff0000;stroke-width:0.0254;stroke-linecap:round;stroke-miterlimit:4;stroke-dasharray:none;stroke-opacity:1"
         d="M 45.550872,-143.11841 V 76.88158"
         inkscape:connector-curvature="0" />
      <path
         id="path5517"
         style="fill:none;stroke:#ff0000;stroke-width:0.0254;stroke-linecap:round;stroke-miterlimit:4;stroke-dasharray:none;stroke-opacity:1"
         d="M 265.55087,76.88158 V -143.11841"
         inkscape:connector-curvature="0" />
    </g>
  </g>
</svg>
